<svg width="20" height="20" viewBox="0 0 20 20" fill="none" xmlns="http://www.w3.org/2000/svg">
<path d="M9.99967 4.99999V3.33333M9.99967 4.99999C9.0792 4.99999 8.33301 5.74619 8.33301 6.66666C8.33301 7.58714 9.0792 8.33333 9.99967 8.33333M9.99967 4.99999C10.9201 4.99999 11.6663 5.74619 11.6663 6.66666C11.6663 7.58714 10.9201 8.33333 9.99967 8.33333M4.99967 15C5.92015 15 6.66634 14.2538 6.66634 13.3333C6.66634 12.4129 5.92015 11.6667 4.99967 11.6667M4.99967 15C4.0792 15 3.33301 14.2538 3.33301 13.3333C3.33301 12.4129 4.0792 11.6667 4.99967 11.6667M4.99967 15V16.6667M4.99967 11.6667V3.33333M9.99967 8.33333V16.6667M14.9997 15C15.9201 15 16.6663 14.2538 16.6663 13.3333C16.6663 12.4129 15.9201 11.6667 14.9997 11.6667M14.9997 15C14.0792 15 13.333 14.2538 13.333 13.3333C13.333 12.4129 14.0792 11.6667 14.9997 11.6667M14.9997 15V16.6667M14.9997 11.6667V3.33333" stroke="#17DCF5" stroke-width="1.5" stroke-linecap="round" stroke-linejoin="round"/>
</svg>
