<svg width="25" height="25" viewBox="0 0 25 25" fill="none" xmlns="http://www.w3.org/2000/svg">
<path opacity="0.6" fill-rule="evenodd" clip-rule="evenodd" d="M14.9847 16.0894C13.5807 17.2112 11.8005 17.7528 10.0096 17.603C8.21874 17.4532 6.55321 16.6233 5.35508 15.2839C4.15696 13.9444 3.51719 12.197 3.56718 10.4006C3.61716 8.6042 4.35311 6.8951 5.62386 5.62435C6.89462 4.3536 8.60371 3.61765 10.4001 3.56766C12.1966 3.51768 13.9439 4.15745 15.2834 5.35557C16.6228 6.5537 17.4527 8.21923 17.6025 10.0101C17.7523 11.801 17.2107 13.5812 16.0889 14.9852L21.4597 20.355C21.5365 20.4265 21.598 20.5128 21.6407 20.6086C21.6834 20.7044 21.7064 20.8079 21.7083 20.9128C21.7101 21.0177 21.6908 21.1219 21.6515 21.2192C21.6122 21.3164 21.5537 21.4048 21.4796 21.479C21.4054 21.5532 21.317 21.6117 21.2197 21.651C21.1224 21.6903 21.0182 21.7096 20.9133 21.7077C20.8084 21.7059 20.705 21.6829 20.6092 21.6402C20.5133 21.5975 20.4271 21.5359 20.3556 21.4592L14.9847 16.0894ZM6.72847 14.4623C5.96393 13.6977 5.44321 12.7236 5.23213 11.6631C5.02105 10.6026 5.12907 9.50337 5.54255 8.50427C5.95602 7.50517 6.6564 6.65107 7.55515 6.0499C8.45391 5.44873 9.5107 5.12748 10.592 5.12675C11.6733 5.12603 12.7305 5.44585 13.6301 6.04581C14.5296 6.64577 15.2311 7.49893 15.646 8.49747C16.0608 9.49601 16.1703 10.5951 15.9606 11.6559C15.751 12.7166 15.2316 13.6914 14.4681 14.4571L14.4628 14.4623L14.4576 14.4665C13.4317 15.49 12.0414 16.0645 10.5922 16.0637C9.14297 16.063 7.75331 15.487 6.72847 14.4623Z" fill="white"/>
</svg>
