<svg width="50" height="50" viewBox="0 0 50 50" fill="none" xmlns="http://www.w3.org/2000/svg">
<path d="M35.043 23.1147H24.8762V14.5678H35.043V23.1147Z" fill="#F9EE80"/>
<mask id="mask0_1238_819" style="mask-type:luminance" maskUnits="userSpaceOnUse" x="0" y="0" width="50" height="50">
<path d="M0 3.8147e-06H50V50H0V3.8147e-06Z" fill="white"/>
</mask>
<g mask="url(#mask0_1238_819)">
<path d="M45.2099 23.1147H35.0431V14.5677H43.9245C44.6344 14.5677 45.2099 15.1431 45.2099 15.8531V23.1147Z" fill="#FD7A6E"/>
<path d="M40.1265 14.5677H29.9597V7.56486C29.9597 6.71202 30.651 6.02071 31.5039 6.02071H38.5823C39.4351 6.02071 40.1265 6.71202 40.1265 7.56486V14.5677Z" fill="#9CDA82"/>
<path d="M24.8762 23.1147H29.9459V14.5678H24.8762V23.1147Z" fill="#F8EA69"/>
<path d="M35.0431 23.1147H40.1128V14.5678H35.0431V23.1147Z" fill="#FB695B"/>
<path d="M36.5736 6.02071H31.5039C30.6511 6.02071 29.9597 6.71202 29.9597 7.56486V14.5677H35.0294V7.56486C35.0294 6.71202 35.7208 6.02071 36.5736 6.02071Z" fill="#8DD470"/>
<path d="M47.4323 38.2577H25.1846L22.5826 22.8091H45.4792C46.5578 22.8091 47.4323 23.6836 47.4323 24.7622V38.2577Z" fill="#FF8C42"/>
<path d="M25.1845 8.81968C25.1845 7.17554 23.8516 5.84263 22.2075 5.84263H12.8586C11.8361 5.84263 10.8851 6.36743 10.3399 7.23247L3.18774 18.5821C2.67319 19.3986 2.40015 20.3441 2.40015 21.3093V38.2576H25.1845V8.81968Z" fill="#FF9A5C"/>
<path d="M12.1118 18.5821L19.2639 7.2325C19.8091 6.36746 20.7601 5.84265 21.7826 5.84265H12.8587C11.8362 5.84265 10.8851 6.36746 10.34 7.2325L3.18787 18.5821C2.67332 19.3986 2.40027 20.3441 2.40027 21.3094V38.2577H11.3242V21.3094C11.3242 20.3441 11.5972 19.3986 12.1118 18.5821Z" fill="#FF8C42"/>
<path d="M2.69897 31.9287H6.72183C7.80044 31.9287 8.67495 31.0543 8.67495 29.9756C8.67495 28.897 7.80044 28.0225 6.72183 28.0225H2.69897C1.62036 28.0225 0.74585 28.897 0.74585 29.9756C0.74585 31.0543 1.62036 31.9287 2.69897 31.9287Z" fill="#F9EE80"/>
<path d="M4.6521 29.9756C4.6521 28.897 5.52661 28.0225 6.60522 28.0225H2.69897C1.62036 28.0225 0.74585 28.897 0.74585 29.9756C0.74585 31.0543 1.62036 31.9287 2.69897 31.9287H6.60522C5.52661 31.9287 4.6521 31.0543 4.6521 29.9756Z" fill="#F8EA69"/>
<path d="M2.69897 40.2697H47.3011C48.3797 40.2697 49.2542 39.3952 49.2542 38.3166C49.2542 37.2379 48.3797 36.3635 47.3011 36.3635H2.69897C1.62036 36.3635 0.74585 37.2379 0.74585 38.3166C0.74585 39.3952 1.62036 40.2697 2.69897 40.2697Z" fill="#C6C6C6"/>
<path d="M9.58072 16.9973L12.8972 11.3628C13.2875 10.6998 13.9994 10.2928 14.7686 10.2928H19.7938C20.3693 10.2928 20.8359 10.7594 20.8359 11.335V16.9777C20.8359 17.5466 20.3748 18.0076 19.806 18.0076H10.1585C9.6398 18.0076 9.31773 17.4442 9.58072 16.9973Z" fill="#FFF1CF"/>
<path d="M17.3354 10.2928H14.7686C13.9994 10.2928 13.2874 10.6998 12.8972 11.3628L9.5807 16.9973C9.31771 17.4442 9.63988 18.0076 10.1584 18.0076H12.4738L17.3354 10.2928Z" fill="#FFEAB7"/>
<path d="M19.5447 38.2979C19.5447 41.5339 16.9213 44.1573 13.6853 44.1573C10.4493 44.1573 7.82593 41.5339 7.82593 38.2979C7.82593 35.0619 10.4493 32.4385 13.6853 32.4385C16.9213 32.4385 19.5447 35.0619 19.5447 38.2979Z" fill="#9C9C9C"/>
<path d="M13.6853 32.4385C10.4493 32.4385 7.82593 35.0618 7.82593 38.2979C7.82593 41.5339 10.4493 44.1572 13.6853 44.1572C12.6067 44.1572 11.7322 43.2828 11.7322 42.2041C11.7322 41.1255 12.6067 40.251 13.6853 40.251V36.3447C12.6067 36.3447 11.7322 35.4703 11.7322 34.3916C11.7322 33.313 12.6067 32.4385 13.6853 32.4385Z" fill="#858586"/>
<path d="M15.6384 38.298C15.6384 39.3766 14.764 40.2511 13.6853 40.2511C12.6067 40.2511 11.7322 39.3766 11.7322 38.298C11.7322 37.2193 12.6067 36.3448 13.6853 36.3448C14.764 36.3448 15.6384 37.2193 15.6384 38.298Z" fill="#C6C6C6"/>
<path d="M15.0876 39.1788C14.0089 39.1788 13.1344 38.3043 13.1344 37.2257C13.1344 36.9218 13.2058 36.6352 13.3297 36.3787C12.4211 36.5461 11.7323 37.3409 11.7323 38.2979C11.7323 39.3766 12.6067 40.251 13.6855 40.251C14.4601 40.251 15.1275 39.7987 15.4432 39.1449C15.3277 39.1662 15.2093 39.1788 15.0876 39.1788Z" fill="#B7B7B7"/>
<path d="M43.3671 38.2979C43.3671 41.5339 40.7437 44.1573 37.5077 44.1573C34.2716 44.1573 31.6483 41.5339 31.6483 38.2979C31.6483 35.0619 34.2716 32.4385 37.5077 32.4385C40.7437 32.4385 43.3671 35.0619 43.3671 38.2979Z" fill="#9C9C9C"/>
<path d="M37.5076 32.4385C34.2715 32.4385 31.6482 35.0618 31.6482 38.2979C31.6482 41.5339 34.2715 44.1572 37.5076 44.1572C36.429 44.1572 35.5544 43.2828 35.5544 42.2041C35.5544 41.1255 36.429 40.251 37.5076 40.251V36.3447C36.429 36.3447 35.5544 35.4703 35.5544 34.3916C35.5544 33.313 36.429 32.4385 37.5076 32.4385Z" fill="#858586"/>
<path d="M39.4607 38.298C39.4607 39.3766 38.5863 40.2511 37.5076 40.2511C36.429 40.2511 35.5544 39.3766 35.5544 38.298C35.5544 37.2193 36.429 36.3448 37.5076 36.3448C38.5863 36.3448 39.4607 37.2193 39.4607 38.298Z" fill="#C6C6C6"/>
<path d="M38.9098 39.1788C37.8311 39.1788 36.9567 38.3043 36.9567 37.2257C36.9567 36.9218 37.0281 36.6352 37.152 36.3787C36.2433 36.5461 35.5546 37.3409 35.5546 38.2979C35.5546 39.3766 36.429 40.251 37.5078 40.251C38.2824 40.251 38.9498 39.7987 39.2655 39.1449C39.15 39.1662 39.0315 39.1788 38.9098 39.1788Z" fill="#B7B7B7"/>
<path d="M2.40027 31.9499V35.936" stroke="black" stroke-width="2" stroke-miterlimit="10" stroke-linecap="round" stroke-linejoin="round"/>
<path d="M12.8587 5.84265C11.8361 5.84265 10.8851 6.36746 10.3399 7.23249L3.18787 18.5821C2.67332 19.3987 2.40027 20.3442 2.40027 21.3093V27.9637" stroke="black" stroke-width="2" stroke-miterlimit="10" stroke-linecap="round" stroke-linejoin="round"/>
<path d="M25.1846 35.936V8.81973C25.1846 7.17559 23.8517 5.84268 22.2075 5.84268H16.359" stroke="black" stroke-width="2" stroke-miterlimit="10" stroke-linecap="round" stroke-linejoin="round"/>
<path d="M47.4323 36.3447V33.9006V24.7622C47.4323 23.6835 46.5578 22.8091 45.4792 22.8091H25.1846" stroke="black" stroke-width="2" stroke-miterlimit="10" stroke-linecap="round" stroke-linejoin="round"/>
<path d="M17.3365 23.1147H20.2662" stroke="black" stroke-width="2" stroke-miterlimit="10" stroke-linecap="round" stroke-linejoin="round"/>
<path d="M25.376 14.5677H35.0431" stroke="black" stroke-width="2" stroke-miterlimit="10" stroke-linecap="round" stroke-linejoin="round"/>
<path d="M35.0431 22.6788V14.5677H43.9245C44.6344 14.5677 45.2099 15.1431 45.2099 15.8531V22.6463" stroke="black" stroke-width="2" stroke-miterlimit="10" stroke-linecap="round" stroke-linejoin="round"/>
<path d="M29.9597 14.5677V7.56486C29.9597 6.71202 30.6511 6.02071 31.504 6.02071H38.5824C39.4352 6.02071 40.1265 6.71202 40.1265 7.56486V14.5677" stroke="black" stroke-width="2" stroke-miterlimit="10" stroke-linecap="round" stroke-linejoin="round"/>
<path d="M9.58072 16.9973L12.8972 11.3628C13.2875 10.6998 13.9994 10.2928 14.7686 10.2928H19.7938C20.3693 10.2928 20.8359 10.7594 20.8359 11.335V16.9777C20.8359 17.5466 20.3748 18.0076 19.806 18.0076H10.1585C9.6398 18.0076 9.31773 17.4442 9.58072 16.9973Z" stroke="black" stroke-width="2" stroke-miterlimit="10" stroke-linecap="round" stroke-linejoin="round"/>
<path d="M2.69897 31.9287H6.72183C7.80044 31.9287 8.67495 31.0543 8.67495 29.9756C8.67495 28.897 7.80044 28.0225 6.72183 28.0225H2.69897C1.62036 28.0225 0.74585 28.897 0.74585 29.9756C0.74585 31.0543 1.62036 31.9287 2.69897 31.9287Z" stroke="black" stroke-width="2" stroke-miterlimit="10" stroke-linecap="round" stroke-linejoin="round"/>
<path d="M31.9119 36.3635H19.2831" stroke="black" stroke-width="2" stroke-miterlimit="10" stroke-linecap="round" stroke-linejoin="round"/>
<path d="M43.0822 40.2697H47.3011C48.3798 40.2697 49.2542 39.3952 49.2542 38.3166C49.2542 37.2379 48.3798 36.3635 47.3011 36.3635H43.157" stroke="black" stroke-width="2" stroke-miterlimit="10" stroke-linecap="round" stroke-linejoin="round"/>
<path d="M19.2831 40.2697H31.9119" stroke="black" stroke-width="2" stroke-miterlimit="10" stroke-linecap="round" stroke-linejoin="round"/>
<path d="M8.08794 36.3635H2.69897C1.62026 36.3635 0.74585 37.2379 0.74585 38.3166C0.74585 39.3952 1.62026 40.2697 2.69897 40.2697H8.11284" stroke="black" stroke-width="2" stroke-miterlimit="10" stroke-linecap="round" stroke-linejoin="round"/>
<path d="M19.5447 38.2979C19.5447 41.5339 16.9213 44.1573 13.6853 44.1573C10.4493 44.1573 7.82593 41.5339 7.82593 38.2979C7.82593 35.0619 10.4493 32.4385 13.6853 32.4385C16.9213 32.4385 19.5447 35.0619 19.5447 38.2979Z" stroke="black" stroke-width="2" stroke-miterlimit="10" stroke-linecap="round" stroke-linejoin="round"/>
<path d="M15.6384 38.298C15.6384 39.3766 14.764 40.2511 13.6853 40.2511C12.6067 40.2511 11.7322 39.3766 11.7322 38.298C11.7322 37.2193 12.6067 36.3448 13.6853 36.3448C14.764 36.3448 15.6384 37.2193 15.6384 38.298Z" stroke="black" stroke-width="2" stroke-miterlimit="10" stroke-linecap="round" stroke-linejoin="round"/>
<path d="M43.3671 38.2979C43.3671 41.5339 40.7437 44.1573 37.5077 44.1573C34.2716 44.1573 31.6483 41.5339 31.6483 38.2979C31.6483 35.0619 34.2716 32.4385 37.5077 32.4385C40.7437 32.4385 43.3671 35.0619 43.3671 38.2979Z" stroke="black" stroke-width="2" stroke-miterlimit="10" stroke-linecap="round" stroke-linejoin="round"/>
<path d="M39.4607 38.298C39.4607 39.3766 38.5863 40.2511 37.5076 40.2511C36.429 40.2511 35.5544 39.3766 35.5544 38.298C35.5544 37.2193 36.429 36.3448 37.5076 36.3448C38.5863 36.3448 39.4607 37.2193 39.4607 38.298Z" stroke="black" stroke-width="2" stroke-miterlimit="10" stroke-linecap="round" stroke-linejoin="round"/>
</g>
</svg>
