<svg width="50" height="50" viewBox="0 0 50 50" fill="none" xmlns="http://www.w3.org/2000/svg">
<g clip-path="url(#clip0_1238_938)">
<path d="M36.7188 19.5312V27.3438H30.4688V47.6562H7.03125V27.3438H0.78125V19.5312C0.78125 14.7813 4.97656 10.9375 10.1562 10.9375C10.1562 12.2344 14 13.2812 18.75 13.2812C23.5 13.2812 27.3438 12.2344 27.3438 10.9375C32.5234 10.9375 36.7188 14.7813 36.7188 19.5312Z" fill="#FDDB66"/>
<path d="M27.3438 10.9375C27.3438 12.2344 23.5 13.2812 18.75 13.2812C14 13.2812 10.1562 12.2344 10.1562 10.9375C4.97656 10.9375 0.78125 14.7813 0.78125 19.5312V27.3438H7.03125V47.6562H30.4688V27.3438H36.7188V19.5312C36.7188 14.7813 32.5234 10.9375 27.3438 10.9375ZM35.1562 25.7812H30.4688C30.0547 25.7825 29.658 25.9475 29.3653 26.2403C29.0725 26.533 28.9075 26.9297 28.9062 27.3438V46.0938H8.59375V21.0938C8.59375 20.6793 8.42913 20.2819 8.1361 19.9889C7.84308 19.6959 7.44565 19.5312 7.03125 19.5312C6.61685 19.5312 6.21942 19.6959 5.9264 19.9889C5.63337 20.2819 5.46875 20.6793 5.46875 21.0938V25.7812H2.34375V19.5312C2.34375 15.9297 5.36719 12.9531 9.25781 12.5469C11.2813 14.7109 17.3438 14.8438 18.75 14.8438C20.1562 14.8438 26.2188 14.7109 28.2422 12.5469C32.1328 12.9531 35.1562 15.9297 35.1562 19.5312V25.7812Z" fill="#BDA44D"/>
<path d="M36.7188 24.2188V25.7812H35.9375L35.8359 27.3438H30.4688V47.6562H26.5625V46.0938H25.7812V42.1875C25.8013 41.1071 25.9296 40.0314 26.1641 38.9766C26.2031 38.75 26.2422 38.5312 26.2891 38.3047C26.489 37.532 26.5811 36.7354 26.5625 35.9375C26.5469 35.7031 26.5234 35.4609 26.5 35.2109C26.4687 34.8516 26.4297 34.4766 26.3984 34.1094C26.3594 33.7109 26.3203 33.3281 26.2969 32.9688C26.1484 30.9297 26.0026 28.8906 25.8594 26.8516C25.8359 26.5 25.8047 26.1406 25.7812 25.7812H25V24.2188C25.0012 23.8047 25.1663 23.408 25.459 23.1153C25.7518 22.8225 26.1485 22.6575 26.5625 22.6562H35.1562C35.5703 22.6575 35.967 22.8225 36.2597 23.1153C36.5525 23.408 36.7175 23.8047 36.7188 24.2188Z" fill="#BDA44D"/>
<path d="M1.5625 39.0625H23.4375V49.2188H1.5625V39.0625Z" fill="#EE5260"/>
<path d="M2.34375 35.9375H22.6562C23.0707 35.9375 23.4681 36.1021 23.7611 36.3951C24.0541 36.6882 24.2188 37.0856 24.2188 37.5V39.0625H0.78125V37.5C0.78125 37.0856 0.94587 36.6882 1.2389 36.3951C1.53192 36.1021 1.92935 35.9375 2.34375 35.9375Z" fill="#EE5260"/>
<path d="M10.9375 35.9375H14.0625V39.0625H10.9375V35.9375Z" fill="#FDDB66"/>
<path d="M1.5625 39.0625H23.4375V41.4062H1.5625V39.0625Z" fill="#B23D48"/>
<path d="M8.59375 35.9375H10.9375V49.2188H8.59375V35.9375Z" fill="#B23D48"/>
<path d="M10.9375 39.0625H14.0625V49.2188H10.9375V39.0625Z" fill="#FDDB66"/>
<path d="M28.9062 22.6562H37.5C37.9144 22.6562 38.3118 22.8209 38.6049 23.1139C38.8979 23.4069 39.0625 23.8043 39.0625 24.2188V25.7812H27.3438V24.2188C27.3438 23.8043 27.5084 23.4069 27.8014 23.1139C28.0944 22.8209 28.4918 22.6562 28.9062 22.6562Z" fill="#35F3B8"/>
<path d="M32.0312 22.6562C31.6172 22.6575 31.2205 22.8225 30.9278 23.1153C30.635 23.408 30.47 23.8047 30.4688 24.2188V25.7812H27.3438V24.2188C27.345 23.8047 27.51 23.408 27.8028 23.1153C28.0955 22.8225 28.4922 22.6575 28.9062 22.6562H32.0312Z" fill="#22A17C"/>
<path d="M38.2812 25.7812L37.5 37.5C37.5 37.5 37.5 40.625 40.625 40.625L45.3125 39.8438C47.4695 39.8438 49.2188 41.243 49.2188 42.9688V46.0938H28.125V42.1875C28.1663 40.8804 28.3366 39.5806 28.6336 38.307C28.8356 37.534 28.9274 36.7362 28.9062 35.9375C28.843 35.0078 28.7047 33.8961 28.6383 32.9688L28.2031 26.8547L28.125 25.7812H38.2812Z" fill="#38C4C6"/>
<path d="M32.0312 35.9375C32.0498 36.7354 31.9578 37.532 31.7578 38.3047C31.463 39.5794 31.293 40.8798 31.25 42.1875V46.0938H28.125V42.1875C28.168 40.8798 28.338 39.5794 28.6328 38.3047C28.8328 37.532 28.9248 36.7354 28.9062 35.9375C28.8438 35.0078 28.7031 33.8984 28.6406 32.9688C28.4922 30.9297 28.3464 28.8906 28.2031 26.8516C28.1797 26.5 28.1484 26.1406 28.125 25.7812H31.25C31.2734 26.1406 31.3047 26.5 31.3281 26.8516C31.4687 28.8906 31.6146 30.9297 31.7656 32.9688C31.8281 33.8984 31.9688 35.0078 32.0312 35.9375Z" fill="#3F8F90"/>
<path d="M28.9062 46.0938V47.6562C28.9062 48.0707 29.0709 48.4681 29.3639 48.7611C29.6569 49.0541 30.0543 49.2188 30.4688 49.2188H36.7188C36.7188 48.3594 37.768 47.6562 39.0625 47.6562C40.357 47.6562 41.4062 48.3594 41.4062 49.2188H42.1875C46.0711 49.2188 49.2188 48.4375 49.2188 46.0938H28.9062Z" fill="#35F3B8"/>
<path d="M33.5938 49.2188H30.4688C30.0547 49.2175 29.658 49.0525 29.3653 48.7597C29.0725 48.467 28.9075 48.0703 28.9062 47.6562V46.0938H32.0312V47.6562C32.0325 48.0703 32.1975 48.467 32.4903 48.7597C32.783 49.0525 33.1797 49.2175 33.5938 49.2188Z" fill="#22A17C"/>
<path d="M32.0312 19.5312C31.824 19.5312 31.6253 19.4489 31.4788 19.3024C31.3323 19.1559 31.25 18.9572 31.25 18.75V17.9688C31.25 17.7615 31.3323 17.5628 31.4788 17.4163C31.6253 17.2698 31.824 17.1875 32.0312 17.1875C32.2385 17.1875 32.4372 17.2698 32.5837 17.4163C32.7302 17.5628 32.8125 17.7615 32.8125 17.9688V18.75C32.8125 18.9572 32.7302 19.1559 32.5837 19.3024C32.4372 19.4489 32.2385 19.5312 32.0312 19.5312Z" fill="white"/>
<path d="M29.6875 18.75C29.4803 18.75 29.2816 18.6677 29.1351 18.5212C28.9886 18.3747 28.9062 18.176 28.9062 17.9688V17.1875C28.9062 16.9803 28.9886 16.7816 29.1351 16.6351C29.2816 16.4886 29.4803 16.4062 29.6875 16.4062C29.8947 16.4062 30.0934 16.4886 30.2399 16.6351C30.3864 16.7816 30.4688 16.9803 30.4688 17.1875V17.9688C30.4688 18.176 30.3864 18.3747 30.2399 18.5212C30.0934 18.6677 29.8947 18.75 29.6875 18.75Z" fill="white"/>
<path d="M34.375 35.9375C34.1678 35.9375 33.9691 35.8552 33.8226 35.7087C33.6761 35.5622 33.5938 35.3635 33.5938 35.1562V34.375C33.5938 34.1678 33.6761 33.9691 33.8226 33.8226C33.9691 33.6761 34.1678 33.5938 34.375 33.5938C34.5822 33.5938 34.7809 33.6761 34.9274 33.8226C35.0739 33.9691 35.1562 34.1678 35.1562 34.375V35.1562C35.1562 35.3635 35.0739 35.5622 34.9274 35.7087C34.7809 35.8552 34.5822 35.9375 34.375 35.9375Z" fill="white"/>
<path d="M21.0938 44.5312C20.8865 44.5312 20.6878 44.4489 20.5413 44.3024C20.3948 44.1559 20.3125 43.9572 20.3125 43.75V42.9688C20.3125 42.7615 20.3948 42.5628 20.5413 42.4163C20.6878 42.2698 20.8865 42.1875 21.0938 42.1875C21.301 42.1875 21.4997 42.2698 21.6462 42.4163C21.7927 42.5628 21.875 42.7615 21.875 42.9688V43.75C21.875 43.9572 21.7927 44.1559 21.6462 44.3024C21.4997 44.4489 21.301 44.5312 21.0938 44.5312Z" fill="white"/>
<path d="M18.75 9.375C18.5428 9.375 18.3441 9.29269 18.1976 9.14618C18.0511 8.99967 17.9688 8.80095 17.9688 8.59375C17.9688 8.38655 18.0511 8.18784 18.1976 8.04133C18.3441 7.89481 18.5428 7.8125 18.75 7.8125C17.9774 7.8125 17.2222 7.5834 16.5798 7.15418C15.9374 6.72496 15.4368 6.11488 15.1411 5.40111C14.8454 4.68734 14.7681 3.90192 14.9188 3.14418C15.0695 2.38644 15.4416 1.69041 15.9879 1.14412C16.5342 0.597817 17.2302 0.225783 17.9879 0.0750593C18.7457 -0.0756643 19.5311 0.00169252 20.2449 0.297347C20.9586 0.593002 21.5687 1.09368 21.9979 1.73606C22.4272 2.37844 22.6563 3.13367 22.6563 3.90625C22.6563 4.11345 22.5739 4.31217 22.4274 4.45868C22.2809 4.60519 22.0822 4.6875 21.875 4.6875C21.6678 4.6875 21.4691 4.60519 21.3226 4.45868C21.1761 4.31217 21.0938 4.11345 21.0938 3.90625C21.0938 3.4427 20.9563 2.98956 20.6988 2.60413C20.4412 2.21871 20.0752 1.9183 19.6469 1.74091C19.2187 1.56352 18.7474 1.5171 18.2928 1.60754C17.8381 1.69797 17.4205 1.92119 17.0927 2.24897C16.7649 2.57675 16.5417 2.99437 16.4513 3.44901C16.3609 3.90365 16.4073 4.3749 16.5847 4.80317C16.7621 5.23143 17.0625 5.59747 17.4479 5.85501C17.8333 6.11254 18.2865 6.25 18.75 6.25C19.1644 6.25 19.5618 6.41462 19.8549 6.70765C20.1479 7.00067 20.3125 7.3981 20.3125 7.8125C20.3125 8.2269 20.1479 8.62433 19.8549 8.91736C19.5618 9.21038 19.1644 9.375 18.75 9.375Z" fill="#072F3F"/>
<path d="M12.5 13.2813C12.3238 13.2816 12.1527 13.2224 12.0144 13.1132C11.8761 13.004 11.7788 12.8512 11.7382 12.6798C11.6977 12.5083 11.7163 12.3281 11.7911 12.1686C11.8658 12.009 11.9923 11.8794 12.15 11.8008L18.4 8.6758C18.5855 8.58318 18.8001 8.56803 18.9968 8.63366C19.1934 8.6993 19.3559 8.84036 19.4485 9.0258C19.5411 9.21125 19.5563 9.42589 19.4906 9.62251C19.425 9.81913 19.2839 9.98162 19.0985 10.0742L12.8485 13.1992C12.7403 13.2532 12.621 13.2813 12.5 13.2813Z" fill="#072F3F"/>
<path d="M25 13.2813C24.8791 13.2813 24.7598 13.2532 24.6516 13.1992L18.4016 10.0742C18.2162 9.98162 18.0751 9.81913 18.0095 9.62251C17.9438 9.42589 17.959 9.21125 18.0516 9.0258C18.1442 8.84036 18.3067 8.6993 18.5033 8.63366C18.6999 8.56803 18.9146 8.58318 19.1 8.6758L25.35 11.8008C25.5077 11.8794 25.6342 12.009 25.709 12.1686C25.7838 12.3281 25.8024 12.5083 25.7618 12.6798C25.7213 12.8512 25.624 13.004 25.4857 13.1132C25.3474 13.2224 25.1762 13.2816 25 13.2813Z" fill="#072F3F"/>
<path d="M18.75 14.0625C15.268 14.0625 9.375 13.4039 9.375 10.9375C9.375 10.7303 9.45731 10.5316 9.60382 10.3851C9.75034 10.2385 9.94905 10.1562 10.1562 10.1562C10.3635 10.1562 10.5622 10.2385 10.7087 10.3851C10.8552 10.5316 10.9375 10.7303 10.9375 10.9375C11.1508 11.4617 14.0281 12.5 18.75 12.5C23.4719 12.5 26.3492 11.4617 26.5672 10.9047C26.5672 10.8028 26.5875 10.702 26.6269 10.6081C26.6664 10.5143 26.7242 10.4292 26.797 10.358C26.8697 10.2867 26.956 10.2307 27.0507 10.1933C27.1454 10.1558 27.2466 10.1376 27.3484 10.1398C27.5567 10.1441 27.7549 10.2302 27.9002 10.3795C28.0455 10.5287 28.1263 10.7292 28.125 10.9375C28.125 13.4039 22.232 14.0625 18.75 14.0625Z" fill="#072F3F"/>
<path d="M7.03125 28.125H0.78125C0.57405 28.125 0.375336 28.0427 0.228823 27.8962C0.08231 27.7497 0 27.551 0 27.3438V19.5312C0 14.3617 4.55625 10.1562 10.1562 10.1562C10.3635 10.1562 10.5622 10.2386 10.7087 10.3851C10.8552 10.5316 10.9375 10.7303 10.9375 10.9375C10.9375 11.1447 10.8552 11.3434 10.7087 11.4899C10.5622 11.6364 10.3635 11.7188 10.1562 11.7188C5.41797 11.7188 1.5625 15.2234 1.5625 19.5312V26.5625H7.03125C7.23845 26.5625 7.43716 26.6448 7.58368 26.7913C7.73019 26.9378 7.8125 27.1365 7.8125 27.3438C7.8125 27.551 7.73019 27.7497 7.58368 27.8962C7.43716 28.0427 7.23845 28.125 7.03125 28.125Z" fill="#072F3F"/>
<path d="M7.03125 36.7188C6.82405 36.7188 6.62534 36.6364 6.47882 36.4899C6.33231 36.3434 6.25 36.1447 6.25 35.9375V21.0938C6.25 20.8865 6.33231 20.6878 6.47882 20.5413C6.62534 20.3948 6.82405 20.3125 7.03125 20.3125C7.23845 20.3125 7.43716 20.3948 7.58368 20.5413C7.73019 20.6878 7.8125 20.8865 7.8125 21.0938V35.9375C7.8125 36.1447 7.73019 36.3434 7.58368 36.4899C7.43716 36.6364 7.23845 36.7188 7.03125 36.7188Z" fill="#072F3F"/>
<path d="M36.7188 23.4375C36.5115 23.4375 36.3128 23.3552 36.1663 23.2087C36.0198 23.0622 35.9375 22.8635 35.9375 22.6562V19.5312C35.9375 15.2234 32.082 11.7188 27.3438 11.7188C27.1365 11.7188 26.9378 11.6364 26.7913 11.4899C26.6448 11.3434 26.5625 11.1447 26.5625 10.9375C26.5625 10.7303 26.6448 10.5316 26.7913 10.3851C26.9378 10.2386 27.1365 10.1562 27.3438 10.1562C32.9438 10.1562 37.5 14.3617 37.5 19.5312V22.6562C37.5 22.8635 37.4177 23.0622 37.2712 23.2087C37.1247 23.3552 36.926 23.4375 36.7188 23.4375Z" fill="#072F3F"/>
<path d="M30.4688 23.4375C30.2615 23.4375 30.0628 23.3552 29.9163 23.2087C29.7698 23.0622 29.6875 22.8635 29.6875 22.6562V21.0938C29.6875 20.8865 29.7698 20.6878 29.9163 20.5413C30.0628 20.3948 30.2615 20.3125 30.4688 20.3125C30.676 20.3125 30.8747 20.3948 31.0212 20.5413C31.1677 20.6878 31.25 20.8865 31.25 21.0938V22.6562C31.25 22.8635 31.1677 23.0622 31.0212 23.2087C30.8747 23.3552 30.676 23.4375 30.4688 23.4375Z" fill="#072F3F"/>
<path d="M28.125 48.4375H23.4375C23.2303 48.4375 23.0316 48.3552 22.8851 48.2087C22.7386 48.0622 22.6562 47.8635 22.6562 47.6562C22.6562 47.449 22.7386 47.2503 22.8851 47.1038C23.0316 46.9573 23.2303 46.875 23.4375 46.875H28.125C28.3322 46.875 28.5309 46.9573 28.6774 47.1038C28.8239 47.2503 28.9062 47.449 28.9062 47.6562C28.9062 47.8635 28.8239 48.0622 28.6774 48.2087C28.5309 48.3552 28.3322 48.4375 28.125 48.4375Z" fill="#072F3F"/>
<path d="M39.0625 26.5625H27.3438C27.1365 26.5625 26.9378 26.4802 26.7913 26.3337C26.6448 26.1872 26.5625 25.9885 26.5625 25.7812V24.2188C26.5625 23.5971 26.8094 23.001 27.249 22.5615C27.6885 22.1219 28.2846 21.875 28.9062 21.875H37.5C38.1216 21.875 38.7177 22.1219 39.1573 22.5615C39.5968 23.001 39.8438 23.5971 39.8438 24.2188V25.7812C39.8438 25.9885 39.7614 26.1872 39.6149 26.3337C39.4684 26.4802 39.2697 26.5625 39.0625 26.5625ZM28.125 25H38.2812V24.2188C38.2812 24.0115 38.1989 23.8128 38.0524 23.6663C37.9059 23.5198 37.7072 23.4375 37.5 23.4375H28.9062C28.699 23.4375 28.5003 23.5198 28.3538 23.6663C28.2073 23.8128 28.125 24.0115 28.125 24.2188V25Z" fill="#072F3F"/>
<path d="M49.2188 46.875H28.125C27.9178 46.875 27.7191 46.7927 27.5726 46.6462C27.4261 46.4997 27.3438 46.301 27.3438 46.0938V42.1875C27.3803 40.8783 27.5462 39.5758 27.8391 38.2992L27.9266 37.8617C28.0814 37.2493 28.1488 36.618 28.1266 35.9867C28.0945 35.518 28.043 34.9977 27.9914 34.4805C27.9414 33.9774 27.8914 33.4766 27.8586 33.018L27.3438 25.8367C27.3291 25.6295 27.3973 25.425 27.5334 25.2681C27.6695 25.1111 27.8623 25.0147 28.0695 25C28.2767 24.9853 28.4813 25.0535 28.6382 25.1896C28.7951 25.3257 28.8916 25.5186 28.9063 25.7258L29.4188 32.9133C29.4508 33.3578 29.4969 33.8445 29.5477 34.332C29.6008 34.8664 29.6547 35.4024 29.6875 35.8891C29.7206 36.6575 29.6437 37.4267 29.4594 38.1735L29.3742 38.6047C29.101 39.7807 28.9443 40.9808 28.9063 42.1875V45.3125H48.4375V42.9688C48.4375 41.6914 47.0695 40.65 45.3742 40.625L40.7539 41.3945C40.7113 41.4019 40.6682 41.4059 40.625 41.4063C40.1068 41.4259 39.5901 41.3383 39.1072 41.1489C38.6244 40.9596 38.1859 40.6725 37.8192 40.3058C37.4525 39.9391 37.1655 39.5006 36.9761 39.0178C36.7867 38.535 36.6991 38.0183 36.7188 37.5L37.5 25.7297C37.5068 25.6271 37.5337 25.5268 37.5792 25.4347C37.6247 25.3425 37.688 25.2601 37.7653 25.1924C37.8426 25.1246 37.9326 25.0728 38.0299 25.0398C38.1273 25.0067 38.2302 24.9932 38.3328 25C38.4354 25.0068 38.5357 25.0337 38.6279 25.0792C38.7201 25.1247 38.8024 25.188 38.8702 25.2653C38.9379 25.3426 38.9898 25.4326 39.0228 25.5299C39.0558 25.6273 39.0693 25.7302 39.0625 25.8328L38.2813 37.5516C38.2708 37.8546 38.3225 38.1565 38.4334 38.4387C38.5442 38.7208 38.7117 38.9773 38.9256 39.1921C39.1395 39.407 39.3952 39.5757 39.6769 39.6877C39.9586 39.7998 40.2603 39.8529 40.5633 39.8438L45.1836 39.0742C45.2262 39.0668 45.2693 39.0629 45.3125 39.0625C47.8977 39.0625 50 40.8149 50 42.9688V46.0938C50 46.301 49.9177 46.4997 49.7712 46.6462C49.6247 46.7927 49.426 46.875 49.2188 46.875Z" fill="#072F3F"/>
<path d="M42.1875 50H41.4062C41.199 50 41.0003 49.9177 40.8538 49.7712C40.7073 49.6247 40.625 49.426 40.625 49.2188C40.625 48.9 40.0164 48.4375 39.0625 48.4375C38.1086 48.4375 37.5 48.9 37.5 49.2188C37.5 49.426 37.4177 49.6247 37.2712 49.7712C37.1247 49.9177 36.926 50 36.7188 50H30.4688C29.8471 50 29.251 49.7531 28.8115 49.3135C28.3719 48.874 28.125 48.2779 28.125 47.6562V46.0938C28.125 45.8865 28.2073 45.6878 28.3538 45.5413C28.5003 45.3948 28.699 45.3125 28.9062 45.3125C29.1135 45.3125 29.3122 45.3948 29.4587 45.5413C29.6052 45.6878 29.6875 45.8865 29.6875 46.0938V47.6562C29.6875 47.8635 29.7698 48.0622 29.9163 48.2087C30.0628 48.3552 30.2615 48.4375 30.4688 48.4375H36.1086C36.4057 47.927 36.8399 47.5099 37.3621 47.2337C37.8842 46.9576 38.4733 46.8333 39.0625 46.875C39.6517 46.8333 40.2408 46.9576 40.7629 47.2337C41.2851 47.5099 41.7193 47.927 42.0164 48.4375H42.1875C44.5219 48.4375 48.4375 48.1328 48.4375 46.0938C48.4375 45.8865 48.5198 45.6878 48.6663 45.5413C48.8128 45.3948 49.0115 45.3125 49.2188 45.3125C49.426 45.3125 49.6247 45.3948 49.7712 45.5413C49.9177 45.6878 50 45.8865 50 46.0938C50 47.8758 48.6445 50 42.1875 50Z" fill="#072F3F"/>
<path d="M37.5 30.4688H36.7188C36.5115 30.4688 36.3128 30.3864 36.1663 30.2399C36.0198 30.0934 35.9375 29.8947 35.9375 29.6875C35.9375 29.4803 36.0198 29.2816 36.1663 29.1351C36.3128 28.9886 36.5115 28.9062 36.7188 28.9062H37.5C37.7072 28.9062 37.9059 28.9886 38.0524 29.1351C38.1989 29.2816 38.2812 29.4803 38.2812 29.6875C38.2812 29.8947 38.1989 30.0934 38.0524 30.2399C37.9059 30.3864 37.7072 30.4688 37.5 30.4688Z" fill="#072F3F"/>
<path d="M37.5 33.5938H36.7188C36.5115 33.5938 36.3128 33.5114 36.1663 33.3649C36.0198 33.2184 35.9375 33.0197 35.9375 32.8125C35.9375 32.6053 36.0198 32.4066 36.1663 32.2601C36.3128 32.1136 36.5115 32.0312 36.7188 32.0312H37.5C37.7072 32.0312 37.9059 32.1136 38.0524 32.2601C38.1989 32.4066 38.2812 32.6053 38.2812 32.8125C38.2812 33.0197 38.1989 33.2184 38.0524 33.3649C37.9059 33.5114 37.7072 33.5938 37.5 33.5938Z" fill="#072F3F"/>
<path d="M37.5 36.7188H36.7188C36.5115 36.7188 36.3128 36.6364 36.1663 36.4899C36.0198 36.3434 35.9375 36.1447 35.9375 35.9375C35.9375 35.7303 36.0198 35.5316 36.1663 35.3851C36.3128 35.2386 36.5115 35.1562 36.7188 35.1562H37.5C37.7072 35.1562 37.9059 35.2386 38.0524 35.3851C38.1989 35.5316 38.2812 35.7303 38.2812 35.9375C38.2812 36.1447 38.1989 36.3434 38.0524 36.4899C37.9059 36.6364 37.7072 36.7188 37.5 36.7188Z" fill="#072F3F"/>
<path d="M40.625 42.1875C40.4178 42.1875 40.2191 42.1052 40.0726 41.9587C39.9261 41.8122 39.8438 41.6135 39.8438 41.4062V40.625C39.8438 40.4178 39.9261 40.2191 40.0726 40.0726C40.2191 39.9261 40.4178 39.8438 40.625 39.8438C40.8322 39.8438 41.0309 39.9261 41.1774 40.0726C41.3239 40.2191 41.4062 40.4178 41.4062 40.625V41.4062C41.4062 41.6135 41.3239 41.8122 41.1774 41.9587C41.0309 42.1052 40.8322 42.1875 40.625 42.1875Z" fill="#072F3F"/>
<path d="M43.75 42.1875C43.5428 42.1875 43.3441 42.1052 43.1976 41.9587C43.0511 41.8122 42.9688 41.6135 42.9688 41.4062V40.625C42.9688 40.4178 43.0511 40.2191 43.1976 40.0726C43.3441 39.9261 43.5428 39.8438 43.75 39.8438C43.9572 39.8438 44.1559 39.9261 44.3024 40.0726C44.4489 40.2191 44.5312 40.4178 44.5312 40.625V41.4062C44.5312 41.6135 44.4489 41.8122 44.3024 41.9587C44.1559 42.1052 43.9572 42.1875 43.75 42.1875Z" fill="#072F3F"/>
<path d="M24.2188 39.8438H0.78125C0.57405 39.8438 0.375336 39.7614 0.228823 39.6149C0.08231 39.4684 0 39.2697 0 39.0625V37.5C0 36.8784 0.24693 36.2823 0.686468 35.8427C1.12601 35.4032 1.72215 35.1562 2.34375 35.1562H22.6562C23.2779 35.1562 23.874 35.4032 24.3135 35.8427C24.7531 36.2823 25 36.8784 25 37.5V39.0625C25 39.2697 24.9177 39.4684 24.7712 39.6149C24.6247 39.7614 24.426 39.8438 24.2188 39.8438ZM1.5625 38.2812H23.4375V37.5C23.4375 37.2928 23.3552 37.0941 23.2087 36.9476C23.0622 36.8011 22.8635 36.7188 22.6562 36.7188H2.34375C2.13655 36.7188 1.93784 36.8011 1.79132 36.9476C1.64481 37.0941 1.5625 37.2928 1.5625 37.5V38.2812Z" fill="#072F3F"/>
<path d="M23.4375 50H1.5625C1.3553 50 1.15659 49.9177 1.01007 49.7712C0.86356 49.6247 0.78125 49.426 0.78125 49.2188V39.0625C0.78125 38.8553 0.86356 38.6566 1.01007 38.5101C1.15659 38.3636 1.3553 38.2812 1.5625 38.2812H23.4375C23.6447 38.2812 23.8434 38.3636 23.9899 38.5101C24.1364 38.6566 24.2188 38.8553 24.2188 39.0625V49.2188C24.2188 49.426 24.1364 49.6247 23.9899 49.7712C23.8434 49.9177 23.6447 50 23.4375 50ZM2.34375 48.4375H22.6562V39.8438H2.34375V48.4375Z" fill="#072F3F"/>
<path d="M10.9375 50C10.7303 50 10.5316 49.9177 10.3851 49.7712C10.2386 49.6247 10.1562 49.426 10.1562 49.2188V35.9375C10.1562 35.7303 10.2386 35.5316 10.3851 35.3851C10.5316 35.2386 10.7303 35.1562 10.9375 35.1562C11.1447 35.1562 11.3434 35.2386 11.4899 35.3851C11.6364 35.5316 11.7188 35.7303 11.7188 35.9375V49.2188C11.7188 49.426 11.6364 49.6247 11.4899 49.7712C11.3434 49.9177 11.1447 50 10.9375 50Z" fill="#072F3F"/>
<path d="M14.0625 50C13.8553 50 13.6566 49.9177 13.5101 49.7712C13.3636 49.6247 13.2812 49.426 13.2812 49.2188V35.9375C13.2812 35.7303 13.3636 35.5316 13.5101 35.3851C13.6566 35.2386 13.8553 35.1562 14.0625 35.1562C14.2697 35.1562 14.4684 35.2386 14.6149 35.3851C14.7614 35.5316 14.8438 35.7303 14.8438 35.9375V49.2188C14.8438 49.426 14.7614 49.6247 14.6149 49.7712C14.4684 49.9177 14.2697 50 14.0625 50Z" fill="#072F3F"/>
</g>
<defs>
<clipPath id="clip0_1238_938">
<rect width="50" height="50" fill="white"/>
</clipPath>
</defs>
</svg>
