<svg width="51" height="51" viewBox="0 0 51 51" fill="none" xmlns="http://www.w3.org/2000/svg">
<circle cx="25.5" cy="25.5" r="24.25" fill="#870EF8" fill-opacity="0.25" stroke="#870EF8" stroke-width="2.5"/>
<g opacity="0.1">
<mask id="mask0_644_1239" style="mask-type:luminance" maskUnits="userSpaceOnUse" x="5" y="5" width="41" height="41">
<path d="M45 45V6H6V45H45Z" fill="white" stroke="white"/>
</mask>
<g mask="url(#mask0_644_1239)">
<path d="M40.7676 31.3785C41.3049 31.0323 41.7522 30.5533 42.0694 29.9955C42.3626 29.4802 42.5737 28.9225 42.8098 28.3801C43.2775 27.306 43.891 26.3679 44.8349 25.6753C44.953 25.5887 44.953 25.4113 44.8349 25.3247C43.891 24.6321 43.2775 23.694 42.8098 22.6199C42.5737 22.0775 42.3626 21.5198 42.0694 21.0045C41.7695 20.4772 41.3533 20.0202 40.8547 19.6793" stroke="white" stroke-miterlimit="10" stroke-linecap="round" stroke-linejoin="round"/>
<path d="M10.1212 31.3041C9.6333 30.9651 9.22557 30.5143 8.93057 29.9955C8.63745 29.4802 8.42635 28.9225 8.19018 28.3801C7.72252 27.306 7.10893 26.3679 6.1651 25.6753C6.04698 25.5887 6.04698 25.4113 6.1651 25.3247C7.10893 24.6321 7.72252 23.694 8.19018 22.6199C8.42635 22.0775 8.63745 21.5198 8.93057 21.0045C9.2444 20.4527 9.68573 19.9777 10.2154 19.6325" stroke="white" stroke-miterlimit="10" stroke-linecap="round" stroke-linejoin="round"/>
<path d="M19.6632 40.831C20.0057 41.3401 20.4688 41.7648 21.0045 42.0695C21.5198 42.3625 22.0775 42.5737 22.6199 42.8098C23.694 43.2774 24.6321 43.891 25.3247 44.8349C25.4113 44.9531 25.5887 44.9531 25.6753 44.8349C26.3679 43.891 27.306 43.2774 28.3801 42.8098C28.9225 42.5737 29.4802 42.3625 29.9956 42.0695C30.5453 41.7567 31.0188 41.3175 31.3638 40.7903" stroke="white" stroke-miterlimit="10" stroke-linecap="round" stroke-linejoin="round"/>
<path d="M19.5837 10.2922C19.9324 9.72834 20.4261 9.25943 21.0045 8.93052C21.5197 8.6374 22.0775 8.42631 22.6199 8.19021C23.6939 7.72248 24.6321 7.10896 25.3246 6.16513C25.4114 6.04693 25.5886 6.04693 25.6754 6.16513C26.3679 7.10896 27.3061 7.72248 28.3801 8.19021C28.9225 8.42631 29.4803 8.6374 29.9955 8.93052C30.5709 9.25779 31.0627 9.72365 31.4111 10.2838" stroke="white" stroke-miterlimit="10" stroke-linecap="round" stroke-linejoin="round"/>
<path d="M32.2979 40.4834C32.874 40.5828 33.4711 40.5509 34.0376 40.3952C34.6092 40.2381 35.1529 39.993 35.7033 39.7764C36.7936 39.3476 37.8908 39.1181 39.0478 39.2959C39.1927 39.3181 39.318 39.1927 39.2958 39.0478C39.1182 37.8907 39.3476 36.7936 39.7765 35.7033C39.9929 35.1529 40.2381 34.6092 40.3952 34.0375C40.5592 33.4409 40.5859 32.8102 40.4664 32.2058" stroke="white" stroke-miterlimit="10" stroke-linecap="round" stroke-linejoin="round"/>
<path d="M10.541 18.8308C10.413 18.2151 10.4375 17.5711 10.6047 16.9625C10.7619 16.3908 11.0071 15.8472 11.2235 15.2967C11.6525 14.2065 11.8818 13.1093 11.7042 11.9522C11.682 11.8073 11.8073 11.6819 11.9521 11.7041C13.1092 11.8819 14.2064 11.6524 15.2967 11.2236C15.8471 11.007 16.3908 10.7619 16.9625 10.6047C17.6007 10.4294 18.2778 10.4111 18.9202 10.5608" stroke="white" stroke-miterlimit="10" stroke-linecap="round" stroke-linejoin="round"/>
<path d="M40.4713 18.7686C40.5851 18.1719 40.5569 17.5507 40.3952 16.9625C40.2381 16.3908 39.9929 15.8471 39.7764 15.2967C39.3476 14.2064 39.1182 13.1093 39.2958 11.9522C39.318 11.8073 39.1927 11.6819 39.0478 11.7041C37.8908 11.8819 36.7936 11.6524 35.7033 11.2236C35.1529 11.007 34.6092 10.7619 34.0375 10.6047C33.5018 10.4575 32.9386 10.4209 32.3916 10.5016" stroke="white" stroke-miterlimit="10" stroke-linecap="round" stroke-linejoin="round"/>
<path d="M18.8098 40.4632C18.2006 40.5864 17.5643 40.5606 16.9624 40.3953C16.3908 40.2381 15.8471 39.9929 15.2966 39.7764C14.2064 39.3476 13.1092 39.1182 11.9522 39.2959C11.8073 39.3181 11.682 39.1927 11.7041 39.0478C11.8818 37.8907 11.6524 36.7935 11.2235 35.7033C11.007 35.1528 10.7619 34.6092 10.6048 34.0375C10.4398 33.4373 10.4138 32.8028 10.5358 32.195" stroke="white" stroke-miterlimit="10" stroke-linecap="round" stroke-linejoin="round"/>
<path d="M15.1716 15.8712C14.7819 15.9622 14.4095 16.1236 14.0741 16.3439" stroke="white" stroke-miterlimit="10" stroke-linecap="round" stroke-linejoin="round"/>
<path d="M12.027 18.1492C11.4927 18.5516 10.9087 18.8588 10.239 19.0233C10.117 19.0532 10.0589 19.1937 10.1241 19.3011C10.6448 20.1592 10.8234 21.1035 10.8419 22.1077C10.8512 22.6148 10.8356 23.1259 10.899 23.6303C10.959 24.1086 11.118 24.5719 11.3665 24.9822" stroke="white" stroke-miterlimit="10" stroke-linecap="round" stroke-linejoin="round"/>
<path d="M39.6075 25.9755C39.8708 26.3961 40.0389 26.8748 40.101 27.3696C40.1643 27.874 40.1487 28.3851 40.158 28.8922C40.1764 29.8964 40.355 30.8407 40.8758 31.6988C40.941 31.8063 40.8829 31.9467 40.7609 31.9766C39.7861 32.216 38.9925 32.758 38.2699 33.4557C37.905 33.808 37.555 34.1808 37.1538 34.493C36.7411 34.8142 36.2582 35.0406 35.7483 35.1465" stroke="white" stroke-miterlimit="10" stroke-linecap="round" stroke-linejoin="round"/>
<path d="M15.8523 35.7429C15.9577 36.2548 16.1846 36.7396 16.5069 37.1539C16.8191 37.555 17.1919 37.9051 17.5441 38.2699C18.2418 38.9926 18.7839 39.7861 19.0233 40.7608C19.0532 40.8829 19.1937 40.9411 19.3012 40.8758C20.1592 40.3551 21.1035 40.1765 22.1077 40.158C22.6149 40.1487 23.126 40.1643 23.6304 40.101C24.1226 40.0392 24.599 39.8726 25.0182 39.6114" stroke="white" stroke-miterlimit="10" stroke-linecap="round" stroke-linejoin="round"/>
<path d="M26.0065 11.3733C26.4196 11.1209 26.887 10.9595 27.3696 10.899C27.8739 10.8356 28.385 10.8512 28.8922 10.8419C29.8964 10.8235 30.8408 10.6449 31.6988 10.1241C31.8062 10.059 31.9467 10.117 31.9767 10.239C32.216 11.2139 32.7581 12.0075 33.4558 12.7301C33.808 13.0949 34.1808 13.445 34.4929 13.8461C34.7777 14.2121 34.988 14.6331 35.1058 15.0793" stroke="white" stroke-miterlimit="10" stroke-linecap="round" stroke-linejoin="round"/>
<path d="M25.987 39.6071C26.4079 39.8702 26.8867 40.0378 27.3814 40.0995C27.8859 40.1624 28.397 40.1464 28.9041 40.1553C29.9083 40.1728 30.8527 40.3507 31.7113 40.8708C31.8188 40.9359 31.9592 40.8777 31.989 40.7556C32.2276 39.7807 32.7691 38.9866 33.466 38.2635C33.8181 37.8982 34.1906 37.5479 34.5024 37.1465C34.8045 36.7575 35.0226 36.3066 35.1351 35.8294" stroke="white" stroke-miterlimit="10" stroke-linecap="round" stroke-linejoin="round"/>
<path d="M15.8468 15.2517C15.9528 14.7445 16.1782 14.2644 16.4975 13.8535C16.8093 13.452 17.1818 13.1017 17.5338 12.7366C18.2309 12.0134 18.7722 11.2193 19.0108 10.2443C19.0407 10.1223 19.1811 10.0641 19.2886 10.1292C20.1471 10.6492 21.0916 10.827 22.0958 10.8447C22.6029 10.8536 23.114 10.8375 23.6185 10.9005C24.1496 10.9667 24.6624 11.1549 25.1048 11.4524" stroke="white" stroke-miterlimit="10" stroke-linecap="round" stroke-linejoin="round"/>
<path d="M11.47 25.8691C11.1623 26.3174 10.968 26.8399 10.9004 27.3814C10.8375 27.8858 10.8535 28.3969 10.8447 28.9041C10.827 29.9083 10.6491 30.8528 10.1291 31.7113C10.064 31.8188 10.1223 31.9592 10.2444 31.9891C11.2193 32.2276 12.0134 32.769 12.7365 33.4661C13.1017 33.8181 13.452 34.1906 13.8534 34.5024C14.2411 34.8035 14.6903 35.0211 15.1656 35.1339" stroke="white" stroke-miterlimit="10" stroke-linecap="round" stroke-linejoin="round"/>
<path d="M35.8105 15.8604C36.2947 15.9715 36.7524 16.1913 37.1465 16.4975C37.5479 16.8093 37.8983 17.1818 38.2634 17.5339C38.9866 18.2309 39.7805 18.7723 40.7556 19.0108C40.8777 19.0407 40.9359 19.1811 40.8708 19.2886C40.3507 20.1471 40.1729 21.0916 40.1552 22.0958C40.1463 22.603 40.1623 23.1141 40.0995 23.6185C40.0343 24.1409 39.8511 24.6456 39.5621 25.083" stroke="white" stroke-miterlimit="10" stroke-linecap="round" stroke-linejoin="round"/>
<path d="M30.1398 36.4784C30.6786 36.6521 31.2631 36.6576 31.8092 36.5075C32.2316 36.3914 32.6334 36.2102 33.0403 36.0503C33.8459 35.7334 34.6567 35.5638 35.5118 35.6951C35.6189 35.7115 35.7114 35.6189 35.695 35.5118C35.5638 34.6567 35.7334 33.8459 36.0502 33.0403C36.2102 32.6334 36.3914 32.2317 36.5075 31.8092C36.6574 31.2639 36.6521 30.68 36.4791 30.142" stroke="white" stroke-miterlimit="10" stroke-linecap="round" stroke-linejoin="round"/>
<path d="M14.5169 20.8451C14.3478 20.3106 14.3437 19.7318 14.4925 19.1908C14.6086 18.7683 14.7898 18.3666 14.9498 17.9597C15.2666 17.1541 15.4362 16.3433 15.3049 15.4882C15.2885 15.3812 15.3812 15.2885 15.4882 15.3049C16.3433 15.4362 17.1541 15.2666 17.9597 14.9498C18.3665 14.7898 18.7683 14.6086 19.1908 14.4925C19.7019 14.352 20.2469 14.3478 20.7563 14.4904" stroke="white" stroke-miterlimit="10" stroke-linecap="round" stroke-linejoin="round"/>
<path d="M36.4657 20.8985C36.6517 20.3493 36.6612 19.7499 36.5075 19.1908C36.3914 18.7683 36.2102 18.3666 36.0503 17.9597C35.7334 17.1541 35.5638 16.3433 35.6951 15.4882C35.7115 15.3811 35.6188 15.2885 35.5118 15.3049C34.6567 15.4362 33.8459 15.2666 33.0403 14.9497C32.6334 14.7898 32.2317 14.6086 31.8092 14.4925C31.2583 14.341 30.6681 14.348 30.1255 14.5264" stroke="white" stroke-miterlimit="10" stroke-linecap="round" stroke-linejoin="round"/>
<path d="M20.8501 36.4816C20.3142 36.6522 19.7335 36.6567 19.1908 36.5075C18.7684 36.3914 18.3666 36.2102 17.9597 36.0503C17.1541 35.7334 16.3432 35.5638 15.4882 35.6951C15.3811 35.7115 15.2886 35.6189 15.3049 35.5118C15.4362 34.6567 15.2666 33.8459 14.9498 33.0403C14.7898 32.6334 14.6086 32.2317 14.4925 31.8092C14.3414 31.2596 14.3479 30.6711 14.525 30.1296" stroke="white" stroke-miterlimit="10" stroke-linecap="round" stroke-linejoin="round"/>
<path d="M21.2108 32.5594C20.8749 33.7679 20.47 35.3262 20.9546 36.4116C21.2061 36.9746 21.6431 37.4406 22.1778 37.7448C22.5586 37.9614 22.9708 38.1175 23.3716 38.2919C24.1653 38.6375 24.8586 39.091 25.3704 39.7884C25.4345 39.8757 25.5655 39.8757 25.6296 39.7884C26.1414 39.091 26.8346 38.6375 27.6284 38.2919C28.0291 38.1175 28.4414 37.9614 28.8222 37.7448C29.3569 37.4406 29.7939 36.9746 30.0453 36.4116C30.5331 35.3193 30.1199 33.7482 29.7828 32.5365" stroke="white" stroke-miterlimit="10" stroke-linecap="round" stroke-linejoin="round"/>
<path d="M21.2473 18.5718C20.9057 17.3466 20.4522 15.7135 20.9546 14.5885C21.2061 14.0255 21.6431 13.5594 22.1778 13.2552C22.5586 13.0386 22.9709 12.8826 23.3716 12.7081C24.1654 12.3625 24.8586 11.9091 25.3704 11.2116C25.4345 11.1243 25.5655 11.1243 25.6296 11.2116C26.1414 11.9091 26.8346 12.3625 27.6284 12.7081C28.0292 12.8826 28.4414 13.0386 28.8222 13.2552C29.3569 13.5594 29.7939 14.0255 30.0453 14.5885C30.5331 15.6807 30.1199 17.2518 29.7828 18.4636" stroke="white" stroke-miterlimit="10" stroke-linecap="round" stroke-linejoin="round"/>
<path d="M32.4839 29.7682C33.7024 30.1077 35.3035 30.5402 36.4115 30.0454C36.9745 29.7939 37.4406 29.3569 37.7448 28.8223C37.9614 28.4414 38.1174 28.0291 38.2919 27.6284C38.6375 26.8346 39.0909 26.1414 39.7884 25.6295C39.8757 25.5655 39.8757 25.4344 39.7884 25.3704C39.0909 24.8586 38.6375 24.1654 38.2919 23.3716C38.1174 22.9709 37.9614 22.5587 37.7448 22.1778C37.4406 21.6431 36.9745 21.2061 36.4115 20.9547C35.3219 20.468 33.7557 20.8781 32.5451 21.2148" stroke="white" stroke-miterlimit="10" stroke-linecap="round" stroke-linejoin="round"/>
<path d="M18.4549 29.7852C17.2443 30.1219 15.6781 30.532 14.5885 30.0454C14.0255 29.7939 13.5594 29.3569 13.2552 28.8222C13.0386 28.4414 12.8826 28.0291 12.7081 27.6284C12.3625 26.8346 11.9091 26.1414 11.2116 25.6296C11.1242 25.5655 11.1242 25.4345 11.2116 25.3704C11.9091 24.8586 12.3625 24.1654 12.7081 23.3716C12.8826 22.9708 13.0386 22.5586 13.2552 22.1778C13.5594 21.6431 14.0255 21.2061 14.5885 20.9547C15.672 20.4707 17.227 20.8736 18.4347 21.2092" stroke="white" stroke-miterlimit="10" stroke-linecap="round" stroke-linejoin="round"/>
<path d="M33.3018 27.7863C32.3141 31.1621 29.1949 33.6278 25.4999 33.6278C21.0109 33.6278 17.3719 29.9887 17.3719 25.4998C17.3719 21.0108 21.0109 17.3719 25.4999 17.3719C29.8491 17.3719 33.4004 20.7879 33.6173 25.0832" stroke="white" stroke-miterlimit="10" stroke-linecap="round" stroke-linejoin="round"/>
</g>
</g>
<path d="M37.5 37.5L29.5 29.5M32.1667 22.8333C32.1667 27.988 27.988 32.1667 22.8333 32.1667C17.6787 32.1667 13.5 27.988 13.5 22.8333C13.5 17.6787 17.6787 13.5 22.8333 13.5C27.988 13.5 32.1667 17.6787 32.1667 22.8333Z" stroke="white" stroke-width="2" stroke-linecap="round" stroke-linejoin="round"/>
</svg>
