<svg width="111" height="111" viewBox="0 0 111 111" fill="none" xmlns="http://www.w3.org/2000/svg">
<g filter="url(#filter0_d_515_962)">
<circle cx="55.5" cy="55.5" r="23" fill="#870EF8" fill-opacity="0.25" shape-rendering="crispEdges"/>
<circle cx="55.5" cy="55.5" r="24.25" stroke="#870EF8" stroke-width="2.5" shape-rendering="crispEdges"/>
</g>
<g opacity="0.1">
<mask id="mask0_515_962" style="mask-type:luminance" maskUnits="userSpaceOnUse" x="35" y="35" width="41" height="41">
<path d="M75 75V36H36V75H75Z" fill="white" stroke="white"/>
</mask>
<g mask="url(#mask0_515_962)">
<path d="M70.7676 61.3785C71.3049 61.0324 71.7522 60.5533 72.0694 59.9956C72.3626 59.4802 72.5737 58.9225 72.8098 58.3801C73.2775 57.306 73.891 56.3679 74.8349 55.6753C74.953 55.5887 74.953 55.4113 74.8349 55.3247C73.891 54.6321 73.2775 53.694 72.8098 52.6199C72.5737 52.0775 72.3626 51.5198 72.0694 51.0045C71.7695 50.4772 71.3533 50.0202 70.8547 49.6793" stroke="white" stroke-miterlimit="10" stroke-linecap="round" stroke-linejoin="round"/>
<path d="M40.1212 61.3041C39.6333 60.9651 39.2256 60.5143 38.9306 59.9956C38.6375 59.4802 38.4264 58.9225 38.1902 58.3801C37.7225 57.306 37.1089 56.3679 36.1651 55.6753C36.047 55.5887 36.047 55.4113 36.1651 55.3247C37.1089 54.6321 37.7225 53.694 38.1902 52.6199C38.4264 52.0775 38.6375 51.5198 38.9306 51.0045C39.2444 50.4527 39.6857 49.9777 40.2154 49.6325" stroke="white" stroke-miterlimit="10" stroke-linecap="round" stroke-linejoin="round"/>
<path d="M49.6632 70.831C50.0057 71.3401 50.4688 71.7648 51.0045 72.0695C51.5198 72.3625 52.0775 72.5737 52.6199 72.8098C53.694 73.2774 54.6321 73.891 55.3247 74.8349C55.4113 74.9531 55.5887 74.9531 55.6753 74.8349C56.3679 73.891 57.306 73.2774 58.3801 72.8098C58.9225 72.5737 59.4802 72.3625 59.9956 72.0695C60.5453 71.7567 61.0188 71.3175 61.3638 70.7903" stroke="white" stroke-miterlimit="10" stroke-linecap="round" stroke-linejoin="round"/>
<path d="M49.5837 40.2922C49.9324 39.7283 50.4261 39.2594 51.0045 38.9305C51.5197 38.6374 52.0775 38.4263 52.6199 38.1902C53.6939 37.7225 54.6321 37.109 55.3246 36.1651C55.4114 36.0469 55.5886 36.0469 55.6754 36.1651C56.3679 37.109 57.3061 37.7225 58.3801 38.1902C58.9225 38.4263 59.4803 38.6374 59.9955 38.9305C60.5709 39.2578 61.0627 39.7236 61.4111 40.2838" stroke="white" stroke-miterlimit="10" stroke-linecap="round" stroke-linejoin="round"/>
<path d="M62.2979 70.4834C62.874 70.5828 63.4712 70.5509 64.0376 70.3952C64.6092 70.2381 65.1529 69.993 65.7033 69.7764C66.7936 69.3476 67.8908 69.1181 69.0478 69.2959C69.1927 69.3181 69.318 69.1927 69.2958 69.0478C69.1182 67.8907 69.3476 66.7936 69.7765 65.7033C69.993 65.1529 70.2381 64.6092 70.3952 64.0375C70.5592 63.4409 70.5859 62.8102 70.4664 62.2058" stroke="white" stroke-miterlimit="10" stroke-linecap="round" stroke-linejoin="round"/>
<path d="M40.541 48.8307C40.413 48.2151 40.4375 47.5711 40.6047 46.9625C40.7619 46.3908 41.0071 45.8472 41.2235 45.2967C41.6525 44.2065 41.8818 43.1093 41.7042 41.9522C41.682 41.8073 41.8073 41.6819 41.9521 41.7041C43.1093 41.8818 44.2064 41.6524 45.2967 41.2236C45.8471 41.007 46.3908 40.7619 46.9625 40.6047C47.6007 40.4293 48.2778 40.4111 48.9202 40.5607" stroke="white" stroke-miterlimit="10" stroke-linecap="round" stroke-linejoin="round"/>
<path d="M70.4713 48.7686C70.5851 48.1719 70.5569 47.5507 70.3952 46.9625C70.2381 46.3908 69.9929 45.8471 69.7764 45.2967C69.3476 44.2064 69.1182 43.1093 69.2958 41.9522C69.318 41.8073 69.1927 41.6819 69.0478 41.7041C67.8908 41.8819 66.7936 41.6524 65.7033 41.2236C65.1529 41.007 64.6092 40.7619 64.0375 40.6047C63.5018 40.4575 62.9386 40.4209 62.3916 40.5016" stroke="white" stroke-miterlimit="10" stroke-linecap="round" stroke-linejoin="round"/>
<path d="M48.8098 70.4632C48.2006 70.5864 47.5643 70.5606 46.9624 70.3953C46.3908 70.2381 45.8471 69.9929 45.2967 69.7764C44.2064 69.3476 43.1092 69.1182 41.9522 69.2959C41.8073 69.3181 41.682 69.1927 41.7042 69.0478C41.8818 67.8907 41.6524 66.7935 41.2235 65.7033C41.007 65.1528 40.7619 64.6092 40.6048 64.0375C40.4398 63.4373 40.4138 62.8028 40.5358 62.195" stroke="white" stroke-miterlimit="10" stroke-linecap="round" stroke-linejoin="round"/>
<path d="M45.1716 45.8712C44.7819 45.9622 44.4095 46.1236 44.0741 46.3439" stroke="white" stroke-miterlimit="10" stroke-linecap="round" stroke-linejoin="round"/>
<path d="M42.027 48.1492C41.4927 48.5516 40.9087 48.8588 40.239 49.0233C40.117 49.0532 40.0589 49.1937 40.1241 49.3011C40.6448 50.1592 40.8234 51.1035 40.8419 52.1078C40.8512 52.6149 40.8356 53.126 40.899 53.6303C40.959 54.1086 41.118 54.5719 41.3665 54.9822" stroke="white" stroke-miterlimit="10" stroke-linecap="round" stroke-linejoin="round"/>
<path d="M69.6075 55.9755C69.8708 56.3961 70.0389 56.8748 70.101 57.3696C70.1644 57.874 70.1487 58.3851 70.158 58.8922C70.1765 59.8964 70.3551 60.8407 70.8758 61.6988C70.941 61.8063 70.8829 61.9467 70.7609 61.9766C69.7861 62.216 68.9925 62.758 68.2699 63.4557C67.905 63.808 67.555 64.1808 67.1538 64.493C66.7411 64.8142 66.2583 65.0406 65.7483 65.1465" stroke="white" stroke-miterlimit="10" stroke-linecap="round" stroke-linejoin="round"/>
<path d="M45.8523 65.7429C45.9577 66.2548 46.1846 66.7396 46.5069 67.1539C46.8191 67.555 47.1919 67.9051 47.5441 68.2699C48.2418 68.9926 48.7839 69.7861 49.0233 70.7608C49.0532 70.8829 49.1937 70.9411 49.3012 70.8758C50.1592 70.3551 51.1035 70.1765 52.1077 70.158C52.6149 70.1487 53.126 70.1643 53.6304 70.101C54.1227 70.0392 54.5991 69.8726 55.0182 69.6114" stroke="white" stroke-miterlimit="10" stroke-linecap="round" stroke-linejoin="round"/>
<path d="M56.0065 41.3733C56.4196 41.1209 56.887 40.9595 57.3696 40.8989C57.8739 40.8356 58.385 40.8512 58.8922 40.8419C59.8964 40.8235 60.8408 40.6449 61.6988 40.1241C61.8062 40.0589 61.9467 40.117 61.9767 40.239C62.216 41.2139 62.7581 42.0075 63.4558 42.73C63.808 43.0949 64.1808 43.445 64.4929 43.8461C64.7777 44.2121 64.988 44.6331 65.1058 45.0793" stroke="white" stroke-miterlimit="10" stroke-linecap="round" stroke-linejoin="round"/>
<path d="M55.9871 69.6071C56.4079 69.8702 56.8867 70.0378 57.3814 70.0995C57.8859 70.1624 58.397 70.1464 58.9041 70.1553C59.9083 70.1728 60.8528 70.3507 61.7114 70.8708C61.8188 70.9359 61.9592 70.8777 61.989 70.7556C62.2276 69.7806 62.7691 68.9866 63.466 68.2635C63.8181 67.8982 64.1906 67.5479 64.5024 67.1465C64.8046 66.7574 65.0226 66.3066 65.1351 65.8294" stroke="white" stroke-miterlimit="10" stroke-linecap="round" stroke-linejoin="round"/>
<path d="M45.8468 45.2516C45.9529 44.7445 46.1782 44.2644 46.4975 43.8534C46.8093 43.452 47.1818 43.1016 47.5338 42.7366C48.2309 42.0134 48.7722 41.2193 49.0108 40.2443C49.0407 40.1223 49.1811 40.0641 49.2886 40.1291C50.1471 40.6492 51.0916 40.827 52.0958 40.8447C52.6029 40.8536 53.114 40.8375 53.6185 40.9005C54.1496 40.9666 54.6624 41.1549 55.1048 41.4524" stroke="white" stroke-miterlimit="10" stroke-linecap="round" stroke-linejoin="round"/>
<path d="M41.47 55.8691C41.1623 56.3174 40.968 56.8399 40.9004 57.3814C40.8375 57.8858 40.8535 58.3969 40.8447 58.9041C40.827 59.9083 40.6491 60.8528 40.1291 61.7113C40.064 61.8188 40.1223 61.9592 40.2444 61.9891C41.2193 62.2276 42.0134 62.769 42.7365 63.4661C43.1017 63.8181 43.452 64.1906 43.8534 64.5024C44.2411 64.8035 44.6903 65.0211 45.1656 65.1339" stroke="white" stroke-miterlimit="10" stroke-linecap="round" stroke-linejoin="round"/>
<path d="M65.8105 45.8604C66.2947 45.9715 66.7524 46.1913 67.1465 46.4975C67.5479 46.8093 67.8983 47.1818 68.2634 47.5339C68.9866 48.2309 69.7805 48.7723 70.7556 49.0108C70.8777 49.0407 70.9359 49.1811 70.8708 49.2886C70.3507 50.1471 70.1729 51.0916 70.1552 52.0958C70.1463 52.603 70.1623 53.1141 70.0995 53.6185C70.0343 54.1409 69.8511 54.6456 69.5621 55.083" stroke="white" stroke-miterlimit="10" stroke-linecap="round" stroke-linejoin="round"/>
<path d="M60.1398 66.4784C60.6786 66.6521 61.2631 66.6576 61.8092 66.5075C62.2316 66.3914 62.6334 66.2102 63.0403 66.0503C63.8459 65.7334 64.6567 65.5638 65.5118 65.6951C65.6189 65.7115 65.7114 65.6188 65.695 65.5118C65.5638 64.6567 65.7334 63.8459 66.0502 63.0403C66.2102 62.6334 66.3914 62.2317 66.5075 61.8092C66.6574 61.2638 66.6521 60.68 66.4791 60.142" stroke="white" stroke-miterlimit="10" stroke-linecap="round" stroke-linejoin="round"/>
<path d="M44.5169 50.8452C44.3478 50.3106 44.3438 49.7318 44.4925 49.1908C44.6086 48.7684 44.7898 48.3666 44.9498 47.9597C45.2666 47.1541 45.4362 46.3433 45.3049 45.4882C45.2885 45.3812 45.3812 45.2885 45.4882 45.3049C46.3433 45.4362 47.1541 45.2666 47.9597 44.9498C48.3666 44.7898 48.7684 44.6086 49.1908 44.4925C49.702 44.352 50.247 44.3478 50.7563 44.4904" stroke="white" stroke-miterlimit="10" stroke-linecap="round" stroke-linejoin="round"/>
<path d="M66.4657 50.8985C66.6517 50.3493 66.6612 49.7499 66.5075 49.1908C66.3914 48.7683 66.2102 48.3666 66.0503 47.9597C65.7334 47.1541 65.5638 46.3432 65.6951 45.4882C65.7115 45.3811 65.6189 45.2885 65.5118 45.3049C64.6567 45.4362 63.8459 45.2666 63.0403 44.9497C62.6334 44.7898 62.2317 44.6086 61.8092 44.4925C61.2583 44.341 60.6682 44.348 60.1255 44.5264" stroke="white" stroke-miterlimit="10" stroke-linecap="round" stroke-linejoin="round"/>
<path d="M50.8501 66.4816C50.3142 66.6522 49.7335 66.6567 49.1908 66.5075C48.7684 66.3914 48.3666 66.2102 47.9597 66.0503C47.1541 65.7334 46.3432 65.5638 45.4882 65.6951C45.3811 65.7115 45.2886 65.6188 45.3049 65.5118C45.4362 64.6567 45.2666 63.8459 44.9498 63.0403C44.7898 62.6334 44.6086 62.2317 44.4925 61.8092C44.3414 61.2596 44.3479 60.6711 44.525 60.1295" stroke="white" stroke-miterlimit="10" stroke-linecap="round" stroke-linejoin="round"/>
<path d="M51.2108 62.5594C50.8749 63.7679 50.47 65.3262 50.9547 66.4116C51.2061 66.9746 51.6431 67.4406 52.1778 67.7448C52.5586 67.9614 52.9708 68.1175 53.3716 68.2919C54.1654 68.6375 54.8586 69.091 55.3704 69.7884C55.4345 69.8757 55.5655 69.8757 55.6297 69.7884C56.1414 69.091 56.8346 68.6375 57.6284 68.2919C58.0291 68.1175 58.4414 67.9614 58.8222 67.7448C59.3569 67.4406 59.7939 66.9746 60.0454 66.4116C60.5331 65.3193 60.1199 63.7482 59.7829 62.5365" stroke="white" stroke-miterlimit="10" stroke-linecap="round" stroke-linejoin="round"/>
<path d="M51.2473 48.5718C50.9057 47.3466 50.4522 45.7135 50.9546 44.5885C51.2061 44.0255 51.6431 43.5594 52.1778 43.2552C52.5586 43.0386 52.9709 42.8826 53.3716 42.7081C54.1654 42.3625 54.8586 41.9091 55.3704 41.2116C55.4345 41.1243 55.5655 41.1243 55.6296 41.2116C56.1414 41.9091 56.8346 42.3625 57.6284 42.7081C58.0292 42.8826 58.4414 43.0386 58.8222 43.2552C59.3569 43.5594 59.7939 44.0255 60.0453 44.5885C60.5331 45.6807 60.1199 47.2518 59.7828 48.4636" stroke="white" stroke-miterlimit="10" stroke-linecap="round" stroke-linejoin="round"/>
<path d="M62.4839 59.7682C63.7024 60.1077 65.3035 60.5402 66.4115 60.0454C66.9745 59.7939 67.4406 59.3569 67.7448 58.8223C67.9614 58.4414 68.1174 58.0291 68.2919 57.6284C68.6375 56.8346 69.0909 56.1414 69.7884 55.6295C69.8757 55.5655 69.8757 55.4344 69.7884 55.3704C69.0909 54.8586 68.6375 54.1654 68.2919 53.3716C68.1174 52.9709 67.9614 52.5587 67.7448 52.1778C67.4406 51.6431 66.9745 51.2061 66.4115 50.9547C65.3219 50.468 63.7557 50.8781 62.5451 51.2148" stroke="white" stroke-miterlimit="10" stroke-linecap="round" stroke-linejoin="round"/>
<path d="M48.4549 59.7852C47.2443 60.1219 45.6781 60.532 44.5885 60.0454C44.0255 59.7939 43.5594 59.3569 43.2552 58.8223C43.0386 58.4414 42.8826 58.0291 42.7081 57.6284C42.3625 56.8346 41.9091 56.1414 41.2116 55.6296C41.1242 55.5655 41.1242 55.4345 41.2116 55.3704C41.9091 54.8586 42.3625 54.1654 42.7081 53.3716C42.8826 52.9708 43.0386 52.5587 43.2552 52.1778C43.5594 51.6431 44.0255 51.2061 44.5885 50.9547C45.6721 50.4707 47.227 50.8737 48.4347 51.2092" stroke="white" stroke-miterlimit="10" stroke-linecap="round" stroke-linejoin="round"/>
<path d="M63.3018 57.7863C62.3141 61.1621 59.1949 63.6278 55.4999 63.6278C51.0109 63.6278 47.3719 59.9887 47.3719 55.4998C47.3719 51.0109 51.0109 47.3719 55.4999 47.3719C59.8491 47.3719 63.4004 50.7879 63.6173 55.0832" stroke="white" stroke-miterlimit="10" stroke-linecap="round" stroke-linejoin="round"/>
</g>
</g>
<path d="M67.5 67.5L59.5 59.5M62.1667 52.8333C62.1667 57.988 57.988 62.1667 52.8333 62.1667C47.6787 62.1667 43.5 57.988 43.5 52.8333C43.5 47.6787 47.6787 43.5 52.8333 43.5C57.988 43.5 62.1667 47.6787 62.1667 52.8333Z" stroke="white" stroke-width="2" stroke-linecap="round" stroke-linejoin="round"/>
<defs>
<filter id="filter0_d_515_962" x="0" y="0" width="111" height="111" filterUnits="userSpaceOnUse" color-interpolation-filters="sRGB">
<feFlood flood-opacity="0" result="BackgroundImageFix"/>
<feColorMatrix in="SourceAlpha" type="matrix" values="0 0 0 0 0 0 0 0 0 0 0 0 0 0 0 0 0 0 127 0" result="hardAlpha"/>
<feOffset/>
<feGaussianBlur stdDeviation="15"/>
<feComposite in2="hardAlpha" operator="out"/>
<feColorMatrix type="matrix" values="0 0 0 0 0.529412 0 0 0 0 0.054902 0 0 0 0 0.972549 0 0 0 0.7 0"/>
<feBlend mode="normal" in2="BackgroundImageFix" result="effect1_dropShadow_515_962"/>
<feBlend mode="normal" in="SourceGraphic" in2="effect1_dropShadow_515_962" result="shape"/>
</filter>
</defs>
</svg>
