<svg width="35" height="35" viewBox="0 0 35 35" fill="none" xmlns="http://www.w3.org/2000/svg">
<path d="M17.5001 28.4375C17.2203 28.4375 16.9403 28.3306 16.7268 28.117L5.78929 17.1795C5.3619 16.7522 5.3619 16.0601 5.78929 15.633C6.21667 15.2059 6.90874 15.2056 7.33585 15.633L17.5001 25.7972L27.6643 15.633C28.0917 15.2056 28.7837 15.2056 29.2109 15.633C29.638 16.0604 29.6382 16.7524 29.2109 17.1795L18.2733 28.117C18.0598 28.3306 17.7798 28.4375 17.5001 28.4375ZM18.2733 19.367L29.2109 8.42954C29.6382 8.00216 29.6382 7.31009 29.2109 6.88298C28.7835 6.45587 28.0914 6.45559 27.6643 6.88298L17.5001 17.0472L7.33585 6.88298C6.90847 6.45559 6.2164 6.45559 5.78929 6.88298C5.36218 7.31036 5.3619 8.00243 5.78929 8.42954L16.7268 19.367C16.9403 19.5806 17.2203 19.6875 17.5001 19.6875C17.7798 19.6875 18.0598 19.5806 18.2733 19.367Z" fill="white"/>
</svg>
