<svg width="30" height="30" viewBox="0 0 30 30" fill="none" xmlns="http://www.w3.org/2000/svg">
<rect x="1" y="1" width="28" height="28" rx="11.8333" fill="#17DCF5" stroke="white" stroke-width="2"/>
<path d="M10.2156 20.7788C9.84003 20.7788 9.51877 20.6454 9.2518 20.3786C8.98497 20.1116 8.85156 19.7903 8.85156 19.4148V17.5745C8.85156 17.2073 8.92182 16.8572 9.06233 16.5239C9.20284 16.1907 9.39949 15.8984 9.65226 15.6471L16.7421 8.5571C17.0206 8.28702 17.3247 8.08815 17.6544 7.96051C17.9839 7.83287 18.3157 7.76904 18.6497 7.76904C19.0024 7.76904 19.3461 7.83449 19.6809 7.96539C20.0156 8.09629 20.3209 8.30092 20.5967 8.57928L21.0733 9.05296C21.3368 9.32304 21.5324 9.62492 21.6601 9.9586C21.7877 10.2923 21.8516 10.6308 21.8516 10.9743C21.8516 11.3179 21.7884 11.6581 21.6621 11.9948C21.5358 12.3316 21.3321 12.6337 21.0511 12.9009L13.9832 19.9781C13.7279 20.2418 13.4343 20.4412 13.1024 20.5762C12.7705 20.7113 12.4217 20.7788 12.0559 20.7788H10.2156ZM18.2672 12.2034L19.4874 10.9705L18.6694 10.1334L17.427 11.3632L18.2672 12.2034Z" fill="#FDF5F3"/>
</svg>
