<svg width="50" height="50" viewBox="0 0 50 50" fill="none" xmlns="http://www.w3.org/2000/svg">
<path d="M41.4062 8.59375C41.199 8.59375 41.0003 8.51144 40.8538 8.36493C40.7073 8.21841 40.625 8.0197 40.625 7.8125V0.78125C40.625 0.57405 40.7073 0.375336 40.8538 0.228823C41.0003 0.08231 41.199 0 41.4062 0C41.6135 0 41.8122 0.08231 41.9587 0.228823C42.1052 0.375336 42.1875 0.57405 42.1875 0.78125V7.8125C42.1875 8.0197 42.1052 8.21841 41.9587 8.36493C41.8122 8.51144 41.6135 8.59375 41.4062 8.59375Z" fill="#FDC12A"/>
<path d="M41.4062 50H12.5C12.2928 50 12.0941 49.9177 11.9476 49.7712C11.8011 49.6247 11.7188 49.426 11.7188 49.2188V39.8438H13.2812V48.4375H40.625V42.1875H42.1875V49.2188C42.1875 49.426 42.1052 49.6247 41.9587 49.7712C41.8122 49.9177 41.6135 50 41.4062 50Z" fill="#0C6693"/>
<path d="M32.0312 25.7812H29.6875C29.4803 25.7812 29.2816 25.6989 29.1351 25.5524C28.9886 25.4059 28.9062 25.2072 28.9062 25C28.9062 24.7928 28.9886 24.5941 29.1351 24.4476C29.2816 24.3011 29.4803 24.2188 29.6875 24.2188H32.0312C32.2385 24.2188 32.4372 24.3011 32.5837 24.4476C32.7302 24.5941 32.8125 24.7928 32.8125 25C32.8125 25.2072 32.7302 25.4059 32.5837 25.5524C32.4372 25.6989 32.2385 25.7812 32.0312 25.7812Z" fill="#0C6693"/>
<path d="M5.46875 46.0938H3.125C2.9178 46.0938 2.71909 46.0114 2.57257 45.8649C2.42606 45.7184 2.34375 45.5197 2.34375 45.3125C2.34375 45.1053 2.42606 44.9066 2.57257 44.7601C2.71909 44.6136 2.9178 44.5312 3.125 44.5312H5.46875C5.67595 44.5312 5.87466 44.6136 6.02118 44.7601C6.16769 44.9066 6.25 45.1053 6.25 45.3125C6.25 45.5197 6.16769 45.7184 6.02118 45.8649C5.87466 46.0114 5.67595 46.0938 5.46875 46.0938Z" fill="#0C6693"/>
<path d="M22.6901 42.3195L23.7949 41.2147L27.1095 44.5292L26.0046 45.6341L22.6901 42.3195Z" fill="#FDC12A"/>
<path d="M22.6901 44.5289L26.0046 41.2143L27.1095 42.3192L23.7949 45.6337L22.6901 44.5289Z" fill="#FDC12A"/>
<path d="M37.5 30.4688C37.2928 30.4688 37.0941 30.3864 36.9476 30.2399C36.8011 30.0934 36.7188 29.8947 36.7188 29.6875V23.4375C36.7188 23.2303 36.8011 23.0316 36.9476 22.8851C37.0941 22.7386 37.2928 22.6562 37.5 22.6562C37.7072 22.6562 37.9059 22.7386 38.0524 22.8851C38.1989 23.0316 38.2812 23.2303 38.2812 23.4375V29.6875C38.2812 29.8947 38.1989 30.0934 38.0524 30.2399C37.9059 30.3864 37.7072 30.4688 37.5 30.4688Z" fill="#FDC12A"/>
<path d="M45.3125 30.4688C45.1053 30.4688 44.9066 30.3864 44.7601 30.2399C44.6136 30.0934 44.5312 29.8947 44.5312 29.6875V23.4375C44.5312 23.2303 44.6136 23.0316 44.7601 22.8851C44.9066 22.7386 45.1053 22.6562 45.3125 22.6562C45.5197 22.6562 45.7184 22.7386 45.8649 22.8851C46.0114 23.0316 46.0938 23.2303 46.0938 23.4375V29.6875C46.0938 29.8947 46.0114 30.0934 45.8649 30.2399C45.7184 30.3864 45.5197 30.4688 45.3125 30.4688Z" fill="#FDC12A"/>
<path d="M35.9375 2.34375H37.5V7.8125H35.9375V2.34375Z" fill="#FDC12A"/>
<path d="M46.0938 2.34375H47.6562V7.8125H46.0938V2.34375Z" fill="#FDC12A"/>
<path d="M8.59375 36.7188H15.625V39.8438H8.59375V36.7188Z" fill="#FDC12A"/>
<path d="M17.1875 12.5H14.0625H10.9375H7.8125V25H17.1875V12.5Z" fill="#0286E7"/>
<path d="M10.9375 9.375H14.0625V12.5H10.9375V9.375Z" fill="#2AAFF5"/>
<path d="M21.7422 3.90625H0.78125V6.50781H21.7422V32.0312H24.2188V6.50781V3.90625H21.7422Z" fill="#FDC12A"/>
<path d="M21.7422 6.50781H0.78125V32.0313H21.7422V6.50781Z" fill="#FFAF00"/>
<path d="M24.2188 3.90625V6.50781V32.0312H24.2344L24.3047 3.90625H24.2188Z" fill="#FFAF00"/>
<path d="M24.3203 0.78125H0.78125V3.90625H21.7422H24.2188H24.3047L24.3203 0.78125Z" fill="#DD9505"/>
<path d="M21.7422 32.0312H0.78125V36.7188H8.59375H15.625H24.2188L24.2344 32.0312H24.2188H21.7422Z" fill="#DD9505"/>
<path d="M13.2812 35.1562H11.7188C11.5115 35.1562 11.3128 35.0739 11.1663 34.9274C11.0198 34.7809 10.9375 34.5822 10.9375 34.375C10.9375 34.1678 11.0198 33.9691 11.1663 33.8226C11.3128 33.6761 11.5115 33.5938 11.7188 33.5938H13.2812C13.4885 33.5938 13.6872 33.6761 13.8337 33.8226C13.9802 33.9691 14.0625 34.1678 14.0625 34.375C14.0625 34.5822 13.9802 34.7809 13.8337 34.9274C13.6872 35.0739 13.4885 35.1562 13.2812 35.1562Z" fill="#0C6693"/>
<path d="M14.0625 9.375H10.9375V12.5H7.8125V25H17.1875V12.5H14.0625V9.375Z" fill="#0286E7"/>
<path d="M10.9375 23.4375C10.7823 23.4384 10.6304 23.3931 10.5011 23.3073C10.3717 23.2215 10.2709 23.0992 10.2114 22.9558C10.1519 22.8125 10.1364 22.6547 10.1669 22.5026C10.1975 22.3504 10.2726 22.2108 10.3828 22.1016L12.7265 19.7578L10.5703 18.6797C10.4598 18.6243 10.364 18.5434 10.2908 18.4438C10.2176 18.3442 10.1691 18.2286 10.1493 18.1066C10.1294 17.9846 10.1389 17.8596 10.1767 17.7419C10.2146 17.6242 10.2799 17.5172 10.3672 17.4297L13.4922 14.3047C13.6416 14.1767 13.8339 14.1098 14.0305 14.1174C14.2271 14.125 14.4136 14.2065 14.5528 14.3456C14.6919 14.4848 14.7734 14.6713 14.781 14.8679C14.7886 15.0645 14.7217 15.2568 14.5937 15.4062L12.25 17.75L14.4062 18.8281C14.5167 18.8835 14.6125 18.9644 14.6857 19.064C14.7589 19.1636 14.8074 19.2792 14.8272 19.4012C14.8471 19.5232 14.8376 19.6482 14.7998 19.7659C14.7619 19.8836 14.6966 19.9906 14.6093 20.0781L11.4843 23.2031C11.3401 23.3503 11.1435 23.4346 10.9375 23.4375Z" fill="#FDC12A"/>
<path d="M34.375 7.8125H48.4375V20.3125H34.375V7.8125Z" fill="#0286E7"/>
<path d="M37.5 17.5859C37.2928 17.5859 37.0941 17.5036 36.9476 17.3571C36.8011 17.2106 36.7188 17.0119 36.7188 16.8047V10.9375C36.7188 10.7303 36.8011 10.5316 36.9476 10.3851C37.0941 10.2386 37.2928 10.1563 37.5 10.1562C37.7072 10.1562 37.9059 10.2386 38.0524 10.3851C38.1989 10.5316 38.2812 10.7303 38.2812 10.9375V16.8047C38.2812 17.0119 38.1989 17.2106 38.0524 17.3571C37.9059 17.5036 37.7072 17.5859 37.5 17.5859Z" fill="#2AAFF5"/>
<path d="M34.375 39.8438C34.375 40.6726 34.7042 41.4674 35.2903 42.0535C35.8763 42.6395 36.6712 42.9688 37.5 42.9688H45.3125C46.1413 42.9688 46.9362 42.6395 47.5222 42.0535C48.1083 41.4674 48.4375 40.6726 48.4375 39.8438V29.6875H34.375V39.8438Z" fill="#0286E7"/>
<path d="M37.5 40.0391C37.2928 40.0391 37.0941 39.9568 36.9476 39.8102C36.8011 39.6637 36.7188 39.465 36.7188 39.2578V33.3984C36.7188 33.1912 36.8011 32.9925 36.9476 32.846C37.0941 32.6995 37.2928 32.6172 37.5 32.6172C37.7072 32.6172 37.9059 32.6995 38.0524 32.846C38.1989 32.9925 38.2812 33.1912 38.2812 33.3984V39.2656C38.2792 39.4715 38.196 39.6682 38.0497 39.813C37.9034 39.9578 37.7059 40.0391 37.5 40.0391Z" fill="#2AAFF5"/>
<path d="M42.9688 32.8125C42.9688 33.0197 43.0511 33.2184 43.1976 33.3649C43.3441 33.5114 43.5428 33.5938 43.75 33.5938H48.4375V32.0312H43.75C43.5428 32.0312 43.3441 32.1136 43.1976 32.2601C43.0511 32.4066 42.9688 32.6053 42.9688 32.8125Z" fill="#2AAFF5"/>
<path d="M42.9688 35.9375C42.9688 36.1447 43.0511 36.3434 43.1976 36.4899C43.3441 36.6364 43.5428 36.7188 43.75 36.7188H48.4375V35.1562H43.75C43.5428 35.1562 43.3441 35.2386 43.1976 35.3851C43.0511 35.5316 42.9688 35.7303 42.9688 35.9375Z" fill="#2AAFF5"/>
<path d="M42.9688 39.0625C42.9688 39.2697 43.0511 39.4684 43.1976 39.6149C43.3441 39.7614 43.5428 39.8438 43.75 39.8438H48.4375V38.2812H43.75C43.5428 38.2812 43.3441 38.3636 43.1976 38.5101C43.0511 38.6566 42.9688 38.8553 42.9688 39.0625Z" fill="#2AAFF5"/>
<path d="M42.9688 10.9375C42.9688 11.1447 43.0511 11.3434 43.1976 11.4899C43.3441 11.6364 43.5428 11.7188 43.75 11.7188H48.4375V10.1562H43.75C43.5428 10.1562 43.3441 10.2386 43.1976 10.3851C43.0511 10.5316 42.9688 10.7303 42.9688 10.9375Z" fill="#2AAFF5"/>
<path d="M42.9688 14.0625C42.9688 14.2697 43.0511 14.4684 43.1976 14.6149C43.3441 14.7614 43.5428 14.8438 43.75 14.8438H48.4375V13.2812H43.75C43.5428 13.2812 43.3441 13.3636 43.1976 13.5101C43.0511 13.6566 42.9688 13.8553 42.9688 14.0625Z" fill="#2AAFF5"/>
<path d="M42.9688 17.1875C42.9688 17.3947 43.0511 17.5934 43.1976 17.7399C43.3441 17.8864 43.5428 17.9688 43.75 17.9688H48.4375V16.4062H43.75C43.5428 16.4062 43.3441 16.4886 43.1976 16.6351C43.0511 16.7816 42.9688 16.9803 42.9688 17.1875Z" fill="#2AAFF5"/>
</svg>
