<svg width="14" height="14" viewBox="0 0 14 14" fill="none" xmlns="http://www.w3.org/2000/svg">
<g clip-path="url(#clip0_876_5759)">
<path d="M11.9537 4.6489L6.38984 0.569065C5.95527 0.250848 5.44107 0.0591802 4.90424 0.015308C4.36741 -0.0285642 3.82891 0.0770725 3.34845 0.320509C2.86798 0.563945 2.4643 0.935672 2.18216 1.39449C1.90002 1.8533 1.75044 2.38128 1.75 2.9199V11.0836C1.74917 11.6228 1.89796 12.1516 2.17983 12.6112C2.4617 13.0708 2.86559 13.4432 3.34652 13.6868C3.82746 13.9305 4.36659 14.0359 4.9039 13.9914C5.4412 13.9468 5.9556 13.754 6.38984 13.4345L11.9537 9.35465C12.3229 9.08372 12.6231 8.72967 12.83 8.32116C13.0369 7.91265 13.1447 7.46116 13.1447 7.00323C13.1447 6.54531 13.0369 6.09381 12.83 5.6853C12.6231 5.27679 12.3229 4.92274 11.9537 4.65182V4.6489Z" fill="white"/>
</g>
<defs>
<clipPath id="clip0_876_5759">
<rect width="14" height="14" fill="white"/>
</clipPath>
</defs>
</svg>
