<svg width="24" height="24" viewBox="0 0 24 24" fill="none" xmlns="http://www.w3.org/2000/svg">
<g clip-path="url(#clip0_450_5696)">
<rect x="5" y="3" width="14" height="18" fill="white"/>
<path d="M16.9688 0H7.03125C3.14813 0 0 3.14813 0 7.03125V16.9688C0 20.8519 3.14813 24 7.03125 24H16.9688C20.8519 24 24 20.8519 24 16.9688V7.03125C24 3.14813 20.8519 0 16.9688 0ZM15.9098 6.50578C15.6548 7.12031 15.4383 7.47188 15.2583 7.56188C14.7488 7.24734 14.2247 7.09031 13.6852 7.09031C13.1011 7.09031 12.8086 7.48031 12.8086 8.25891V8.73047H14.6737C14.9433 8.73047 15.0783 9.21 15.0783 10.1686C15.0783 11.2172 14.9058 11.7417 14.5617 11.7417H13.1236V19.6959C13.1236 19.8759 12.4608 19.9655 11.1352 19.9655C9.80953 19.9655 9.14672 19.8755 9.14672 19.6959V11.7192H8.04562C7.82109 11.7192 7.70859 11.2214 7.70859 10.2248C7.70859 9.22828 7.82109 8.73047 8.04562 8.73047H9.14672V8.23594C9.14672 6.64828 9.48 5.55047 10.1466 4.94391C10.8127 4.33687 11.7455 4.03406 12.9441 4.03406C14.1427 4.03406 15.1983 4.25156 16.1123 4.68563C16.2323 4.73063 16.2923 4.89187 16.2923 5.16891C16.2923 5.44594 16.1648 5.89172 15.9103 6.50578H15.9098Z" fill="url(#paint0_linear_450_5696)"/>
</g>
<defs>
<linearGradient id="paint0_linear_450_5696" x1="2.05922" y1="2.05922" x2="21.9408" y2="21.9408" gradientUnits="userSpaceOnUse">
<stop stop-color="#54BDFF"/>
<stop offset="1" stop-color="#0042C7"/>
</linearGradient>
<clipPath id="clip0_450_5696">
<rect width="24" height="24" fill="white"/>
</clipPath>
</defs>
</svg>
