<svg width="51" height="51" viewBox="0 0 51 51" fill="none" xmlns="http://www.w3.org/2000/svg">
<circle cx="25.5" cy="25.5" r="24.25" fill="#6AB168" fill-opacity="0.25" stroke="#6AB168" stroke-width="2.5"/>
<g opacity="0.15">
<path d="M37.5775 20.9675C39.1907 18.8316 39.9708 16.1812 39.7719 13.5119C39.7588 13.383 39.7059 13.2615 39.6207 13.1639C39.5355 13.0664 39.4221 12.9978 39.2962 12.9675C37.7409 12.6485 36.1359 12.6602 34.5853 13.0019C33.0348 13.3435 31.5735 14.0075 30.2962 14.9506C30.1647 13.3671 29.7016 11.829 28.9371 10.436C28.1727 9.04307 27.1238 7.82641 25.8587 6.865C25.7532 6.79034 25.6271 6.75024 25.4978 6.75024C25.3685 6.75024 25.2424 6.79034 25.1369 6.865C22.9924 8.46821 21.5087 10.8007 20.9656 13.4225C18.8301 11.8079 16.179 11.0279 13.5094 11.2287C13.3806 11.2418 13.2591 11.2945 13.1616 11.3796C13.0641 11.4647 12.9954 11.578 12.965 11.7037C12.6466 13.2592 12.6586 14.8641 13.0004 16.4146C13.3421 17.965 14.0059 19.4263 14.9487 20.7037C13.3653 20.8356 11.8273 21.2988 10.4343 22.0632C9.04142 22.8277 7.82471 23.8764 6.86312 25.1413C6.78831 25.2469 6.74814 25.3731 6.74814 25.5025C6.74814 25.6319 6.78831 25.7581 6.86312 25.8638C8.4666 28.0079 10.799 29.4915 13.4206 30.035C11.8086 32.1705 11.0293 34.8199 11.2281 37.4881C11.2412 37.617 11.294 37.7385 11.3792 37.8361C11.4644 37.9336 11.5778 38.0022 11.7037 38.0325C12.434 38.2067 13.1824 38.2937 13.9331 38.2919C16.3654 38.2492 18.7269 37.4658 20.7025 36.0463C20.8338 37.6303 21.2967 39.169 22.0611 40.5625C22.8256 41.956 23.8746 43.1732 25.14 44.135C25.2451 44.2098 25.371 44.25 25.5 44.25C25.6294 44.2497 25.7555 44.2096 25.8612 44.135C28.0042 42.5331 29.4874 40.2028 30.0312 37.5831C31.9216 38.9917 34.2055 39.7732 36.5625 39.8181C36.8727 39.8185 37.1827 39.8028 37.4912 39.7713C37.62 39.7582 37.7415 39.7055 37.839 39.6204C37.9365 39.5353 38.0052 39.422 38.0356 39.2963C38.354 37.7408 38.342 36.1359 38.0002 34.5854C37.6585 33.035 36.9947 31.5737 36.0519 30.2963C37.6353 30.1644 39.1733 29.7012 40.5663 28.9368C41.9592 28.1723 43.1759 27.1236 44.1375 25.8588C44.2123 25.7531 44.2525 25.6269 44.2525 25.4975C44.2525 25.3681 44.2123 25.2419 44.1375 25.1362C42.533 22.9925 40.1997 21.5098 37.5775 20.9675ZM34.5725 29.49C34.5709 29.4956 34.5697 29.5012 34.5687 29.5069C34.5687 29.5119 34.5619 29.515 34.56 29.52C34.5362 29.5825 34.5081 29.645 34.4794 29.7V29.7075L34.4731 29.7156C33.3729 32.0557 31.4019 33.8733 28.9805 34.7807C26.5591 35.688 23.879 35.6133 21.5119 34.5725C21.5062 34.5725 21.4994 34.5725 21.4931 34.5669C21.4869 34.5613 21.4875 34.5625 21.4837 34.5613C21.4212 34.5363 21.3587 34.5075 21.3 34.4781H21.2925L21.2869 34.4738C19.1187 33.4549 17.3931 31.6851 16.4294 29.4919C15.8754 28.2346 15.5894 26.8758 15.5894 25.5019C15.5894 24.128 15.8754 22.7691 16.4294 21.5119C16.4294 21.5075 16.4294 21.5025 16.4331 21.4975C16.4369 21.4925 16.4394 21.4875 16.4419 21.4819C16.4656 21.4194 16.4937 21.3569 16.5225 21.3019V21.2956L16.5294 21.2862C17.6296 18.9461 19.6006 17.1286 22.022 16.2212C24.4434 15.3138 27.1235 15.3885 29.4906 16.4294H29.5L29.5137 16.4362H29.5187C29.5812 16.4612 29.6437 16.49 29.7025 16.5194H29.7119H29.7156C31.8837 17.5383 33.6094 19.3081 34.5731 21.5012C35.127 22.7585 35.4131 24.1174 35.4131 25.4912C35.4131 26.8651 35.127 28.224 34.5731 29.4813L34.5725 29.49ZM38.5625 14.0894C38.5949 16.514 37.7516 18.8689 36.1875 20.7219C35.9744 20.695 35.7587 20.6737 35.5425 20.6594C34.5867 18.6674 33.0607 17.0044 31.1581 15.8813C33.301 14.3474 35.9554 13.7051 38.5625 14.0894ZM25.5 8.15625C27.5073 9.86768 28.7724 12.291 29.0294 14.9162C26.7363 14.1575 24.2599 14.1575 21.9669 14.9162C21.98 14.82 21.9894 14.7244 22.0044 14.6275C22.3157 12.108 23.5635 9.79787 25.5 8.15625ZM14.0894 12.4375C16.5144 12.404 18.8699 13.2474 20.7225 14.8125C20.695 15.025 20.6742 15.24 20.66 15.4575C18.6681 16.4133 17.005 17.9393 15.8819 19.8419C14.3475 17.6992 13.7049 15.0446 14.0894 12.4375ZM8.15687 25.5C9.86769 23.4933 12.29 22.2282 14.9144 21.9706C14.1444 24.2618 14.1444 26.7419 14.9144 29.0331C14.8194 29.0206 14.7269 29.0113 14.6275 28.9963C12.1081 28.6847 9.79819 27.4366 8.15687 25.5ZM12.4375 36.9106C12.4051 34.486 13.2484 32.1311 14.8125 30.2781C15.0256 30.305 15.2412 30.3263 15.4581 30.3406C16.4135 32.3326 17.9393 33.9958 19.8419 35.1188C17.699 36.6524 15.0445 37.2948 12.4375 36.9106ZM25.5 42.8438C23.4908 41.1349 22.2228 38.7135 21.9625 36.0888C21.9844 36.0963 22.0069 36.1013 22.0287 36.1081C22.1137 36.1363 22.2006 36.1575 22.2869 36.1831C22.53 36.2563 22.7756 36.3231 23.0237 36.3794C23.1569 36.41 23.2912 36.4356 23.4256 36.4606C23.6356 36.5 23.8469 36.5325 24.06 36.56C24.1994 36.5781 24.3381 36.5975 24.4787 36.61C24.7575 36.6356 25.0369 36.6488 25.3169 36.6531C25.3794 36.6531 25.4381 36.6625 25.5 36.6625C25.5619 36.6625 25.625 36.6538 25.6875 36.6525C25.965 36.6481 26.2425 36.635 26.5194 36.61C26.66 36.5975 26.7987 36.5781 26.9387 36.56C27.1512 36.5331 27.3631 36.5006 27.5737 36.4612C27.7075 36.4356 27.8412 36.41 27.9737 36.38C28.2237 36.3238 28.4687 36.255 28.7125 36.1831C28.7975 36.1575 28.8844 36.1369 28.9694 36.1088C28.9906 36.1019 29.0131 36.0969 29.0319 36.09C29.02 36.1838 29.0056 36.2775 28.9912 36.3719C28.6812 38.891 27.4349 41.2012 25.5 42.8438ZM36.9106 38.5625C34.4857 38.5953 32.1305 37.752 30.2775 36.1875C30.305 35.9737 30.3262 35.7594 30.34 35.5425C32.3319 34.5867 33.995 33.0607 35.1181 31.1581C36.6524 33.3008 37.2951 35.9554 36.9106 38.5625ZM36.0856 29.0313C36.8556 26.74 36.8556 24.26 36.0856 21.9688C36.1806 21.9812 36.2731 21.9906 36.3725 22.0056C38.8916 22.3167 41.2015 23.5641 42.8431 25.5C41.1323 27.5067 38.71 28.7718 36.0856 29.0294V29.0313Z" fill="#6AB168"/>
<path d="M32.0987 22.7669V19.5269C32.0987 19.3611 32.0329 19.2022 31.9157 19.0849C31.7985 18.9677 31.6395 18.9019 31.4737 18.9019H28.2331L25.9419 16.6106C25.8247 16.4935 25.6657 16.4276 25.5 16.4276C25.3343 16.4276 25.1753 16.4935 25.0581 16.6106L22.7669 18.9019H19.5262C19.3605 18.9019 19.2015 18.9677 19.0843 19.0849C18.9671 19.2022 18.9012 19.3611 18.9012 19.5269V22.7669L16.61 25.0581C16.4928 25.1753 16.427 25.3343 16.427 25.5C16.427 25.6657 16.4928 25.8247 16.61 25.9419L18.9012 28.2331V31.4731C18.9012 31.6389 18.9671 31.7979 19.0843 31.9151C19.2015 32.0323 19.3605 32.0981 19.5262 32.0981H22.7669L25.0581 34.3894C25.1753 34.5066 25.3343 34.5724 25.5 34.5724C25.6657 34.5724 25.8247 34.5066 25.9419 34.3894L28.2331 32.0981H31.4737C31.6395 32.0981 31.7985 32.0323 31.9157 31.9151C32.0329 31.7979 32.0987 31.6389 32.0987 31.4731V28.2331L34.39 25.9419C34.5072 25.8247 34.573 25.6657 34.573 25.5C34.573 25.3343 34.5072 25.1753 34.39 25.0581L32.0987 22.7669ZM31.0319 27.5325C30.9147 27.6497 30.8488 27.8086 30.8487 27.9744V30.8494H27.9737C27.808 30.8494 27.6491 30.9153 27.5319 31.0325L25.5 33.0625L23.4675 31.0313C23.3503 30.914 23.1914 30.8482 23.0256 30.8481H20.1506V27.9731C20.1506 27.8074 20.0847 27.6484 19.9675 27.5313L17.9375 25.5L19.97 23.4675C20.0872 23.3503 20.1531 23.1914 20.1531 23.0256V20.1506H23.0281C23.1939 20.1506 23.3528 20.0847 23.47 19.9675L25.5 17.9375L27.5325 19.97C27.6497 20.0872 27.8086 20.1531 27.9744 20.1531H30.8494V23.0281C30.8494 23.1939 30.9153 23.3528 31.0325 23.47L33.0625 25.5L31.0319 27.5325Z" fill="#6AB168"/>
<path d="M25.5 20.7625C24.563 20.7625 23.6471 21.0404 22.868 21.5609C22.0889 22.0815 21.4817 22.8214 21.1231 23.687C20.7646 24.5527 20.6707 25.5053 20.8535 26.4243C21.0363 27.3432 21.4875 28.1874 22.1501 28.8499C22.8126 29.5125 23.6568 29.9637 24.5758 30.1465C25.4948 30.3293 26.4473 30.2355 27.313 29.8769C28.1786 29.5183 28.9185 28.9111 29.4391 28.132C29.9597 27.3529 30.2375 26.437 30.2375 25.5C30.2362 24.244 29.7366 23.0397 28.8485 22.1516C27.9603 21.2634 26.7561 20.7638 25.5 20.7625ZM25.5 28.9875C24.8103 28.9875 24.136 28.783 23.5625 28.3998C22.9889 28.0166 22.5419 27.4719 22.278 26.8346C22.014 26.1974 21.945 25.4961 22.0795 24.8196C22.2141 24.1431 22.5462 23.5217 23.034 23.034C23.5217 22.5462 24.1431 22.2141 24.8196 22.0795C25.4961 21.945 26.1974 22.014 26.8346 22.278C27.4719 22.5419 28.0166 22.9889 28.3998 23.5625C28.783 24.136 28.9875 24.8102 28.9875 25.5C28.9865 26.4246 28.6188 27.3111 27.965 27.965C27.3111 28.6188 26.4247 28.9865 25.5 28.9875Z" fill="#6AB168"/>
</g>
<path d="M15.2574 17.924C12.9142 20.2672 12.9142 24.0662 15.2574 26.4093L25.5001 36.652L35.7426 26.4093C38.0858 24.0662 38.0858 20.2672 35.7426 17.924C33.3995 15.5809 29.6005 15.5809 27.2574 17.924L25.5001 19.6814L23.7426 17.924C21.3995 15.5809 17.6005 15.5809 15.2574 17.924Z" stroke="white" stroke-width="2" stroke-linecap="round" stroke-linejoin="round"/>
</svg>
