<svg width="111" height="111" viewBox="0 0 111 111" fill="none" xmlns="http://www.w3.org/2000/svg">
<g filter="url(#filter0_d_515_967)">
<circle cx="55.5" cy="55.5" r="23" fill="#6AB168" fill-opacity="0.25" shape-rendering="crispEdges"/>
<circle cx="55.5" cy="55.5" r="24.25" stroke="#6AB168" stroke-width="2.5" shape-rendering="crispEdges"/>
</g>
<g opacity="0.15">
<path d="M67.5775 50.9675C69.1907 48.8316 69.9708 46.1812 69.7719 43.5119C69.7588 43.383 69.706 43.2615 69.6208 43.1639C69.5355 43.0664 69.4222 42.9978 69.2962 42.9675C67.7409 42.6485 66.1359 42.6602 64.5853 43.0019C63.0348 43.3435 61.5735 44.0075 60.2962 44.9506C60.1647 43.3671 59.7016 41.829 58.9371 40.436C58.1727 39.0431 57.1238 37.8264 55.8587 36.865C55.7532 36.7903 55.6271 36.7502 55.4978 36.7502C55.3685 36.7502 55.2424 36.7903 55.1369 36.865C52.9924 38.4682 51.5087 40.8007 50.9656 43.4225C48.8301 41.8079 46.179 41.0279 43.5094 41.2288C43.3806 41.2418 43.2591 41.2945 43.1616 41.3796C43.0641 41.4647 42.9954 41.578 42.965 41.7037C42.6466 43.2592 42.6586 44.8641 43.0004 46.4146C43.3421 47.965 44.0059 49.4263 44.9487 50.7037C43.3653 50.8356 41.8273 51.2988 40.4344 52.0632C39.0414 52.8277 37.8247 53.8764 36.8631 55.1413C36.7883 55.2469 36.7481 55.3731 36.7481 55.5025C36.7481 55.6319 36.7883 55.7581 36.8631 55.8638C38.4666 58.0079 40.799 59.4915 43.4206 60.035C41.8086 62.1705 41.0293 64.8199 41.2281 67.4881C41.2412 67.617 41.294 67.7385 41.3792 67.8361C41.4645 67.9336 41.5778 68.0022 41.7037 68.0325C42.434 68.2067 43.1824 68.2937 43.9331 68.2919C46.3654 68.2492 48.7269 67.4658 50.7025 66.0463C50.8338 67.6303 51.2967 69.169 52.0612 70.5625C52.8256 71.956 53.8746 73.1732 55.14 74.135C55.2451 74.2098 55.371 74.25 55.5 74.25C55.6294 74.2497 55.7555 74.2096 55.8612 74.135C58.0042 72.5331 59.4874 70.2028 60.0312 67.5831C61.9216 68.9917 64.2055 69.7732 66.5625 69.8181C66.8727 69.8185 67.1827 69.8028 67.4912 69.7713C67.62 69.7582 67.7415 69.7055 67.839 69.6204C67.9365 69.5353 68.0052 69.422 68.0356 69.2963C68.354 67.7408 68.342 66.1359 68.0002 64.5854C67.6585 63.035 66.9947 61.5737 66.0519 60.2963C67.6353 60.1644 69.1733 59.7012 70.5663 58.9368C71.9592 58.1723 73.1759 57.1236 74.1375 55.8588C74.2123 55.7531 74.2525 55.6269 74.2525 55.4975C74.2525 55.3681 74.2123 55.2419 74.1375 55.1362C72.533 52.9925 70.1997 51.5098 67.5775 50.9675ZM64.5725 59.49C64.5709 59.4956 64.5697 59.5012 64.5687 59.5069C64.5687 59.5119 64.5619 59.515 64.56 59.52C64.5362 59.5825 64.5081 59.645 64.4794 59.7V59.7075L64.4731 59.7156C63.3729 62.0557 61.4019 63.8733 58.9805 64.7807C56.5591 65.688 53.879 65.6133 51.5119 64.5725C51.5062 64.5725 51.4994 64.5725 51.4931 64.5669C51.4869 64.5613 51.4875 64.5625 51.4837 64.5613C51.4212 64.5363 51.3587 64.5075 51.3 64.4781H51.2925L51.2869 64.4738C49.1188 63.4549 47.3931 61.6851 46.4294 59.4919C45.8754 58.2346 45.5894 56.8758 45.5894 55.5019C45.5894 54.128 45.8754 52.7691 46.4294 51.5119C46.4294 51.5075 46.4294 51.5025 46.4331 51.4975C46.4369 51.4925 46.4394 51.4875 46.4419 51.4819C46.4656 51.4194 46.4937 51.3569 46.5225 51.3019V51.2956L46.5294 51.2862C47.6296 48.9461 49.6006 47.1286 52.022 46.2212C54.4434 45.3138 57.1235 45.3885 59.4906 46.4294H59.5L59.5137 46.4362H59.5187C59.5812 46.4612 59.6437 46.49 59.7025 46.5194H59.7119H59.7156C61.8837 47.5383 63.6094 49.3081 64.5731 51.5012C65.1271 52.7585 65.4131 54.1174 65.4131 55.4912C65.4131 56.8651 65.1271 58.224 64.5731 59.4813L64.5725 59.49ZM68.5625 44.0894C68.5949 46.514 67.7516 48.8689 66.1875 50.7219C65.9744 50.695 65.7587 50.6737 65.5425 50.6594C64.5867 48.6674 63.0607 47.0044 61.1581 45.8813C63.301 44.3474 65.9554 43.7051 68.5625 44.0894ZM55.5 38.1562C57.5073 39.8677 58.7725 42.291 59.0294 44.9163C56.7363 44.1575 54.2599 44.1575 51.9669 44.9163C51.98 44.82 51.9894 44.7244 52.0044 44.6275C52.3157 42.108 53.5636 39.7979 55.5 38.1562ZM44.0894 42.4375C46.5144 42.404 48.8699 43.2474 50.7225 44.8125C50.695 45.025 50.6742 45.24 50.66 45.4575C48.6681 46.4133 47.005 47.9393 45.8819 49.8419C44.3475 47.6992 43.7049 45.0446 44.0894 42.4375ZM38.1569 55.5C39.8677 53.4933 42.29 52.2282 44.9144 51.9706C44.1444 54.2618 44.1444 56.7419 44.9144 59.0331C44.8194 59.0206 44.7269 59.0113 44.6275 58.9963C42.1081 58.6847 39.7982 57.4366 38.1569 55.5ZM42.4375 66.9106C42.4051 64.486 43.2484 62.1311 44.8125 60.2781C45.0256 60.305 45.2412 60.3263 45.4581 60.3406C46.4135 62.3326 47.9393 63.9958 49.8419 65.1188C47.699 66.6524 45.0445 67.2948 42.4375 66.9106ZM55.5 72.8438C53.4908 71.1349 52.2228 68.7135 51.9625 66.0888C51.9844 66.0963 52.0069 66.1013 52.0287 66.1081C52.1137 66.1363 52.2006 66.1575 52.2869 66.1831C52.53 66.2563 52.7756 66.3231 53.0237 66.3794C53.1569 66.41 53.2912 66.4356 53.4256 66.4606C53.6356 66.5 53.8469 66.5325 54.06 66.56C54.1994 66.5781 54.3381 66.5975 54.4787 66.61C54.7575 66.6356 55.0369 66.6488 55.3169 66.6531C55.3794 66.6531 55.4381 66.6625 55.5 66.6625C55.5619 66.6625 55.625 66.6538 55.6875 66.6525C55.965 66.6481 56.2425 66.635 56.5194 66.61C56.66 66.5975 56.7987 66.5781 56.9387 66.56C57.1512 66.5331 57.3631 66.5006 57.5737 66.4613C57.7075 66.4356 57.8412 66.41 57.9737 66.38C58.2237 66.3238 58.4687 66.255 58.7125 66.1831C58.7975 66.1575 58.8844 66.1369 58.9694 66.1087C58.9906 66.1019 59.0131 66.0969 59.0319 66.09C59.02 66.1838 59.0056 66.2775 58.9912 66.3719C58.6812 68.891 57.435 71.2012 55.5 72.8438ZM66.9106 68.5625C64.4858 68.5953 62.1305 67.752 60.2775 66.1875C60.305 65.9737 60.3262 65.7594 60.34 65.5425C62.3319 64.5867 63.995 63.0607 65.1181 61.1581C66.6525 63.3008 67.2951 65.9554 66.9106 68.5625ZM66.0856 59.0313C66.8556 56.74 66.8556 54.26 66.0856 51.9688C66.1806 51.9812 66.2731 51.9906 66.3725 52.0056C68.8916 52.3167 71.2015 53.5641 72.8431 55.5C71.1323 57.5067 68.71 58.7718 66.0856 59.0294V59.0313Z" fill="#6AB168"/>
<path d="M62.0988 52.7669V49.5269C62.0988 49.3611 62.0329 49.2022 61.9157 49.0849C61.7985 48.9677 61.6395 48.9019 61.4738 48.9019H58.2331L55.9419 46.6106C55.8247 46.4935 55.6657 46.4276 55.5 46.4276C55.3343 46.4276 55.1753 46.4935 55.0581 46.6106L52.7669 48.9019H49.5263C49.3605 48.9019 49.2015 48.9677 49.0843 49.0849C48.9671 49.2022 48.9013 49.3611 48.9013 49.5269V52.7669L46.61 55.0581C46.4928 55.1753 46.427 55.3343 46.427 55.5C46.427 55.6657 46.4928 55.8247 46.61 55.9419L48.9013 58.2331V61.4731C48.9013 61.6389 48.9671 61.7979 49.0843 61.9151C49.2015 62.0323 49.3605 62.0981 49.5263 62.0981H52.7669L55.0581 64.3894C55.1753 64.5066 55.3343 64.5724 55.5 64.5724C55.6657 64.5724 55.8247 64.5066 55.9419 64.3894L58.2331 62.0981H61.4738C61.6395 62.0981 61.7985 62.0323 61.9157 61.9151C62.0329 61.7979 62.0988 61.6389 62.0988 61.4731V58.2331L64.39 55.9419C64.5072 55.8247 64.573 55.6657 64.573 55.5C64.573 55.3343 64.5072 55.1753 64.39 55.0581L62.0988 52.7669ZM61.0319 57.5325C60.9147 57.6497 60.8488 57.8086 60.8488 57.9744V60.8494H57.9738C57.808 60.8494 57.6491 60.9153 57.5319 61.0325L55.5 63.0625L53.4675 61.0313C53.3503 60.914 53.1914 60.8482 53.0256 60.8481H50.1506V57.9731C50.1506 57.8074 50.0847 57.6484 49.9675 57.5313L47.9375 55.5L49.97 53.4675C50.0872 53.3503 50.1531 53.1914 50.1531 53.0256V50.1506H53.0281C53.1939 50.1506 53.3528 50.0847 53.47 49.9675L55.5 47.9375L57.5325 49.97C57.6497 50.0872 57.8086 50.1531 57.9744 50.1531H60.8494V53.0281C60.8494 53.1939 60.9153 53.3528 61.0325 53.47L63.0625 55.5L61.0319 57.5325Z" fill="#6AB168"/>
<path d="M55.5 50.7625C54.563 50.7625 53.6471 51.0404 52.868 51.5609C52.0889 52.0815 51.4817 52.8214 51.1231 53.687C50.7646 54.5527 50.6707 55.5053 50.8535 56.4243C51.0363 57.3432 51.4875 58.1874 52.1501 58.8499C52.8126 59.5125 53.6568 59.9637 54.5758 60.1465C55.4947 60.3293 56.4473 60.2355 57.313 59.8769C58.1786 59.5183 58.9185 58.9111 59.4391 58.132C59.9597 57.3529 60.2375 56.437 60.2375 55.5C60.2362 54.244 59.7366 53.0397 58.8485 52.1516C57.9603 51.2634 56.7561 50.7638 55.5 50.7625ZM55.5 58.9875C54.8102 58.9875 54.136 58.783 53.5624 58.3998C52.9889 58.0166 52.5419 57.4719 52.278 56.8346C52.014 56.1974 51.9449 55.4961 52.0795 54.8196C52.2141 54.1431 52.5462 53.5217 53.034 53.034C53.5217 52.5462 54.1431 52.2141 54.8196 52.0795C55.4961 51.945 56.1973 52.014 56.8346 52.278C57.4719 52.5419 58.0165 52.9889 58.3997 53.5625C58.783 54.136 58.9875 54.8102 58.9875 55.5C58.9865 56.4247 58.6188 57.3111 57.9649 57.965C57.3111 58.6188 56.4246 58.9865 55.5 58.9875Z" fill="#6AB168"/>
</g>
<path d="M45.2574 47.924C42.9142 50.2672 42.9142 54.0662 45.2574 56.4093L55.5001 66.652L65.7426 56.4093C68.0858 54.0662 68.0858 50.2672 65.7426 47.924C63.3995 45.5809 59.6005 45.5809 57.2574 47.924L55.5001 49.6814L53.7426 47.924C51.3995 45.5809 47.6005 45.5809 45.2574 47.924Z" stroke="white" stroke-width="2" stroke-linecap="round" stroke-linejoin="round"/>
<defs>
<filter id="filter0_d_515_967" x="0" y="0" width="111" height="111" filterUnits="userSpaceOnUse" color-interpolation-filters="sRGB">
<feFlood flood-opacity="0" result="BackgroundImageFix"/>
<feColorMatrix in="SourceAlpha" type="matrix" values="0 0 0 0 0 0 0 0 0 0 0 0 0 0 0 0 0 0 127 0" result="hardAlpha"/>
<feOffset/>
<feGaussianBlur stdDeviation="15"/>
<feComposite in2="hardAlpha" operator="out"/>
<feColorMatrix type="matrix" values="0 0 0 0 0.415686 0 0 0 0 0.694118 0 0 0 0 0.407843 0 0 0 1 0"/>
<feBlend mode="normal" in2="BackgroundImageFix" result="effect1_dropShadow_515_967"/>
<feBlend mode="normal" in="SourceGraphic" in2="effect1_dropShadow_515_967" result="shape"/>
</filter>
</defs>
</svg>
