<svg width="51" height="51" viewBox="0 0 51 51" fill="none" xmlns="http://www.w3.org/2000/svg">
<path d="M25.4941 50.2008C39.298 50.2008 50.4883 39.0749 50.4883 25.3504C50.4883 11.6259 39.298 0.5 25.4941 0.5C11.6903 0.5 0.5 11.6259 0.5 25.3504C0.5 39.0749 11.6903 50.2008 25.4941 50.2008Z" stroke="#B7B7B7"/>
<path d="M24.1945 32.6975L24.174 26.4382H21.4961V23.7557H24.174V21.9673C24.174 19.5538 25.6661 18.3906 27.8155 18.3906C28.8451 18.3906 29.7299 18.4674 29.9878 18.5017V21.024L28.4971 21.0247C27.3281 21.0247 27.1018 21.5811 27.1018 22.3977V23.7557H30.4226L29.5299 26.4382H27.1018V32.6975H24.1945Z" fill="white"/>
</svg>
