<svg width="26" height="26" viewBox="0 0 26 26" fill="none" xmlns="http://www.w3.org/2000/svg">
<path d="M19.5003 13H21.667M19.5003 13C19.5003 11.8034 18.5303 10.8333 17.3337 10.8333C16.137 10.8333 15.167 11.8034 15.167 13M19.5003 13C19.5003 14.1966 18.5303 15.1666 17.3337 15.1666C16.137 15.1666 15.167 14.1966 15.167 13M6.50033 6.49998C6.50033 7.6966 7.47038 8.66665 8.66699 8.66665C9.86361 8.66665 10.8337 7.6966 10.8337 6.49998M6.50033 6.49998C6.50033 5.30336 7.47038 4.33331 8.66699 4.33331C9.86361 4.33331 10.8337 5.30336 10.8337 6.49998M6.50033 6.49998H4.33366M10.8337 6.49998H21.667M15.167 13H4.33366M6.50033 19.5C6.50033 20.6966 7.47038 21.6666 8.66699 21.6666C9.86361 21.6666 10.8337 20.6966 10.8337 19.5M6.50033 19.5C6.50033 18.3034 7.47038 17.3333 8.66699 17.3333C9.86361 17.3333 10.8337 18.3034 10.8337 19.5M6.50033 19.5H4.33366M10.8337 19.5H21.667" stroke="white" stroke-width="1.5" stroke-linecap="round" stroke-linejoin="round"/>
</svg>
