<svg width="111" height="111" viewBox="0 0 111 111" fill="none" xmlns="http://www.w3.org/2000/svg">
<g filter="url(#filter0_d_515_965)">
<circle cx="55.5" cy="55.5" r="23" fill="#440472" fill-opacity="0.25" shape-rendering="crispEdges"/>
<circle cx="55.5" cy="55.5" r="24.25" stroke="#440472" stroke-width="2.5" shape-rendering="crispEdges"/>
</g>
<g opacity="0.1" clip-path="url(#clip0_515_965)">
<path d="M71.52 60.5C71.1775 58.53 70.8519 56.6625 69.2075 55.5C70.8494 54.34 71.175 52.4725 71.52 50.5C71.6988 48.9695 72.1463 47.4825 72.8419 46.1075C72.8886 46.0118 72.9111 45.9062 72.9075 45.7998C72.9038 45.6934 72.8741 45.5895 72.8209 45.4973C72.7677 45.4051 72.6926 45.3274 72.6023 45.271C72.5121 45.2145 72.4093 45.1812 72.3031 45.1737C70.7645 45.0896 69.2528 44.7345 67.8375 44.125C65.9625 43.4375 64.1806 42.785 62.355 43.625C62.1712 41.625 60.7169 40.4069 59.1825 39.125C57.9463 38.2057 56.8821 37.0754 56.0387 35.7862C55.9792 35.6981 55.899 35.6259 55.8051 35.5759C55.7111 35.526 55.6064 35.4999 55.5 35.4999C55.3936 35.4999 55.2889 35.526 55.1949 35.5759C55.101 35.6259 55.0208 35.6981 54.9612 35.7862C54.1179 37.0754 53.0537 38.2057 51.8175 39.125C50.2831 40.4087 48.8287 41.625 48.645 43.625C46.8194 42.7831 45.0394 43.4375 43.1625 44.125C41.7474 44.7354 40.2357 45.0913 38.6969 45.1762C38.5907 45.1837 38.4879 45.217 38.3977 45.2735C38.3074 45.3299 38.2323 45.4076 38.1791 45.4998C38.1259 45.592 38.0962 45.6959 38.0925 45.8023C38.0889 45.9087 38.1114 46.0143 38.1581 46.11C38.8534 47.4842 39.3009 48.9703 39.48 50.5C39.8225 52.47 40.1481 54.3375 41.7925 55.5C40.1506 56.66 39.825 58.5275 39.48 60.5C39.3011 62.0305 38.8536 63.5175 38.1581 64.8925C38.1114 64.9881 38.0889 65.0938 38.0925 65.2002C38.0962 65.3066 38.1259 65.4105 38.1791 65.5027C38.2323 65.5949 38.3074 65.6726 38.3977 65.729C38.4879 65.7854 38.5907 65.8188 38.6969 65.8262C40.2355 65.9104 41.7472 66.2655 43.1625 66.875C45.0375 67.5625 46.8194 68.215 48.645 67.375C48.8287 69.375 50.2831 70.5931 51.8175 71.875C53.0539 72.7951 54.1181 73.9262 54.9612 75.2163C55.0208 75.3044 55.101 75.3766 55.1949 75.4266C55.2889 75.4765 55.3936 75.5026 55.5 75.5026C55.6064 75.5026 55.7111 75.4765 55.8051 75.4266C55.899 75.3766 55.9792 75.3044 56.0387 75.2163C56.8819 73.9262 57.9461 72.7951 59.1825 71.875C60.7169 70.5938 62.1712 69.3781 62.355 67.375C64.1806 68.2169 65.9606 67.5625 67.8375 66.875C69.2526 66.2646 70.7643 65.9087 72.3031 65.8237C72.4093 65.8163 72.5121 65.7829 72.6023 65.7265C72.6926 65.6701 72.7677 65.5924 72.8209 65.5002C72.8741 65.408 72.9038 65.3041 72.9075 65.1977C72.9111 65.0913 72.8886 64.9856 72.8419 64.89C72.1466 63.5157 71.6992 62.0297 71.52 60.5ZM67.4075 45.3012C68.6635 45.814 69.9771 46.1727 71.3194 46.3694C70.8186 47.63 70.4723 48.9467 70.2881 50.2906C69.9756 52.085 69.7137 53.5287 68.5694 54.4069C68.4077 52.482 67.823 50.6166 66.857 48.9438C65.891 47.271 64.5676 45.8322 62.9812 44.73C64.3125 44.1769 65.6969 44.6712 67.4075 45.2987V45.3012ZM52.6194 40.0869C53.6913 39.2555 54.6586 38.2972 55.5 37.2331C56.3414 38.2972 57.3087 39.2555 58.3806 40.0869C59.7812 41.2562 60.9012 42.2069 61.0869 43.6412C59.3424 42.8077 57.4334 42.375 55.5 42.375C53.5666 42.375 51.6576 42.8077 49.9131 43.6412C50.0988 42.2069 51.2188 41.2562 52.6194 40.0869ZM40.7119 50.2881C40.5277 48.9442 40.1814 47.6275 39.6806 46.3669C41.0229 46.1702 42.3365 45.8115 43.5925 45.2987C45.3031 44.6737 46.6856 44.1737 48.0187 44.73C46.4327 45.8319 45.1095 47.2704 44.1435 48.9427C43.1776 50.615 42.5927 52.4799 42.4306 54.4044C41.2862 53.5262 41.0231 52.0825 40.7119 50.2881ZM43.5925 65.7012C42.3365 65.1885 41.0229 64.8298 39.6806 64.6331C40.1814 63.3725 40.5277 62.0558 40.7119 60.7119C41.0244 58.9175 41.2862 57.4737 42.4306 56.5956C42.5927 58.5201 43.1776 60.385 44.1435 62.0573C45.1095 63.7296 46.4327 65.1681 48.0187 66.27C46.6875 66.8231 45.3031 66.3287 43.5925 65.7012ZM58.3806 70.9131C57.3087 71.7445 56.3414 72.7028 55.5 73.7669C54.6586 72.7028 53.6913 71.7445 52.6194 70.9131C51.2188 69.7437 50.0988 68.7931 49.9131 67.3587C51.6576 68.1923 53.5666 68.625 55.5 68.625C57.4334 68.625 59.3424 68.1923 61.0869 67.3587C60.9012 68.7931 59.7812 69.7437 58.3806 70.9131ZM55.5 67.375C53.1513 67.375 50.8554 66.6785 48.9026 65.3737C46.9498 64.0689 45.4277 62.2142 44.5289 60.0444C43.6301 57.8745 43.395 55.4868 43.8532 53.1833C44.3114 50.8798 45.4424 48.7639 47.1031 47.1031C48.7639 45.4424 50.8798 44.3114 53.1833 43.8532C55.4868 43.395 57.8745 43.6301 60.0444 44.5289C62.2142 45.4277 64.0689 46.9498 65.3737 48.9026C66.6785 50.8554 67.375 53.1513 67.375 55.5C67.3715 58.6484 66.1193 61.6668 63.8931 63.8931C61.6668 66.1193 58.6484 67.3715 55.5 67.375ZM67.4075 65.7012C65.6969 66.3262 64.315 66.8231 62.9812 66.27C64.5673 65.1681 65.8905 63.7296 66.8565 62.0573C67.8224 60.385 68.4073 58.5201 68.5694 56.5956C69.7137 57.4737 69.9769 58.9175 70.2881 60.7119C70.4723 62.0558 70.8186 63.3725 71.3194 64.6331C69.9771 64.8298 68.6635 65.1885 67.4075 65.7012Z" fill="white"/>
<path d="M55.5 44.875C53.3986 44.875 51.3443 45.4981 49.5971 46.6656C47.8498 47.8331 46.488 49.4925 45.6838 51.434C44.8796 53.3755 44.6692 55.5118 45.0792 57.5728C45.4891 59.6339 46.5011 61.5271 47.987 63.013C49.4729 64.4989 51.3661 65.5109 53.4272 65.9208C55.4882 66.3308 57.6245 66.1204 59.566 65.3162C61.5075 64.512 63.1669 63.1502 64.3344 61.4029C65.5019 59.6557 66.125 57.6014 66.125 55.5C66.1219 52.683 65.0014 49.9824 63.0095 47.9905C61.0176 45.9986 58.317 44.8781 55.5 44.875ZM55.5 46.125C56.8977 46.1252 58.2776 46.4385 59.5384 47.0419C60.7992 47.6453 61.9087 48.5234 62.7856 49.6119H48.2144C49.0913 48.5234 50.2008 47.6453 51.4616 47.0419C52.7224 46.4385 54.1023 46.1252 55.5 46.125ZM46.125 55.5C46.1267 54.1321 46.4297 52.7813 47.0125 51.5437L54.3969 64.8044C52.1192 64.5323 50.0201 63.4355 48.496 61.7212C46.972 60.0069 46.1285 57.7938 46.125 55.5ZM48.0625 50.8619H62.9375L55.5 64.2156L48.0625 50.8619ZM56.6031 64.8044L63.9875 51.5437C64.6181 52.8858 64.9204 54.3587 64.8694 55.8406C64.8183 57.3226 64.4155 58.7712 63.694 60.0667C62.9726 61.3622 61.9533 62.4675 60.7204 63.2913C59.4874 64.1151 58.0761 64.6337 56.6031 64.8044Z" fill="white"/>
</g>
<path d="M43.5 46.5C43.5 45.9477 43.9477 45.5 44.5 45.5H66.5C67.0523 45.5 67.5 45.9477 67.5 46.5V50.4191C67.5 50.6843 67.3946 50.9387 67.2071 51.1262L58.4596 59.8738C58.272 60.0613 58.1667 60.3157 58.1667 60.5809V64.1667L52.8333 69.5V60.5809C52.8333 60.3157 52.728 60.0613 52.5404 59.8738L43.7929 51.1262C43.6054 50.9387 43.5 50.6843 43.5 50.4191V46.5Z" stroke="white" stroke-width="2" stroke-linecap="round" stroke-linejoin="round"/>
<defs>
<filter id="filter0_d_515_965" x="0" y="0" width="111" height="111" filterUnits="userSpaceOnUse" color-interpolation-filters="sRGB">
<feFlood flood-opacity="0" result="BackgroundImageFix"/>
<feColorMatrix in="SourceAlpha" type="matrix" values="0 0 0 0 0 0 0 0 0 0 0 0 0 0 0 0 0 0 127 0" result="hardAlpha"/>
<feOffset/>
<feGaussianBlur stdDeviation="15"/>
<feComposite in2="hardAlpha" operator="out"/>
<feColorMatrix type="matrix" values="0 0 0 0 0.529412 0 0 0 0 0.054902 0 0 0 0 0.972549 0 0 0 0.7 0"/>
<feBlend mode="normal" in2="BackgroundImageFix" result="effect1_dropShadow_515_965"/>
<feBlend mode="normal" in="SourceGraphic" in2="effect1_dropShadow_515_965" result="shape"/>
</filter>
<clipPath id="clip0_515_965">
<rect width="40" height="40" fill="white" transform="translate(35.5 35.5)"/>
</clipPath>
</defs>
</svg>
