<svg width="51" height="51" viewBox="0 0 51 51" fill="none" xmlns="http://www.w3.org/2000/svg">
<circle cx="25.5" cy="25.5" r="24.25" fill="#440472" fill-opacity="0.25" stroke="#440472" stroke-width="2.5"/>
<g opacity="0.1" clip-path="url(#clip0_644_1306)">
<path d="M41.52 30.5C41.1775 28.53 40.8519 26.6625 39.2075 25.5C40.8494 24.34 41.175 22.4725 41.52 20.5C41.6988 18.9695 42.1463 17.4825 42.8419 16.1075C42.8886 16.0118 42.9111 15.9062 42.9075 15.7998C42.9038 15.6934 42.8741 15.5895 42.8209 15.4973C42.7677 15.4051 42.6926 15.3274 42.6024 15.271C42.5121 15.2145 42.4093 15.1812 42.3031 15.1737C40.7645 15.0896 39.2528 14.7345 37.8375 14.125C35.9625 13.4375 34.1806 12.785 32.355 13.625C32.1713 11.625 30.7169 10.4069 29.1825 9.125C27.9463 8.20569 26.8821 7.07544 26.0388 5.78625C25.9792 5.69808 25.899 5.62586 25.8051 5.57594C25.7111 5.52602 25.6064 5.49991 25.5 5.49991C25.3936 5.49991 25.2889 5.52602 25.195 5.57594C25.101 5.62586 25.0208 5.69808 24.9613 5.78625C24.1179 7.07544 23.0537 8.20569 21.8175 9.125C20.2831 10.4087 18.8288 11.625 18.645 13.625C16.8194 12.7831 15.0394 13.4375 13.1625 14.125C11.7474 14.7354 10.2357 15.0913 8.69689 15.1762C8.59069 15.1837 8.48794 15.217 8.39767 15.2735C8.30739 15.3299 8.23236 15.4076 8.17916 15.4998C8.12595 15.592 8.09621 15.6959 8.09255 15.8023C8.08888 15.9087 8.11141 16.0143 8.15814 16.11C8.85345 17.4842 9.30093 18.9703 9.48001 20.5C9.82251 22.47 10.1481 24.3375 11.7925 25.5C10.1506 26.66 9.82501 28.5275 9.48001 30.5C9.30114 32.0305 8.85366 33.5175 8.15814 34.8925C8.11141 34.9881 8.08888 35.0938 8.09255 35.2002C8.09621 35.3066 8.12595 35.4105 8.17916 35.5027C8.23236 35.5949 8.30739 35.6726 8.39767 35.729C8.48794 35.7854 8.59069 35.8188 8.69689 35.8262C10.2355 35.9104 11.7472 36.2655 13.1625 36.875C15.0375 37.5625 16.8194 38.215 18.645 37.375C18.8288 39.375 20.2831 40.5931 21.8175 41.875C23.0539 42.7951 24.1181 43.9262 24.9613 45.2162C25.0208 45.3044 25.101 45.3766 25.195 45.4266C25.2889 45.4765 25.3936 45.5026 25.5 45.5026C25.6064 45.5026 25.7111 45.4765 25.8051 45.4266C25.899 45.3766 25.9792 45.3044 26.0388 45.2162C26.8819 43.9262 27.9461 42.7951 29.1825 41.875C30.7169 40.5937 32.1713 39.3781 32.355 37.375C34.1806 38.2169 35.9606 37.5625 37.8375 36.875C39.2526 36.2646 40.7643 35.9087 42.3031 35.8238C42.4093 35.8163 42.5121 35.7829 42.6024 35.7265C42.6926 35.6701 42.7677 35.5924 42.8209 35.5002C42.8741 35.408 42.9038 35.3041 42.9075 35.1977C42.9111 35.0913 42.8886 34.9856 42.8419 34.89C42.1466 33.5157 41.6992 32.0297 41.52 30.5ZM37.4075 15.3012C38.6635 15.814 39.9771 16.1727 41.3194 16.3694C40.8186 17.63 40.4723 18.9467 40.2881 20.2906C39.9756 22.085 39.7138 23.5287 38.5694 24.4069C38.4077 22.482 37.823 20.6166 36.857 18.9438C35.891 17.271 34.5676 15.8322 32.9813 14.73C34.3125 14.1769 35.6969 14.6712 37.4075 15.2987V15.3012ZM22.6194 10.0869C23.6913 9.25547 24.6586 8.29723 25.5 7.23312C26.3414 8.29723 27.3087 9.25547 28.3806 10.0869C29.7813 11.2562 30.9013 12.2069 31.0869 13.6412C29.3424 12.8076 27.4334 12.375 25.5 12.375C23.5666 12.375 21.6576 12.8076 19.9131 13.6412C20.0988 12.2069 21.2188 11.2562 22.6194 10.0869ZM10.7119 20.2881C10.5277 18.9442 10.1815 17.6275 9.68064 16.3669C11.023 16.1702 12.3365 15.8115 13.5925 15.2987C15.3031 14.6737 16.6856 14.1737 18.0188 14.73C16.4327 15.8319 15.1095 17.2704 14.1435 18.9427C13.1776 20.615 12.5927 22.4799 12.4306 24.4044C11.2863 23.5262 11.0231 22.0825 10.7119 20.2881ZM13.5925 35.7012C12.3365 35.1885 11.023 34.8298 9.68064 34.6331C10.1815 33.3725 10.5277 32.0558 10.7119 30.7119C11.0244 28.9175 11.2863 27.4737 12.4306 26.5956C12.5927 28.5201 13.1776 30.385 14.1435 32.0573C15.1095 33.7296 16.4327 35.1681 18.0188 36.27C16.6875 36.8231 15.3031 36.3287 13.5925 35.7012ZM28.3806 40.9131C27.3087 41.7445 26.3414 42.7028 25.5 43.7669C24.6586 42.7028 23.6913 41.7445 22.6194 40.9131C21.2188 39.7437 20.0988 38.7931 19.9131 37.3587C21.6576 38.1923 23.5666 38.625 25.5 38.625C27.4334 38.625 29.3424 38.1923 31.0869 37.3587C30.9013 38.7931 29.7813 39.7437 28.3806 40.9131ZM25.5 37.375C23.1514 37.375 20.8554 36.6785 18.9026 35.3737C16.9498 34.0689 15.4277 32.2142 14.5289 30.0444C13.6302 27.8745 13.395 25.4868 13.8532 23.1833C14.3114 20.8798 15.4424 18.7639 17.1031 17.1031C18.7639 15.4424 20.8798 14.3114 23.1833 13.8532C25.4868 13.395 27.8745 13.6301 30.0444 14.5289C32.2142 15.4277 34.0689 16.9498 35.3737 18.9026C36.6786 20.8554 37.375 23.1513 37.375 25.5C37.3715 28.6484 36.1193 31.6668 33.8931 33.8931C31.6668 36.1193 28.6484 37.3715 25.5 37.375ZM37.4075 35.7012C35.6969 36.3262 34.315 36.8231 32.9813 36.27C34.5673 35.1681 35.8905 33.7296 36.8565 32.0573C37.8225 30.385 38.4073 28.5201 38.5694 26.5956C39.7138 27.4737 39.9769 28.9175 40.2881 30.7119C40.4723 32.0558 40.8186 33.3725 41.3194 34.6331C39.9771 34.8298 38.6635 35.1885 37.4075 35.7012Z" fill="white"/>
<path d="M25.5 14.875C23.3986 14.875 21.3443 15.4981 19.5971 16.6656C17.8498 17.8331 16.488 19.4925 15.6838 21.434C14.8796 23.3755 14.6692 25.5118 15.0792 27.5728C15.4891 29.6339 16.5011 31.5271 17.987 33.013C19.4729 34.4989 21.3661 35.5109 23.4272 35.9208C25.4882 36.3308 27.6246 36.1204 29.566 35.3162C31.5075 34.512 33.1669 33.1502 34.3344 31.4029C35.5019 29.6557 36.125 27.6014 36.125 25.5C36.1219 22.683 35.0014 19.9824 33.0095 17.9905C31.0177 15.9986 28.317 14.8781 25.5 14.875ZM25.5 16.125C26.8977 16.1252 28.2776 16.4385 29.5384 17.0419C30.7992 17.6453 31.9087 18.5234 32.7856 19.6119H18.2144C19.0913 18.5234 20.2008 17.6453 21.4616 17.0419C22.7224 16.4385 24.1023 16.1252 25.5 16.125ZM16.125 25.5C16.1267 24.1321 16.4297 22.7813 17.0125 21.5438L24.3969 34.8044C22.1193 34.5323 20.0201 33.4355 18.4961 31.7212C16.972 30.0069 16.1285 27.7938 16.125 25.5ZM18.0625 20.8619H32.9375L25.5 34.2156L18.0625 20.8619ZM26.6031 34.8044L33.9875 21.5438C34.6181 22.8858 34.9204 24.3587 34.8694 25.8406C34.8183 27.3226 34.4155 28.7712 33.694 30.0667C32.9726 31.3622 31.9533 32.4675 30.7204 33.2913C29.4874 34.1151 28.0761 34.6337 26.6031 34.8044Z" fill="white"/>
</g>
<path d="M13.5 16.5C13.5 15.9477 13.9477 15.5 14.5 15.5H36.5C37.0523 15.5 37.5 15.9477 37.5 16.5V20.4191C37.5 20.6843 37.3946 20.9387 37.2071 21.1262L28.4596 29.8738C28.272 30.0613 28.1667 30.3157 28.1667 30.5809V34.1667L22.8333 39.5V30.5809C22.8333 30.3157 22.728 30.0613 22.5404 29.8738L13.7929 21.1262C13.6054 20.9387 13.5 20.6843 13.5 20.4191V16.5Z" stroke="white" stroke-width="2" stroke-linecap="round" stroke-linejoin="round"/>
<defs>
<clipPath id="clip0_644_1306">
<rect width="40" height="40" fill="white" transform="translate(5.5 5.5)"/>
</clipPath>
</defs>
</svg>
