<svg width="24" height="24" viewBox="0 0 24 24" fill="none" xmlns="http://www.w3.org/2000/svg">
<path d="M20.9237 5.61696C20.8734 5.49573 20.7996 5.38562 20.7067 5.29296L17.7067 2.29296C17.6144 2.19745 17.5041 2.12127 17.3821 2.06886C17.2601 2.01645 17.1289 1.98886 16.9961 1.98771C16.8633 1.98655 16.7316 2.01186 16.6087 2.06214C16.4858 2.11242 16.3742 2.18667 16.2803 2.28056C16.1864 2.37446 16.1121 2.48611 16.0619 2.60901C16.0116 2.7319 15.9863 2.86358 15.9874 2.99636C15.9886 3.12914 16.0162 3.26036 16.0686 3.38236C16.121 3.50437 16.1972 3.61471 16.2927 3.70696L17.5857 4.99996H7.99968C6.6736 4.99996 5.40183 5.52674 4.46415 6.46443C3.52646 7.40211 2.99968 8.67388 2.99968 9.99996V12C2.99968 12.2652 3.10504 12.5195 3.29257 12.7071C3.48011 12.8946 3.73446 13 3.99968 13C4.2649 13 4.51925 12.8946 4.70679 12.7071C4.89432 12.5195 4.99968 12.2652 4.99968 12V9.99996C4.99968 9.20431 5.31575 8.44125 5.87836 7.87864C6.44097 7.31603 7.20403 6.99996 7.99968 6.99996H17.5857L16.2927 8.29296C16.1105 8.48156 16.0097 8.73416 16.012 8.99636C16.0143 9.25856 16.1195 9.50937 16.3049 9.69478C16.4903 9.88019 16.7411 9.98535 17.0033 9.98763C17.2655 9.98991 17.5181 9.88912 17.7067 9.70696L20.7067 6.70696C20.7997 6.61422 20.8734 6.50402 20.9237 6.38269C20.974 6.26136 20.9998 6.13129 20.9997 5.99996M20.9237 5.61696C20.9736 5.73743 20.9995 5.86654 20.9997 5.99696L20.9237 5.61696ZM3.07568 17.617C2.99957 17.7997 2.97957 18.0009 3.01821 18.195C3.05686 18.3891 3.1524 18.5673 3.29268 18.707L6.29268 21.707C6.48128 21.8891 6.73389 21.9899 6.99608 21.9876C7.25828 21.9854 7.50909 21.8802 7.6945 21.6948C7.87991 21.5094 7.98508 21.2586 7.98735 20.9964C7.98963 20.7342 7.88884 20.4816 7.70668 20.293L6.41368 19H15.9997C17.3258 19 18.5975 18.4732 19.5352 17.5355C20.4729 16.5978 20.9997 15.326 20.9997 14V12C20.9997 11.7347 20.8943 11.4804 20.7068 11.2929C20.5193 11.1053 20.2649 11 19.9997 11C19.7345 11 19.4801 11.1053 19.2926 11.2929C19.105 11.4804 18.9997 11.7347 18.9997 12V14C18.9997 14.7956 18.6836 15.5587 18.121 16.1213C17.5584 16.6839 16.7953 17 15.9997 17H6.41368L7.70668 15.707C7.80219 15.6147 7.87837 15.5044 7.93078 15.3824C7.98319 15.2604 8.01078 15.1291 8.01193 14.9964C8.01309 14.8636 7.98778 14.7319 7.9375 14.609C7.88722 14.4861 7.81297 14.3745 7.71908 14.2806C7.62518 14.1867 7.51353 14.1124 7.39063 14.0621C7.26774 14.0119 7.13606 13.9866 7.00328 13.9877C6.8705 13.9889 6.73928 14.0164 6.61728 14.0689C6.49527 14.1213 6.38493 14.1974 6.29268 14.293L3.29268 17.293M3.07568 17.617C3.12562 17.4966 3.19866 17.3872 3.29068 17.295L3.07568 17.617Z" fill="white"/>
</svg>
