<svg width="51" height="51" viewBox="0 0 51 51" fill="none" xmlns="http://www.w3.org/2000/svg">
<path d="M25.4941 50.2008C39.298 50.2008 50.4883 39.0749 50.4883 25.3504C50.4883 11.6259 39.298 0.5 25.4941 0.5C11.6903 0.5 0.5 11.6259 0.5 25.3504C0.5 39.0749 11.6903 50.2008 25.4941 50.2008Z" stroke="#B7B7B7"/>
<g clip-path="url(#clip0_923_6602)">
<path d="M29.2435 17.8984H21.7452C19.6746 17.8984 17.9961 19.5673 17.9961 21.626V29.0811C17.9961 31.1398 19.6746 32.8087 21.7452 32.8087H29.2435C31.314 32.8087 32.9926 31.1398 32.9926 29.0811V21.626C32.9926 19.5673 31.314 17.8984 29.2435 17.8984Z" stroke="white" stroke-width="2" stroke-linecap="round" stroke-linejoin="round"/>
<path d="M28.4935 24.8845C28.586 25.5049 28.4794 26.1386 28.1889 26.6953C27.8983 27.2521 27.4386 27.7036 26.8751 27.9856C26.3116 28.2676 25.673 28.3657 25.0501 28.2661C24.4273 28.1664 23.8519 27.874 23.4058 27.4305C22.9597 26.987 22.6657 26.4149 22.5654 25.7957C22.4652 25.1764 22.5639 24.5415 22.8476 23.9812C23.1312 23.4209 23.5853 22.9638 24.1453 22.675C24.7052 22.3861 25.3426 22.2801 25.9666 22.3721C26.6031 22.466 27.1924 22.7609 27.6475 23.2133C28.1025 23.6657 28.3991 24.2516 28.4935 24.8845Z" stroke="white" stroke-width="2" stroke-linecap="round" stroke-linejoin="round"/>
<ellipse cx="29.6172" cy="21.2511" rx="1.125" ry="1.11827" fill="white"/>
</g>
<defs>
<clipPath id="clip0_923_6602">
<rect width="17.9958" height="17.8923" fill="white" transform="translate(16.4961 16.4062)"/>
</clipPath>
</defs>
</svg>
