<svg width="24" height="24" viewBox="0 0 24 24" fill="none" xmlns="http://www.w3.org/2000/svg">
<g clip-path="url(#clip0_450_5713)">
<path d="M23.5891 4.29272C23.3706 2.24597 21.7542 0.62915 19.7073 0.410888C14.5741 -0.136963 9.4259 -0.136963 4.2929 0.410888C2.24597 0.629333 0.629333 2.24597 0.410888 4.29272C-0.136963 9.42571 -0.136963 14.5741 0.410888 19.7071C0.629333 21.754 2.24597 23.3706 4.29272 23.5891C9.42571 24.1369 14.5741 24.1369 19.7073 23.5891C21.7542 23.3706 23.3706 21.754 23.5891 19.7071C24.1369 14.5741 24.1369 9.4259 23.5891 4.29272Z" fill="url(#paint0_radial_450_5713)"/>
<path d="M22.2837 5.16079C22.09 3.34457 20.6555 1.90994 18.8391 1.71603C14.2842 1.23007 9.71572 1.23007 5.16079 1.71603C3.34457 1.90994 1.90994 3.34457 1.71603 5.16079C1.23007 9.71572 1.23007 14.2842 1.71603 18.8389C1.90994 20.6553 3.34457 22.09 5.16079 22.2837C9.71572 22.7698 14.2842 22.7698 18.8389 22.2837C20.6553 22.09 22.09 20.6553 22.2837 18.8389C22.7698 14.2842 22.7698 9.71572 22.2837 5.16079Z" fill="url(#paint1_linear_450_5713)"/>
<path d="M0.359619 19.2095C0.376099 19.3754 0.393127 19.5413 0.410889 19.7072C0.629333 21.7539 2.24597 23.3705 4.2929 23.589C9.4259 24.1368 14.5743 24.1368 19.7073 23.589C21.7542 23.3705 23.3706 21.7539 23.5891 19.7072C23.6069 19.5413 23.6239 19.3754 23.6405 19.2095H0.359619Z" fill="url(#paint2_linear_450_5713)"/>
<path d="M23.5892 19.7069C23.8836 16.9487 24.0195 14.1862 23.9975 11.4241L18.5116 5.93826C17.8263 5.15585 16.8252 4.66751 15.649 4.62521C13.23 4.53805 10.8033 4.54245 8.38391 4.62558C6.37451 4.69479 4.96936 6.04538 4.60901 8.03042C4.54547 8.38088 4.50739 8.73593 4.4574 9.08895V14.9084C4.48505 15.097 4.5257 15.2847 4.53833 15.4744C4.6189 16.6818 5.11511 17.716 5.90961 18.4156L11.4921 23.9979C14.2317 24.0172 16.9715 23.8809 19.7073 23.5889C21.7543 23.3704 23.3707 21.7538 23.5892 19.7069Z" fill="url(#paint3_linear_450_5713)"/>
<path d="M23.5892 19.707C23.3709 21.7536 21.7539 23.3706 19.7073 23.5889C16.9719 23.8807 14.2316 24.0171 11.4923 23.9979L5.91821 18.4238C6.56439 18.9894 7.40668 19.3339 8.38409 19.3707C10.8029 19.4615 13.2302 19.4591 15.649 19.3719C17.8367 19.2928 19.4199 17.6736 19.4881 15.4859C19.561 13.163 19.561 10.8341 19.4881 8.51123C19.457 7.50195 19.1027 6.61389 18.5153 5.94189L23.9977 11.4243C24.0193 14.186 23.8834 16.9489 23.5892 19.707Z" fill="url(#paint4_linear_450_5713)"/>
<path d="M14.8319 9.40106C14.1291 8.63586 13.1208 8.15576 12 8.15576C9.87707 8.15576 8.15588 9.87695 8.15588 11.9999C8.15588 13.1207 8.63599 14.129 9.40118 14.8318L18.2952 23.7258C18.7659 23.6847 19.2367 23.6391 19.7071 23.589C21.754 23.3705 23.3707 21.7539 23.5891 19.707C23.6393 19.2366 23.6849 18.7658 23.7259 18.295L14.8319 9.40106Z" fill="url(#paint5_linear_450_5713)"/>
<path d="M23.9534 14.5851L16.7955 7.42737C16.6285 7.20819 16.3654 7.06592 16.0685 7.06592C15.5635 7.06592 15.1539 7.47534 15.1539 7.98053C15.1539 8.27734 15.2962 8.54046 15.5154 8.70746L23.8254 17.0177C23.8818 16.2071 23.9245 15.3961 23.9534 14.5851Z" fill="url(#paint6_linear_450_5713)"/>
<path d="M4.4574 9.08895C4.50739 8.73593 4.54547 8.38088 4.60901 8.03042C4.96918 6.04538 6.37451 4.69479 8.38391 4.62558C10.8033 4.54245 13.23 4.53805 15.649 4.62521C17.836 4.70395 19.4198 6.32333 19.4881 8.51107C19.5608 10.8341 19.5608 13.1629 19.4881 15.4859C19.4198 17.6737 17.8365 19.2929 15.6492 19.3718C13.2302 19.4591 10.8029 19.4613 8.38409 19.3705C6.19671 19.2883 4.68463 17.6652 4.53833 15.4742C4.5257 15.2847 4.48505 15.0968 4.4574 14.9082C4.4574 12.9684 4.4574 11.0286 4.4574 9.08895ZM12.0021 18.0752C13.1091 18.0752 14.2173 18.1084 15.3229 18.0675C17.0563 18.0033 18.1225 16.9687 18.163 15.2369C18.2132 13.079 18.2132 10.9182 18.163 8.7601C18.1225 7.02865 17.0556 5.96994 15.3229 5.93313C13.1236 5.88662 10.9219 5.88699 8.72265 5.93313C7.00311 5.9692 5.93378 7.0065 5.88708 8.7189C5.82776 10.9041 5.82776 13.0931 5.88708 15.2783C5.93378 16.9905 7.00311 18.0038 8.72284 18.0675C9.81451 18.1082 10.9089 18.0752 12.0021 18.0752Z" fill="url(#paint7_linear_450_5713)"/>
<path d="M4.4574 9.08895C4.50739 8.73593 4.54547 8.38088 4.60901 8.03042C4.96918 6.04538 6.37451 4.69479 8.38391 4.62558C10.8033 4.54245 13.23 4.53805 15.649 4.62521C17.836 4.70395 19.4198 6.32333 19.4881 8.51107C19.5608 10.8341 19.5608 13.1629 19.4881 15.4859C19.4198 17.6737 17.8365 19.2929 15.6492 19.3718C13.2302 19.4591 10.8029 19.4613 8.38409 19.3705C6.19671 19.2883 4.68463 17.6652 4.53833 15.4742C4.5257 15.2847 4.48505 15.0968 4.4574 14.9082C4.4574 12.9684 4.4574 11.0286 4.4574 9.08895ZM12.0021 18.0752C13.1091 18.0752 14.2173 18.1084 15.3229 18.0675C17.0563 18.0033 18.1225 16.9687 18.163 15.2369C18.2132 13.079 18.2132 10.9182 18.163 8.7601C18.1225 7.02865 17.0556 5.96994 15.3229 5.93313C13.1236 5.88662 10.9219 5.88699 8.72265 5.93313C7.00311 5.9692 5.93378 7.0065 5.88708 8.7189C5.82776 10.9041 5.82776 13.0931 5.88708 15.2783C5.93378 16.9905 7.00311 18.0038 8.72284 18.0675C9.81451 18.1082 10.9089 18.0752 12.0021 18.0752Z" fill="white"/>
<path d="M12 8.15576C9.87707 8.15576 8.15588 9.87677 8.15588 11.9997C8.15588 14.1228 9.87707 15.8438 12 15.8438C14.1231 15.8438 15.8441 14.1228 15.8441 11.9997C15.8441 9.87677 14.1231 8.15576 12 8.15576ZM12 14.5203C10.6078 14.5203 9.47937 13.3918 9.47937 11.9997C9.47937 10.6075 10.6078 9.47906 12 9.47906C13.3921 9.47906 14.5206 10.6075 14.5206 11.9997C14.5206 13.3918 13.3921 14.5203 12 14.5203Z" fill="white"/>
<path d="M16.9831 7.98053C16.9831 8.48553 16.5737 8.89496 16.0687 8.89496C15.5637 8.89496 15.1541 8.48553 15.1541 7.98053C15.1541 7.47534 15.5637 7.06592 16.0687 7.06592C16.5737 7.06592 16.9831 7.47534 16.9831 7.98053Z" fill="white"/>
</g>
<defs>
<radialGradient id="paint0_radial_450_5713" cx="0" cy="0" r="1" gradientUnits="userSpaceOnUse" gradientTransform="translate(4.91986 20.9741) scale(26.4678)">
<stop stop-color="#FAE100"/>
<stop offset="0.0544" stop-color="#FADC04"/>
<stop offset="0.1167" stop-color="#FBCE0E"/>
<stop offset="0.1829" stop-color="#FCB720"/>
<stop offset="0.2514" stop-color="#FE9838"/>
<stop offset="0.3054" stop-color="#FF7950"/>
<stop offset="0.4922" stop-color="#FF1C74"/>
<stop offset="1" stop-color="#6C1CD1"/>
</radialGradient>
<linearGradient id="paint1_linear_450_5713" x1="9.20493" y1="10.4278" x2="-31.4539" y2="-12.4428" gradientUnits="userSpaceOnUse">
<stop stop-color="#A1B5D8" stop-opacity="0"/>
<stop offset="0.3094" stop-color="#90A2BD" stop-opacity="0.309804"/>
<stop offset="0.7554" stop-color="#7C8B9C" stop-opacity="0.756863"/>
<stop offset="1" stop-color="#748290"/>
</linearGradient>
<linearGradient id="paint2_linear_450_5713" x1="12" y1="21.1858" x2="12" y2="24.9268" gradientUnits="userSpaceOnUse">
<stop stop-color="#FAE100" stop-opacity="0"/>
<stop offset="0.3068" stop-color="#FCA800" stop-opacity="0.305882"/>
<stop offset="0.6275" stop-color="#FE7300" stop-opacity="0.627451"/>
<stop offset="0.8685" stop-color="#FF5200" stop-opacity="0.866667"/>
<stop offset="1" stop-color="#FF4500"/>
</linearGradient>
<linearGradient id="paint3_linear_450_5713" x1="10.6347" y1="10.6005" x2="4.69509" y2="4.66085" gradientUnits="userSpaceOnUse">
<stop stop-color="#833AB4" stop-opacity="0"/>
<stop offset="1" stop-color="#833AB4"/>
</linearGradient>
<linearGradient id="paint4_linear_450_5713" x1="16.4485" y1="21.9507" x2="13.4839" y2="7.97495" gradientUnits="userSpaceOnUse">
<stop stop-color="#833AB4" stop-opacity="0"/>
<stop offset="1" stop-color="#833AB4"/>
</linearGradient>
<linearGradient id="paint5_linear_450_5713" x1="17.5765" y1="17.5764" x2="5.66911" y2="5.66898" gradientUnits="userSpaceOnUse">
<stop stop-color="#833AB4" stop-opacity="0"/>
<stop offset="1" stop-color="#833AB4"/>
</linearGradient>
<linearGradient id="paint6_linear_450_5713" x1="18.4596" y1="10.3716" x2="14.5221" y2="6.43405" gradientUnits="userSpaceOnUse">
<stop stop-color="#833AB4" stop-opacity="0"/>
<stop offset="1" stop-color="#833AB4"/>
</linearGradient>
<linearGradient id="paint7_linear_450_5713" x1="16.7653" y1="7.26773" x2="7.05674" y2="16.9763" gradientUnits="userSpaceOnUse">
<stop stop-color="#833AB4"/>
<stop offset="0.0922" stop-color="#9C3495"/>
<stop offset="0.2927" stop-color="#DC2546"/>
<stop offset="0.392" stop-color="#FD1D1D"/>
<stop offset="0.5589" stop-color="#FC6831"/>
<stop offset="0.6887" stop-color="#FC9B40"/>
<stop offset="0.7521" stop-color="#FCAF45"/>
<stop offset="0.7806" stop-color="#FDB750"/>
<stop offset="0.8656" stop-color="#FECB6A"/>
<stop offset="0.9415" stop-color="#FFD87A"/>
<stop offset="1" stop-color="#FFDC80"/>
</linearGradient>
<clipPath id="clip0_450_5713">
<rect width="24" height="24" fill="white"/>
</clipPath>
</defs>
</svg>
