<svg width="111" height="111" viewBox="0 0 111 111" fill="none" xmlns="http://www.w3.org/2000/svg">
<g opacity="0.1" clip-path="url(#clip0_515_968)">
<path d="M55.5 44.0975C49.2126 44.0975 44.0975 49.2126 44.0975 55.5C44.6707 70.6062 66.3316 70.6021 66.9025 55.4998C66.9025 49.2126 61.7874 44.0975 55.5 44.0975ZM63.2634 49.4604H58.9863L56.8448 45.7516C59.4436 46.1083 61.7221 47.4835 63.2634 49.4604ZM65.34 55.5C65.34 56.8111 65.0823 58.063 64.6148 59.2079L62.4738 55.5L64.6148 51.792C65.0823 52.9369 65.34 54.189 65.34 55.5ZM53.818 61.5397H57.1821L55.5 64.4527L53.818 61.5397ZM52.9158 59.9772L50.3305 55.5L52.9158 51.0228H58.0843L60.6695 55.5L58.0842 59.9772H52.9158ZM45.66 55.5C45.66 54.1889 45.9177 52.9369 46.3852 51.792L48.5262 55.5L46.3852 59.2079C45.9177 58.063 45.66 56.8111 45.66 55.5ZM47.7454 51.0229H51.1115L49.4284 53.9376L47.7454 51.0229ZM49.4284 57.0624L51.1115 59.9772H47.7454L49.4284 57.0624ZM57.1821 49.4604H53.818L55.5 46.5473L57.1821 49.4604ZM59.8886 51.0229H63.2547L61.5716 53.9376L59.8886 51.0229ZM61.5716 57.0624L63.2547 59.9772H59.8886L61.5716 57.0624ZM54.1552 45.7516L52.0137 49.4604H47.7366C49.278 47.4835 51.5565 46.1083 54.1552 45.7516ZM47.7366 61.5397H52.0137L54.1552 65.2485C51.5565 64.8918 49.278 63.5165 47.7366 61.5397ZM56.8448 65.2484L58.9863 61.5396H63.2634C61.7221 63.5165 59.4436 64.8918 56.8448 65.2484Z" fill="white"/>
<path d="M75.3273 60.1598C74.9578 59.7006 74.6605 59.1203 74.3459 58.5059C73.8124 57.4642 73.1977 56.2644 72.0612 55.4993C73.1973 54.7345 73.8118 53.5352 74.3455 52.4938C74.6602 51.8796 74.9577 51.2993 75.3273 50.8402C75.4835 50.646 75.5378 50.3889 75.4733 50.1481C75.4088 49.9074 75.2334 49.7118 75.0009 49.6218C74.4513 49.4089 73.9037 49.0549 73.324 48.6803C72.3409 48.0449 71.209 47.313 69.842 47.2188C70.4435 45.9884 70.3761 44.6425 70.3176 43.4739C70.2831 42.7845 70.2506 42.1333 70.3411 41.5509C70.4335 41.0462 69.954 40.5668 69.4493 40.6589C67.608 40.8948 65.6523 40.2367 63.7801 41.1573C63.6411 39.0762 62.0939 37.7114 61.3782 35.9992C61.2883 35.7668 61.0928 35.5912 60.852 35.5267C60.6113 35.4622 60.3541 35.5165 60.16 35.6726C59.7007 36.0422 59.1204 36.3394 58.5061 36.654C57.4643 37.1876 56.2645 37.8022 55.4995 38.9388C54.7347 37.8027 53.5354 37.1882 52.494 36.6545C51.8797 36.3397 51.2996 36.0423 50.8404 35.6727C50.6463 35.5165 50.3894 35.4621 50.1484 35.5266C49.9076 35.5911 49.7121 35.7666 49.6221 35.999C49.409 36.5486 49.0552 37.0961 48.6804 37.6758C48.0451 38.6589 47.3133 39.791 47.219 41.1579C45.9886 40.5564 44.6426 40.6237 43.474 40.6824C42.7848 40.7168 42.1335 40.7496 41.5511 40.659C41.3048 40.6206 41.0549 40.7022 40.8787 40.8785C40.7025 41.0547 40.6208 41.3045 40.6591 41.5507C40.895 43.3921 40.2368 45.3475 41.1574 47.2199C39.7912 47.3142 38.6592 48.0456 37.6763 48.6805C37.0966 49.0551 36.5489 49.4089 35.9993 49.6217C35.7668 49.7117 35.5912 49.9072 35.5267 50.148C35.4622 50.3888 35.5164 50.6459 35.6727 50.84C36.0422 51.2992 36.3395 51.8796 36.6541 52.4939C37.1877 53.5356 37.8023 54.7355 38.9388 55.5005C37.8027 56.2653 37.1882 57.4646 36.6545 58.5059C36.3398 59.1202 36.0423 59.7005 35.6727 60.1596C35.5165 60.3538 35.4622 60.6109 35.5267 60.8516C35.5912 61.0924 35.7666 61.288 35.9991 61.378C36.5487 61.5909 37.0963 61.9448 37.676 62.3195C38.6591 62.9549 39.791 63.6868 41.158 63.781C40.5566 65.0114 40.624 66.3573 40.6824 67.5259C40.7169 68.2153 40.7495 68.8665 40.659 69.449C40.6208 69.6952 40.7023 69.9451 40.8785 70.1213C41.0548 70.2975 41.3045 70.3792 41.5508 70.341C42.1333 70.2505 42.7844 70.2833 43.4737 70.318C44.643 70.3767 45.9891 70.4444 47.2199 69.8426C47.3589 71.9237 48.9061 73.2884 49.6218 75.0007C49.7117 75.2332 49.9072 75.4087 50.1479 75.4733C50.3867 75.5376 50.6456 75.4841 50.84 75.3273C51.2993 74.9578 51.8796 74.6605 52.4939 74.3459C53.5357 73.8123 54.7355 73.1977 55.5005 72.0612C56.2654 73.1972 57.4646 73.8118 58.506 74.3454C59.1203 74.6603 59.7004 74.9576 60.1596 75.3272C60.3538 75.4836 60.6109 75.5377 60.8516 75.4733C61.0924 75.4089 61.2879 75.2333 61.3779 75.0009C61.591 74.4513 61.9448 73.9037 62.3196 73.3241C62.9549 72.3411 63.6867 71.2089 63.781 69.8421C65.6528 70.7623 67.6083 70.1048 69.4489 70.3411C69.6956 70.3794 69.9451 70.2977 70.1213 70.1215C70.2975 69.9453 70.3792 69.6955 70.341 69.4493C70.2506 68.8668 70.2833 68.2156 70.3179 67.5263C70.3767 66.3573 70.4444 65.0109 69.8426 63.7801C71.2088 63.6857 72.3409 62.9544 73.3237 62.3195C73.9034 61.9448 74.4511 61.5911 75.0007 61.3782C75.2332 61.2882 75.4088 61.0927 75.4733 60.852C75.5379 60.6112 75.4836 60.3541 75.3273 60.1598ZM72.4758 49.9925C72.8284 50.2204 73.1877 50.4528 73.5607 50.6605C73.3416 51.0268 73.1464 51.4077 72.9549 51.7813C72.2187 53.2178 71.6185 54.3888 70.0034 54.6585C69.8867 52.6253 69.3499 50.7028 68.4788 48.9766C70.0139 48.4011 71.1195 49.1159 72.4758 49.9925ZM55.5 68.465C48.3511 68.465 42.535 62.6489 42.535 55.4999C43.1868 38.3238 67.8157 38.3285 68.465 55.5001C68.4649 62.6489 62.6489 68.465 55.5 68.465ZM67.4478 42.2425C67.8672 42.2636 68.2945 42.285 68.7213 42.2786C68.6884 44.1591 69.2674 46.2425 67.6361 47.5225C66.5464 45.8704 65.1288 44.4528 63.4766 43.3633C64.5185 42.0953 65.8336 42.1612 67.4478 42.2425ZM59.2183 38.0447C59.592 37.8533 59.9728 37.6583 60.3393 37.4393C60.547 37.8122 60.7792 38.1716 61.0071 38.5242C61.8834 39.8806 62.5976 40.9861 62.0225 42.5207C60.2962 41.6497 58.3736 41.1131 56.3404 40.9965C56.6101 39.3807 57.7814 38.7808 59.2183 38.0447ZM49.9926 38.5241C50.2204 38.1715 50.4528 37.8122 50.6605 37.4393C51.0268 37.6584 51.4077 37.8536 51.7813 38.045C53.2179 38.7812 54.3889 39.3815 54.6586 40.9966C52.6254 41.1132 50.7028 41.65 48.9766 42.5211C48.4013 40.9861 49.1158 39.8805 49.9926 38.5241ZM42.2425 43.5521C42.2636 43.1329 42.2851 42.7055 42.2786 42.2787C44.159 42.3117 46.2428 41.7325 47.5226 43.3639C45.8704 44.4536 44.4529 45.8713 43.3633 47.5235C42.0953 46.4814 42.1614 45.1662 42.2425 43.5521ZM38.0448 51.7817C37.8534 51.408 37.6584 51.0271 37.4393 50.6607C37.8121 50.453 38.1716 50.2208 38.5242 49.993C39.8806 49.1167 40.9862 48.4025 42.5207 48.9776C41.6497 50.7039 41.113 52.6264 40.9966 54.6597C39.3808 54.3899 38.7809 53.2187 38.0448 51.7817ZM38.5241 61.0074C38.1716 60.7795 37.8122 60.5472 37.4392 60.3395C37.6584 59.9731 37.8535 59.5923 38.045 59.2187C38.7812 57.7821 39.3814 56.6112 40.9966 56.3414C41.1132 58.3747 41.65 60.2972 42.5212 62.0234C40.9862 62.5988 39.8805 61.8842 38.5241 61.0074ZM43.5522 68.7575C43.133 68.7364 42.7055 68.715 42.2787 68.7214C42.2853 68.2946 42.264 67.8672 42.243 67.448C42.1621 65.8342 42.0963 64.5191 43.3639 63.4774C44.4536 65.1295 45.8712 66.5471 47.5234 67.6366C46.4814 68.9047 45.1659 68.8384 43.5522 68.7575ZM51.7817 72.9552C51.4081 73.1466 51.0272 73.3417 50.6608 73.5607C50.453 73.1878 50.2208 72.8283 49.9929 72.4757C49.1166 71.1193 48.4025 70.0138 48.9776 68.4793C50.7039 69.3503 52.6265 69.8869 54.6597 70.0034C54.3899 71.6192 53.2186 72.2191 51.7817 72.9552ZM61.0074 72.4758C60.7795 72.8284 60.5471 73.1878 60.3394 73.5606C59.9731 73.3415 59.5922 73.1463 59.2186 72.9549C57.782 72.2187 56.6111 71.6186 56.3414 70.0033C58.3746 69.8867 60.2971 69.3499 62.0233 68.4788C62.5987 70.0139 61.8842 71.1194 61.0074 72.4758ZM68.7575 67.4478C68.7364 67.867 68.7149 68.2944 68.7214 68.7212C68.2944 68.7148 67.8671 68.7361 67.4479 68.757C65.8342 68.8379 64.5191 68.9037 63.4774 67.636C65.1296 66.5463 66.5471 65.1287 67.6367 63.4765C68.9047 64.5185 68.8386 65.8337 68.7575 67.4478ZM72.4758 61.007C71.1194 61.8834 70.0139 62.5977 68.4793 62.0223C69.3503 60.2961 69.8869 58.3735 70.0034 56.3403C71.6192 56.6101 72.2192 57.7813 72.9552 59.2183C73.1466 59.592 73.3416 59.9728 73.5607 60.3392C73.1879 60.547 72.8284 60.7791 72.4758 61.007Z" fill="white"/>
</g>
<g filter="url(#filter0_d_515_968)">
<circle cx="55.5" cy="55.5" r="23" fill="#FFFF37" fill-opacity="0.25" shape-rendering="crispEdges"/>
<circle cx="55.5" cy="55.5" r="24.25" stroke="#FFFF37" stroke-width="2.5" shape-rendering="crispEdges"/>
</g>
<path d="M55.5 47.5V44.8333M55.5 47.5C54.0272 47.5 52.8333 48.6939 52.8333 50.1666C52.8333 51.6394 54.0272 52.8333 55.5 52.8333M55.5 47.5C56.9728 47.5 58.1667 48.6939 58.1667 50.1666C58.1667 51.6394 56.9728 52.8333 55.5 52.8333M47.5 63.5C48.9728 63.5 50.1667 62.3061 50.1667 60.8333C50.1667 59.3606 48.9728 58.1666 47.5 58.1666M47.5 63.5C46.0272 63.5 44.8333 62.3061 44.8333 60.8333C44.8333 59.3606 46.0272 58.1666 47.5 58.1666M47.5 63.5V66.1666M47.5 58.1666V44.8333M55.5 52.8333V66.1666M63.5 63.5C64.9728 63.5 66.1667 62.3061 66.1667 60.8333C66.1667 59.3606 64.9728 58.1666 63.5 58.1666M63.5 63.5C62.0272 63.5 60.8333 62.3061 60.8333 60.8333C60.8333 59.3606 62.0272 58.1666 63.5 58.1666M63.5 63.5V66.1666M63.5 58.1666V44.8333" stroke="white" stroke-width="2" stroke-linecap="round" stroke-linejoin="round"/>
<defs>
<filter id="filter0_d_515_968" x="0" y="0" width="111" height="111" filterUnits="userSpaceOnUse" color-interpolation-filters="sRGB">
<feFlood flood-opacity="0" result="BackgroundImageFix"/>
<feColorMatrix in="SourceAlpha" type="matrix" values="0 0 0 0 0 0 0 0 0 0 0 0 0 0 0 0 0 0 127 0" result="hardAlpha"/>
<feOffset/>
<feGaussianBlur stdDeviation="15"/>
<feComposite in2="hardAlpha" operator="out"/>
<feColorMatrix type="matrix" values="0 0 0 0 1 0 0 0 0 1 0 0 0 0 0.215686 0 0 0 1 0"/>
<feBlend mode="normal" in2="BackgroundImageFix" result="effect1_dropShadow_515_968"/>
<feBlend mode="normal" in="SourceGraphic" in2="effect1_dropShadow_515_968" result="shape"/>
</filter>
<clipPath id="clip0_515_968">
<rect width="40" height="40" fill="white" transform="translate(35.5 35.5)"/>
</clipPath>
</defs>
</svg>
