<svg width="51" height="51" viewBox="0 0 51 51" fill="none" xmlns="http://www.w3.org/2000/svg">
<g opacity="0.1" clip-path="url(#clip0_644_1344)">
<path d="M25.5 14.0975C19.2126 14.0975 14.0975 19.2127 14.0975 25.5C14.6707 40.6063 36.3315 40.6021 36.9025 25.4998C36.9025 19.2127 31.7874 14.0975 25.5 14.0975ZM33.2634 19.4604H28.9863L26.8448 15.7516C29.4436 16.1083 31.7221 17.4835 33.2634 19.4604ZM35.34 25.5C35.34 26.8111 35.0822 28.0631 34.6147 29.208L32.4737 25.5L34.6148 21.792C35.0822 22.937 35.34 24.189 35.34 25.5ZM23.8179 31.5397H27.1821L25.5 34.4527L23.8179 31.5397ZM22.9158 29.9772L20.3305 25.5L22.9158 21.0228H28.0843L30.6694 25.5L28.0842 29.9772H22.9158ZM15.66 25.5C15.66 24.1889 15.9177 22.937 16.3852 21.792L18.5262 25.5L16.3851 29.208C15.9177 28.0631 15.66 26.8111 15.66 25.5ZM17.7454 21.0229H21.1115L19.4284 23.9377L17.7454 21.0229ZM19.4284 27.0624L21.1115 29.9772H17.7454L19.4284 27.0624ZM27.1821 19.4604H23.8179L25.5 16.5473L27.1821 19.4604ZM29.8886 21.0229H33.2547L31.5716 23.9377L29.8886 21.0229ZM31.5716 27.0624L33.2547 29.9772H29.8886L31.5716 27.0624ZM24.1551 15.7516L22.0136 19.4604H17.7365C19.2779 17.4835 21.5565 16.1083 24.1551 15.7516ZM17.7365 31.5397H22.0136L24.1551 35.2485C21.5565 34.8918 19.2779 33.5165 17.7365 31.5397ZM26.8448 35.2484L28.9863 31.5396H33.2634C31.7221 33.5165 29.4436 34.8918 26.8448 35.2484Z" fill="white"/>
<path d="M45.3273 30.1599C44.9578 29.7007 44.6605 29.1203 44.3459 28.506C43.8123 27.4643 43.1977 26.2644 42.0612 25.4993C43.1973 24.7345 43.8118 23.5352 44.3455 22.4939C44.6602 21.8796 44.9576 21.2993 45.3273 20.8402C45.4835 20.6461 45.5378 20.389 45.4733 20.1482C45.4088 19.9074 45.2334 19.7119 45.0009 19.6219C44.4512 19.4089 43.9037 19.055 43.324 18.6803C42.3409 18.0449 41.209 17.313 39.842 17.2188C40.4434 15.9884 40.3761 14.6426 40.3176 13.474C40.2831 12.7845 40.2505 12.1334 40.3411 11.5509C40.4334 11.0462 39.954 10.5669 39.4493 10.6589C37.608 10.8948 35.6523 10.2367 33.7801 11.1573C33.6411 9.07625 32.0939 7.71141 31.3782 5.99922C31.2883 5.7668 31.0928 5.59126 30.852 5.52673C30.6113 5.46219 30.3541 5.51649 30.1599 5.67266C29.7007 6.04219 29.1204 6.33946 28.5061 6.65407C27.4643 7.18766 26.2645 7.80227 25.4995 8.93883C24.7346 7.80274 23.5353 7.18821 22.494 6.65454C21.8797 6.33969 21.2996 6.04235 20.8403 5.67274C20.6463 5.51649 20.3894 5.46212 20.1484 5.52665C19.9076 5.5911 19.7121 5.76665 19.6221 5.99907C19.409 6.54868 19.0552 7.09618 18.6804 7.67586C18.045 8.65891 17.3132 9.79101 17.219 11.1579C15.9886 10.5564 14.6426 10.6237 13.474 10.6824C12.7848 10.7169 12.1335 10.7496 11.5511 10.659C11.3047 10.6206 11.0549 10.7022 10.8787 10.8785C10.7025 11.0548 10.6208 11.3045 10.659 11.5508C10.895 13.3922 10.2368 15.3475 11.1574 17.2199C9.79115 17.3143 8.6592 18.0456 7.67631 18.6805C7.09655 19.0551 6.54889 19.4089 5.99928 19.6218C5.76678 19.7118 5.59124 19.9072 5.52671 20.148C5.46218 20.3888 5.51639 20.6459 5.67264 20.8401C6.04217 21.2993 6.33944 21.8796 6.65413 22.494C7.18764 23.5357 7.80225 24.7355 8.93881 25.5005C7.80272 26.2654 7.18819 27.4646 6.65452 28.506C6.33975 29.1203 6.04233 29.7005 5.67272 30.1596C5.51647 30.3538 5.46218 30.6109 5.52671 30.8517C5.59116 31.0925 5.76663 31.288 5.99913 31.378C6.54874 31.591 7.09631 31.9449 7.676 32.3196C8.65912 32.955 9.791 33.6868 11.1579 33.781C10.5565 35.0114 10.624 36.3574 10.6824 37.526C10.7169 38.2153 10.7495 38.8665 10.659 39.449C10.6208 39.6953 10.7022 39.9451 10.8785 40.1213C11.0547 40.2975 11.3045 40.3792 11.5508 40.341C12.1333 40.2506 12.7844 40.2834 13.4737 40.318C14.6429 40.3767 15.9891 40.4444 17.2199 39.8426C17.3589 41.9237 18.9061 43.2884 19.6218 45.0007C19.7117 45.2332 19.9072 45.4088 20.1479 45.4733C20.3867 45.5376 20.6456 45.4841 20.84 45.3273C21.2993 44.9578 21.8796 44.6606 22.4939 44.3459C23.5357 43.8124 24.7355 43.1977 25.5005 42.0612C26.2653 43.1973 27.4646 43.8118 28.506 44.3455C29.1203 44.6603 29.7004 44.9577 30.1596 45.3273C30.3538 45.4836 30.6109 45.5377 30.8516 45.4734C31.0924 45.4089 31.2879 45.2334 31.3779 45.0009C31.591 44.4513 31.9448 43.9038 32.3195 43.3241C32.9549 42.3411 33.6867 41.2089 33.781 39.8421C35.6528 40.7624 37.6083 40.1048 39.4489 40.3411C39.6955 40.3795 39.9451 40.2978 40.1213 40.1216C40.2975 39.9453 40.3791 39.6956 40.3409 39.4493C40.2505 38.8668 40.2833 38.2156 40.3179 37.5263C40.3767 36.3574 40.4444 35.011 39.8426 33.7801C41.2088 33.6857 42.3409 32.9544 43.3237 32.3195C43.9034 31.9449 44.4511 31.5911 45.0007 31.3782C45.2332 31.2882 45.4087 31.0928 45.4733 30.852C45.5379 30.6112 45.4836 30.3541 45.3273 30.1599ZM42.4758 19.9926C42.8284 20.2204 43.1877 20.4528 43.5607 20.6605C43.3416 21.0269 43.1464 21.4077 42.9549 21.7813C42.2187 23.2179 41.6185 24.3888 40.0034 24.6586C39.8867 22.6254 39.3499 20.7028 38.4788 18.9766C40.0139 18.4012 41.1195 19.1159 42.4758 19.9926ZM25.5 38.465C18.3511 38.465 12.535 32.6489 12.535 25.5C13.1868 8.32383 37.8157 8.32852 38.465 25.5001C38.4649 32.6489 32.6488 38.465 25.5 38.465ZM37.4478 12.2425C37.8672 12.2636 38.2945 12.2851 38.7213 12.2786C38.6884 14.1591 39.2674 16.2425 37.6361 17.5226C36.5464 15.8705 35.1288 14.4529 33.4766 13.3634C34.5185 12.0953 35.8336 12.1612 37.4478 12.2425ZM29.2183 8.04477C29.592 7.85336 29.9728 7.65828 30.3392 7.4393C30.547 7.81219 30.7792 8.17164 31.0071 8.52422C31.8834 9.88062 32.5976 10.9862 32.0224 12.5207C30.2962 11.6497 28.3736 11.1131 26.3404 10.9966C26.6101 9.38078 27.7814 8.78078 29.2183 8.04477ZM19.9925 8.52414C20.2204 8.17156 20.4528 7.81219 20.6605 7.43938C21.0268 7.65844 21.4077 7.85367 21.7813 8.04508C23.2179 8.78125 24.3889 9.38148 24.6585 10.9966C22.6253 11.1133 20.7028 11.6501 18.9766 12.5212C18.4013 10.9861 19.1158 9.88054 19.9925 8.52414ZM12.2425 13.5522C12.2636 13.133 12.2851 12.7055 12.2786 12.2787C14.159 12.3117 16.2428 11.7326 17.5225 13.364C15.8704 14.4537 14.4529 15.8713 13.3633 17.5235C12.0953 16.4815 12.1614 15.1662 12.2425 13.5522ZM8.04483 21.7817C7.85342 21.408 7.65834 21.0272 7.43928 20.6608C7.81209 20.453 8.17162 20.2208 8.5242 19.993C9.8806 19.1168 10.9861 18.4025 12.5207 18.9776C11.6497 20.7039 11.113 22.6265 10.9965 24.6597C9.38076 24.3899 8.78084 23.2187 8.04483 21.7817ZM8.52412 31.0075C8.17155 30.7796 7.81217 30.5472 7.4392 30.3395C7.65834 29.9732 7.8535 29.5923 8.04498 29.2187C8.78123 27.7821 9.38139 26.6112 10.9965 26.3414C11.1132 28.3747 11.65 30.2972 12.5211 32.0234C10.9862 32.5989 9.88053 31.8843 8.52412 31.0075ZM13.5522 38.7575C13.1329 38.7364 12.7054 38.715 12.2787 38.7214C12.2853 38.2946 12.264 37.8672 12.2429 37.448C12.1621 35.8342 12.0963 34.5192 13.3639 33.4775C14.4536 35.1296 15.8712 36.5471 17.5234 37.6367C16.4814 38.9047 15.1659 38.8385 13.5522 38.7575ZM21.7817 42.9552C21.4081 43.1467 21.0271 43.3417 20.6607 43.5607C20.453 43.1878 20.2207 42.8283 19.9929 42.4757C19.1166 41.1193 18.4025 40.0138 18.9776 38.4793C20.7039 39.3503 22.6264 39.887 24.6597 40.0035C24.3899 41.6192 23.2186 42.2192 21.7817 42.9552ZM31.0074 42.4759C30.7795 42.8284 30.5471 43.1878 30.3394 43.5606C29.9731 43.3416 29.5922 43.1463 29.2186 42.9549C27.782 42.2188 26.611 41.6186 26.3414 40.0034C28.3746 39.8867 30.2971 39.3499 32.0233 38.4788C32.5987 40.0139 31.8842 41.1195 31.0074 42.4759ZM38.7575 37.4478C38.7364 37.8671 38.7149 38.2945 38.7214 38.7213C38.2944 38.7148 37.8671 38.7361 37.4479 38.7571C35.8342 38.8379 34.5191 38.9037 33.4774 37.636C35.1295 36.5464 36.5471 35.1287 37.6366 33.4765C38.9047 34.5185 38.8386 35.8338 38.7575 37.4478ZM42.4758 31.007C41.1194 31.8834 40.0139 32.5977 38.4793 32.0224C39.3503 30.2961 39.8869 28.3736 40.0034 26.3404C41.6192 26.6101 42.2191 27.7814 42.9552 29.2183C43.1466 29.592 43.3416 29.9728 43.5607 30.3393C43.1879 30.547 42.8284 30.7792 42.4758 31.007Z" fill="white"/>
</g>
<circle cx="25.5" cy="25.5" r="24.25" fill="#FFFF37" fill-opacity="0.25" stroke="#FFFF37" stroke-width="2.5"/>
<path d="M25.5 17.5V14.8333M25.5 17.5C24.0273 17.5 22.8333 18.6939 22.8333 20.1667C22.8333 21.6394 24.0273 22.8333 25.5 22.8333M25.5 17.5C26.9728 17.5 28.1667 18.6939 28.1667 20.1667C28.1667 21.6394 26.9728 22.8333 25.5 22.8333M17.5 33.5C18.9728 33.5 20.1667 32.3061 20.1667 30.8333C20.1667 29.3606 18.9728 28.1667 17.5 28.1667M17.5 33.5C16.0273 33.5 14.8333 32.3061 14.8333 30.8333C14.8333 29.3606 16.0273 28.1667 17.5 28.1667M17.5 33.5V36.1667M17.5 28.1667V14.8333M25.5 22.8333V36.1667M33.5 33.5C34.9728 33.5 36.1667 32.3061 36.1667 30.8333C36.1667 29.3606 34.9728 28.1667 33.5 28.1667M33.5 33.5C32.0272 33.5 30.8333 32.3061 30.8333 30.8333C30.8333 29.3606 32.0272 28.1667 33.5 28.1667M33.5 33.5V36.1667M33.5 28.1667V14.8333" stroke="white" stroke-width="2" stroke-linecap="round" stroke-linejoin="round"/>
<defs>
<clipPath id="clip0_644_1344">
<rect width="40" height="40" fill="white" transform="translate(5.5 5.5)"/>
</clipPath>
</defs>
</svg>
