<svg width="18" height="18" viewBox="0 0 18 18" fill="none" xmlns="http://www.w3.org/2000/svg">
<path d="M2.08753 16.4772C-0.647998 16.3901 -0.64735 12.424 2.08757 12.3373C4.82307 12.4244 4.82242 16.3905 2.08753 16.4772ZM2.08753 13.3497C0.689942 13.3942 0.690266 15.4205 2.08757 15.4648C3.48516 15.4203 3.4848 13.394 2.08753 13.3497Z" fill="white"/>
<path d="M17.4756 16.4583H5.64389C5.36435 16.4583 5.1377 16.2317 5.1377 15.9521V12.8623C5.1377 12.5828 5.36435 12.3561 5.64389 12.3561H17.4756C17.7551 12.3561 17.9818 12.5828 17.9818 12.8623V15.9521C17.9818 16.2317 17.7551 16.4583 17.4756 16.4583ZM6.15009 15.4459H16.9694V13.3685H6.15009V15.4459Z" fill="white"/>
<path d="M2.08752 11.07C-0.647975 10.9829 -0.647363 7.01673 2.08756 6.93011C4.82309 7.01713 4.82241 10.9834 2.08752 11.07ZM2.08752 7.94251C0.689893 7.98697 0.690289 10.0134 2.08756 10.0576C3.48511 10.0132 3.48483 7.98675 2.08752 7.94251Z" fill="white"/>
<path d="M17.4756 11.0512H5.64389C5.36435 11.0512 5.1377 10.8245 5.1377 10.545V7.45511C5.1377 7.17553 5.36435 6.94891 5.64389 6.94891H17.4756C17.7551 6.94891 17.9818 7.17553 17.9818 7.45511V10.545C17.9818 10.8246 17.7551 11.0512 17.4756 11.0512ZM6.15009 10.0388H16.9694V7.96131H6.15009V10.0388Z" fill="white"/>
<path d="M2.08753 5.66271C-0.647998 5.5757 -0.64735 1.6095 2.08757 1.52289C4.82307 1.6099 4.82242 5.57609 2.08753 5.66271ZM2.08753 2.53528C0.689942 2.57974 0.690266 4.60607 2.08757 4.65035C3.48516 4.60586 3.4848 2.57952 2.08753 2.53528Z" fill="white"/>
<path d="M17.4756 5.64389H5.64389C5.36435 5.64389 5.1377 5.41727 5.1377 5.13769V2.04788C5.1377 1.76831 5.36435 1.54169 5.64389 1.54169H17.4756C17.7551 1.54169 17.9818 1.76831 17.9818 2.04788V5.13769C17.9818 5.41727 17.7551 5.64389 17.4756 5.64389ZM6.15009 4.63153H16.9694V2.55408H6.15009V4.63153Z" fill="white"/>
</svg>
