<svg width="22" height="22" viewBox="0 0 22 22" fill="none" xmlns="http://www.w3.org/2000/svg">
<path d="M15.5836 5.41197C13.2352 3.13695 13.1971 0.393515 13.1971 0.366745C13.1971 0.164272 13.0328 0 12.8304 0C12.6279 0 12.4636 0.164315 12.4636 0.366745V4.43639V15.6751C11.356 14.5518 9.18038 14.3302 7.15213 15.2512C5.74926 15.8886 4.65556 16.9702 4.22608 18.1449C3.94587 18.9119 3.96237 19.6626 4.27304 20.3162C4.79091 21.4051 6.04708 22 7.51269 22C8.33168 22 9.2163 21.8141 10.0735 21.4249C11.4763 20.7874 12.5704 19.7059 12.9995 18.5311C13.1763 18.047 13.1976 17.5573 13.1976 17.0501C13.1976 16.775 13.1976 16.5003 13.1976 16.2253C13.1976 15.8325 13.1976 15.4397 13.1976 15.0472C13.1976 14.5781 13.1976 14.1094 13.1976 13.6403C13.1976 13.1368 13.1976 12.6332 13.1976 12.1293C13.1976 11.6323 13.1976 11.1357 13.1976 10.6387C13.1976 10.1902 13.1976 9.742 13.1976 9.29344C13.1976 8.93474 13.1976 8.57641 13.1976 8.2177C13.1976 7.99069 13.1976 7.76364 13.1976 7.53625C13.1976 7.47721 13.1976 7.41778 13.1976 7.35874C13.5838 8.20378 14.1699 9.13244 15.0739 10.0082C16.936 11.812 17.2045 12.8635 17.2334 13.2321C17.2485 13.4236 17.4083 13.5699 17.5987 13.5699C17.6035 13.5699 17.6082 13.5699 17.6134 13.5696C17.8103 13.5619 17.9654 13.4001 17.9654 13.2032V9.55827C17.9959 9.27329 18.0186 7.77065 15.5836 5.41197Z" fill="white"/>
</svg>
