<svg width="46" height="46" viewBox="0 0 46 46" fill="none" xmlns="http://www.w3.org/2000/svg">
<circle cx="23" cy="23" r="21.5" fill="#17DCF5" stroke="black" stroke-width="3"/>
<path d="M19.875 14C19.1788 14 18.5111 14.2766 18.0188 14.7688C17.5266 15.2611 17.25 15.9288 17.25 16.625V29.375C17.25 30.0712 17.5266 30.7389 18.0188 31.2312C18.5111 31.7234 19.1788 32 19.875 32C20.5712 32 21.2389 31.7234 21.7312 31.2312C22.2234 30.7389 22.5 30.0712 22.5 29.375V16.625C22.5 15.9288 22.2234 15.2611 21.7312 14.7688C21.2389 14.2766 20.5712 14 19.875 14V14Z" fill="white"/>
<path d="M28.125 14C27.4288 14 26.7611 14.2766 26.2688 14.7688C25.7766 15.2611 25.5 15.9288 25.5 16.625V29.375C25.5 30.0712 25.7766 30.7389 26.2688 31.2312C26.7611 31.7234 27.4288 32 28.125 32C28.8212 32 29.4889 31.7234 29.9812 31.2312C30.4734 30.7389 30.75 30.0712 30.75 29.375V16.625C30.75 15.9288 30.4734 15.2611 29.9812 14.7688C29.4889 14.2766 28.8212 14 28.125 14V14Z" fill="white"/>
</svg>
