<svg width="18" height="18" viewBox="0 0 18 18" fill="none" xmlns="http://www.w3.org/2000/svg">
<g clip-path="url(#clip0_53_10888)">
<path d="M0.781237 9C1.16061 8.99504 1.48169 9.27911 1.523 9.65626C1.87312 13.7961 5.51292 16.8681 9.65271 16.518C13.7925 16.1679 16.8646 12.5281 16.5144 8.38828C16.1643 4.24849 12.5245 1.1764 8.38473 1.52652C6.59235 1.67811 4.91364 2.46695 3.65298 3.74998H5.99449C6.4087 3.74998 6.74448 4.08575 6.74448 4.49996C6.74448 4.91418 6.4087 5.24995 5.99449 5.24995H2.88724C2.11823 5.24953 1.49491 4.62621 1.49449 3.8572V0.749988C1.49449 0.335777 1.83027 0 2.24448 0C2.65869 0 2.99446 0.335777 2.99446 0.749988V2.3085C6.69624 -0.999316 12.3787 -0.679957 15.6865 3.02182C18.9943 6.7236 18.6749 12.406 14.9731 15.7138C11.2714 19.0216 5.58899 18.7022 2.28118 15.0005C0.995338 13.5615 0.206713 11.7469 0.0319862 9.82498C-0.00654411 9.40964 0.298929 9.04173 0.714264 9.0032C0.736519 9.00116 0.758842 9.00007 0.781237 9Z" fill="white"/>
</g>
<defs>
<clipPath id="clip0_53_10888">
<rect width="18" height="18" fill="white" transform="matrix(-1 0 0 1 18 0)"/>
</clipPath>
</defs>
</svg>
