<svg width="18" height="18" viewBox="0 0 18 18" fill="none" xmlns="http://www.w3.org/2000/svg">
<g clip-path="url(#clip0_53_10892)">
<path d="M15.369 5.97708L8.21551 0.731576C7.65677 0.32244 6.99566 0.0760103 6.30545 0.0196032C5.61524 -0.0368039 4.92289 0.0990147 4.30514 0.412004C3.6874 0.724994 3.16839 1.20293 2.80564 1.79283C2.44289 2.38273 2.25057 3.06156 2.25 3.75408V14.2503C2.24893 14.9435 2.44024 15.6234 2.80264 16.2143C3.16505 16.8052 3.68432 17.284 4.30268 17.5973C4.92103 17.9106 5.61419 18.0461 6.30501 17.9888C6.99583 17.9316 7.6572 17.6837 8.21551 17.2728L15.369 12.0273C15.8437 11.679 16.2296 11.2238 16.4957 10.6986C16.7617 10.1733 16.9003 9.59284 16.9003 9.00408C16.9003 8.41532 16.7617 7.83483 16.4957 7.3096C16.2296 6.78437 15.8437 6.32916 15.369 5.98083V5.97708Z" fill="white"/>
</g>
<defs>
<clipPath id="clip0_53_10892">
<rect width="18" height="18" fill="white"/>
</clipPath>
</defs>
</svg>
