<svg width="46" height="46" viewBox="0 0 46 46" fill="none" xmlns="http://www.w3.org/2000/svg">
<circle cx="23" cy="23" r="21.5" fill="#17DCF5" stroke="black" stroke-width="3"/>
<g clip-path="url(#clip0_618_1086)">
<path d="M30.369 19.9771L23.2155 14.7316C22.6568 14.3225 21.9957 14.0761 21.3055 14.0197C20.6152 13.9633 19.9229 14.0991 19.3051 14.4121C18.6874 14.7251 18.1684 15.203 17.8056 15.7929C17.4429 16.3828 17.2506 17.0616 17.25 17.7541V28.2504C17.2489 28.9436 17.4402 29.6235 17.8026 30.2144C18.165 30.8053 18.6843 31.284 19.3027 31.5973C19.921 31.9106 20.6142 32.0462 21.305 31.9889C21.9958 31.9316 22.6572 31.6838 23.2155 31.2729L30.369 26.0274C30.8437 25.6791 31.2296 25.2238 31.4957 24.6986C31.7617 24.1734 31.9003 23.5929 31.9003 23.0041C31.9003 22.4154 31.7617 21.8349 31.4957 21.3097C31.2296 20.7844 30.8437 20.3292 30.369 19.9809V19.9771Z" fill="white"/>
</g>
<defs>
<clipPath id="clip0_618_1086">
<rect width="18" height="18" fill="white" transform="translate(15 14)"/>
</clipPath>
</defs>
</svg>
