<svg width="41" height="41" viewBox="0 0 41 41" fill="none" xmlns="http://www.w3.org/2000/svg">
<circle cx="20.1507" cy="20.1507" r="19.1507" stroke="white" stroke-opacity="0.5" stroke-width="2"/>
<path d="M28.1651 21.3502C28.0932 21.4117 27.8216 21.6748 27.5687 21.8911C26.0859 23.2518 22.2177 25.479 20.193 26.1588C19.8855 26.2681 19.1082 26.4993 18.6928 26.5141C18.2949 26.5141 17.9155 26.4378 17.5534 26.2829C17.1022 26.0666 16.7401 25.7261 16.5418 25.3242C16.4141 25.0452 16.2157 24.2106 16.2157 24.1957C16.0173 23.2826 15.9082 21.7988 15.9082 20.1592C15.9082 18.597 16.0173 17.1737 16.1797 16.2468C16.1983 16.232 16.3967 15.1947 16.6137 14.8394C17.0116 14.1904 17.789 13.7874 18.6209 13.7874H18.6928C19.2346 13.8033 20.374 14.2063 20.374 14.2211C22.2896 14.902 26.0685 17.02 27.5873 18.4273C27.5873 18.4273 28.0151 18.789 28.201 19.0149C28.4911 19.3394 28.635 19.7414 28.635 20.1433C28.635 20.5919 28.4725 21.0098 28.1651 21.3502Z" fill="#17DCF5"/>
</svg>
