<svg width="51" height="51" viewBox="0 0 51 51" fill="none" xmlns="http://www.w3.org/2000/svg">
<circle cx="25.5" cy="25.5" r="24.25" fill="#131FFF" fill-opacity="0.25" stroke="#131FFF" stroke-width="2.5"/>
<g opacity="0.6" clip-path="url(#clip0_644_1312)">
<mask id="mask0_644_1312" style="mask-type:luminance" maskUnits="userSpaceOnUse" x="5" y="5" width="41" height="41">
<path d="M45 45V6H6V45H45Z" fill="white" stroke="white"/>
</mask>
<g mask="url(#mask0_644_1312)">
<path d="M20.719 13.0685C22.2037 12.4955 23.8157 12.1805 25.5 12.1805C27.1843 12.1805 28.7962 12.4955 30.281 13.0685L30.7481 12.2669C31.7393 10.5659 30.7595 8.41718 28.8344 8.005C27.817 7.78718 26.8342 7.31609 26.1384 6.40328C25.8159 5.98007 25.1842 5.98007 24.8616 6.40328C24.1659 7.31609 23.183 7.78718 22.1656 8.005C20.2405 8.41718 19.2607 10.5659 20.2519 12.2669L20.719 13.0685Z" stroke="#131FFF" stroke-miterlimit="10" stroke-linecap="round" stroke-linejoin="round"/>
<path d="M12.4318 19.8537L13.3297 20.0905C14.6694 17.0882 17.0882 14.6694 20.0904 13.3296L19.8537 12.4318C19.3518 10.5281 17.1397 9.70164 15.487 10.7714C14.6135 11.3367 13.5854 11.6987 12.4479 11.5452C11.9207 11.474 11.474 11.9207 11.5451 12.448C11.6986 13.5855 11.3368 14.6135 10.7715 15.487C9.70161 17.1397 10.5282 19.3518 12.4318 19.8537Z" stroke="#131FFF" stroke-miterlimit="10" stroke-linecap="round" stroke-linejoin="round"/>
<path d="M44.5968 24.8617C43.6839 24.1659 43.2128 23.1831 42.995 22.1656C42.5828 20.2405 40.4342 19.2608 38.7331 20.252L37.9315 20.7191C38.5045 22.2038 38.8195 23.8157 38.8195 25.5C38.8195 27.1843 38.5045 28.7963 37.9315 30.281L38.7331 30.7481C40.4342 31.7392 42.5828 30.7596 42.995 28.8345C43.2128 27.8171 43.6839 26.8342 44.5968 26.1384C45.0199 25.8159 45.0199 25.1842 44.5968 24.8617Z" stroke="#131FFF" stroke-miterlimit="10" stroke-linecap="round" stroke-linejoin="round"/>
<path d="M37.6704 20.0905L38.5682 19.8537C40.4718 19.3518 41.2983 17.1397 40.2286 15.487C39.6632 14.6135 39.3014 13.5855 39.4549 12.448C39.526 11.9207 39.0793 11.474 38.5521 11.5451C37.4147 11.6987 36.3865 11.3368 35.513 10.7714C33.8603 9.70163 31.6482 10.5282 31.1463 12.4319L30.9096 13.3296C33.9119 14.6694 36.3307 17.0881 37.6704 20.0905Z" stroke="#131FFF" stroke-miterlimit="10" stroke-linecap="round" stroke-linejoin="round"/>
<path d="M12.2669 30.7481L13.0685 30.281C12.4956 28.7963 12.1806 27.1843 12.1806 25.5C12.1806 23.8157 12.4956 22.2038 13.0685 20.719L12.2669 20.2519C10.5659 19.2607 8.4172 20.2405 8.00502 22.1656C7.7872 23.183 7.31611 24.1659 6.40322 24.8617C5.9801 25.1842 5.9801 25.8159 6.40322 26.1384C7.31611 26.8342 7.7872 27.817 8.00502 28.8344C8.4172 30.7595 10.5659 31.7393 12.2669 30.7481Z" stroke="#131FFF" stroke-miterlimit="10" stroke-linecap="round" stroke-linejoin="round"/>
<path d="M38.5682 31.1463L37.6704 30.9096C36.3306 33.9118 33.9119 36.3306 30.9096 37.6704L31.1463 38.5682C31.6483 40.4718 33.8603 41.2984 35.513 40.2286C36.3865 39.6632 37.4146 39.3013 38.5521 39.4549C39.0794 39.526 39.526 39.0793 39.4549 38.552C39.3014 37.4146 39.6633 36.3864 40.2287 35.513C41.2984 33.8603 40.4719 31.6482 38.5682 31.1463Z" stroke="#131FFF" stroke-miterlimit="10" stroke-linecap="round" stroke-linejoin="round"/>
<path d="M30.281 37.9315C28.7962 38.5044 27.1844 38.8195 25.5001 38.8195C23.8157 38.8195 22.2037 38.5044 20.719 37.9315L20.2519 38.7331C19.2608 40.4342 20.2404 42.5827 22.1656 42.9949C23.183 43.2128 24.1659 43.6838 24.8616 44.5967C25.1842 45.0199 25.8159 45.0199 26.1384 44.5967C26.8342 43.6838 27.817 43.2128 28.8344 42.9949C30.7595 42.5827 31.7393 40.4342 30.7481 38.7331L30.281 37.9315Z" stroke="#131FFF" stroke-miterlimit="10" stroke-linecap="round" stroke-linejoin="round"/>
<path d="M13.3297 30.9096L12.4318 31.1463C10.5282 31.6482 9.70161 33.8603 10.7714 35.513C11.3368 36.3865 11.6986 37.4146 11.5451 38.5521C11.474 39.0793 11.9207 39.5261 12.4479 39.4549C13.5854 39.3014 14.6135 39.6632 15.487 40.2286C17.1397 41.2984 19.3518 40.4718 19.8537 38.5682L20.0904 37.6704C17.0882 36.3307 14.6693 33.9119 13.3297 30.9096Z" stroke="#131FFF" stroke-miterlimit="10" stroke-linecap="round" stroke-linejoin="round"/>
<path d="M25.5 12.1805C18.1556 12.1805 12.1805 18.1556 12.1805 25.5C12.1805 32.8445 18.1556 38.8195 25.5 38.8195C32.8444 38.8195 38.8195 32.8445 38.8195 25.5C38.8195 18.1556 32.8444 12.1805 25.5 12.1805Z" stroke="#131FFF" stroke-miterlimit="10" stroke-linecap="round" stroke-linejoin="round"/>
<path d="M24.1329 14.6106C18.7237 15.2851 14.5243 19.9112 14.5243 25.5001C14.5243 31.5512 19.4473 36.4743 25.4985 36.4743C31.5498 36.4743 36.4728 31.5512 36.4728 25.5001C36.4728 19.9122 32.2749 15.2867 26.8672 14.6109" stroke="#131FFF" stroke-miterlimit="10" stroke-linecap="round" stroke-linejoin="round"/>
<path d="M30.6861 27.6062L35.0629 20.1242H15.9342L25.4985 36.4743L29.3052 29.9669" stroke="#131FFF" stroke-miterlimit="10" stroke-linecap="round" stroke-linejoin="round"/>
</g>
</g>
<path d="M21.5 34.8333V17.5L37.5 13.5V30.8333M21.5 34.8333C21.5 36.3061 19.7091 37.5 17.5 37.5C15.2909 37.5 13.5 36.3061 13.5 34.8333C13.5 33.3606 15.2909 32.1667 17.5 32.1667C19.7091 32.1667 21.5 33.3606 21.5 34.8333ZM37.5 30.8333C37.5 32.3061 35.7091 33.5 33.5 33.5C31.2909 33.5 29.5 32.3061 29.5 30.8333C29.5 29.3606 31.2909 28.1667 33.5 28.1667C35.7091 28.1667 37.5 29.3606 37.5 30.8333ZM21.5 22.8333L37.5 18.8333" stroke="white" stroke-width="2" stroke-linecap="round" stroke-linejoin="round"/>
<defs>
<clipPath id="clip0_644_1312">
<rect width="40" height="40" fill="white" transform="translate(5.5 5.5)"/>
</clipPath>
</defs>
</svg>
