<svg width="18" height="18" viewBox="0 0 18 18" fill="none" xmlns="http://www.w3.org/2000/svg">
<g clip-path="url(#clip0_53_10916)">
<path d="M2.63099 5.97708L9.78449 0.731576C10.3432 0.32244 11.0043 0.0760103 11.6945 0.0196032C12.3848 -0.0368039 13.0771 0.0990147 13.6949 0.412004C14.3126 0.724994 14.8316 1.20293 15.1944 1.79283C15.5571 2.38273 15.7494 3.06156 15.75 3.75408V14.2503C15.7511 14.9435 15.5598 15.6234 15.1974 16.2143C14.835 16.8052 14.3157 17.284 13.6973 17.5973C13.079 17.9106 12.3858 18.0461 11.695 17.9888C11.0042 17.9316 10.3428 17.6837 9.78449 17.2728L2.63099 12.0273C2.15633 11.679 1.77036 11.2238 1.50432 10.6986C1.23829 10.1733 1.09966 9.59284 1.09966 9.00408C1.09966 8.41532 1.23829 7.83483 1.50432 7.3096C1.77036 6.78437 2.15633 6.32916 2.63099 5.98083V5.97708Z" fill="white"/>
</g>
<rect width="1" height="18" fill="white"/>
<defs>
<clipPath id="clip0_53_10916">
<rect width="18" height="18" fill="white" transform="matrix(-1 0 0 1 18 0)"/>
</clipPath>
</defs>
</svg>
