<svg width="111" height="111" viewBox="0 0 111 111" fill="none" xmlns="http://www.w3.org/2000/svg">
<g filter="url(#filter0_d_515_966)">
<circle cx="55.5" cy="55.5" r="23" fill="#131FFF" fill-opacity="0.25" shape-rendering="crispEdges"/>
<circle cx="55.5" cy="55.5" r="24.25" stroke="#131FFF" stroke-width="2.5" shape-rendering="crispEdges"/>
</g>
<g opacity="0.6" clip-path="url(#clip0_515_966)">
<mask id="mask0_515_966" style="mask-type:luminance" maskUnits="userSpaceOnUse" x="35" y="35" width="41" height="41">
<path d="M75 75V36H36V75H75Z" fill="white" stroke="white"/>
</mask>
<g mask="url(#mask0_515_966)">
<path d="M50.719 43.0685C52.2037 42.4955 53.8157 42.1805 55.5001 42.1805C57.1843 42.1805 58.7962 42.4955 60.281 43.0685L60.7481 42.2669C61.7393 40.5659 60.7595 38.4172 58.8344 38.005C57.817 37.7872 56.8342 37.3161 56.1384 36.4033C55.8159 35.9801 55.1842 35.9801 54.8616 36.4033C54.1659 37.3161 53.183 37.7872 52.1656 38.005C50.2405 38.4172 49.2608 40.5659 50.2519 42.2669L50.719 43.0685Z" stroke="#131FFF" stroke-miterlimit="10" stroke-linecap="round" stroke-linejoin="round"/>
<path d="M42.4318 49.8537L43.3296 50.0905C44.6694 47.0882 47.0882 44.6694 50.0904 43.3296L49.8537 42.4318C49.3518 40.5281 47.1397 39.7016 45.487 40.7714C44.6135 41.3367 43.5854 41.6987 42.4479 41.5451C41.9207 41.474 41.474 41.9207 41.5451 42.448C41.6986 43.5855 41.3368 44.6135 40.7714 45.4869C39.7016 47.1397 40.5282 49.3518 42.4318 49.8537Z" stroke="#131FFF" stroke-miterlimit="10" stroke-linecap="round" stroke-linejoin="round"/>
<path d="M74.5968 54.8616C73.6839 54.1658 73.2129 53.183 72.995 52.1655C72.5828 50.2405 70.4342 49.2608 68.7331 50.2519L67.9315 50.7191C68.5045 52.2037 68.8195 53.8157 68.8195 55.5C68.8195 57.1843 68.5045 58.7962 67.9315 60.281L68.7331 60.748C70.4342 61.7392 72.5828 60.7595 72.995 58.8344C73.2129 57.817 73.6839 56.8341 74.5968 56.1384C75.0199 55.8159 75.0199 55.1841 74.5968 54.8616Z" stroke="#131FFF" stroke-miterlimit="10" stroke-linecap="round" stroke-linejoin="round"/>
<path d="M67.6704 50.0905L68.5682 49.8537C70.4719 49.3518 71.2983 47.1397 70.2287 45.487C69.6633 44.6135 69.3014 43.5855 69.4549 42.448C69.526 41.9207 69.0794 41.474 68.5521 41.5451C67.4147 41.6987 66.3865 41.3368 65.513 40.7714C63.8603 39.7016 61.6483 40.5282 61.1463 42.4319L60.9096 43.3296C63.9119 44.6694 66.3307 47.0881 67.6704 50.0905Z" stroke="#131FFF" stroke-miterlimit="10" stroke-linecap="round" stroke-linejoin="round"/>
<path d="M42.2669 60.7481L43.0685 60.2809C42.4956 58.7963 42.1806 57.1843 42.1806 55.5C42.1806 53.8157 42.4956 52.2038 43.0685 50.719L42.2669 50.2519C40.5659 49.2607 38.4172 50.2405 38.005 52.1656C37.7872 53.183 37.3161 54.1659 36.4032 54.8616C35.9801 55.1841 35.9801 55.8159 36.4032 56.1384C37.3161 56.8341 37.7872 57.817 38.005 58.8344C38.4172 60.7595 40.5659 61.7392 42.2669 60.7481Z" stroke="#131FFF" stroke-miterlimit="10" stroke-linecap="round" stroke-linejoin="round"/>
<path d="M68.5682 61.1463L67.6704 60.9096C66.3306 63.9118 63.9119 66.3306 60.9096 67.6703L61.1463 68.5682C61.6483 70.4718 63.8603 71.2984 65.5131 70.2285C66.3865 69.6632 67.4146 69.3013 68.5521 69.4549C69.0794 69.526 69.526 69.0792 69.4549 68.552C69.3014 67.4146 69.6633 66.3864 70.2287 65.513C71.2984 63.8603 70.4719 61.6482 68.5682 61.1463Z" stroke="#131FFF" stroke-miterlimit="10" stroke-linecap="round" stroke-linejoin="round"/>
<path d="M60.281 67.9315C58.7962 68.5044 57.1844 68.8195 55.5001 68.8195C53.8157 68.8195 52.2037 68.5044 50.719 67.9315L50.2519 68.7331C49.2608 70.4341 50.2404 72.5827 52.1656 72.9949C53.183 73.2128 54.1659 73.6838 54.8616 74.5967C55.1842 75.0198 55.8159 75.0198 56.1384 74.5967C56.8342 73.6838 57.817 73.2128 58.8344 72.9949C60.7595 72.5827 61.7393 70.4341 60.7481 68.7331L60.281 67.9315Z" stroke="#131FFF" stroke-miterlimit="10" stroke-linecap="round" stroke-linejoin="round"/>
<path d="M43.3297 60.9096L42.4319 61.1463C40.5282 61.6482 39.7016 63.8603 40.7714 65.513C41.3368 66.3864 41.6986 67.4146 41.5451 68.5521C41.474 69.0793 41.9207 69.526 42.4479 69.4549C43.5854 69.3014 44.6135 69.6632 45.487 70.2286C47.1397 71.2984 49.3518 70.4718 49.8537 68.5682L50.0904 67.6703C47.0882 66.3307 44.6694 63.9119 43.3297 60.9096Z" stroke="#131FFF" stroke-miterlimit="10" stroke-linecap="round" stroke-linejoin="round"/>
<path d="M55.5 42.1805C48.1556 42.1805 42.1805 48.1556 42.1805 55.5C42.1805 62.8445 48.1556 68.8195 55.5 68.8195C62.8444 68.8195 68.8195 62.8445 68.8195 55.5C68.8195 48.1556 62.8444 42.1805 55.5 42.1805Z" stroke="#131FFF" stroke-miterlimit="10" stroke-linecap="round" stroke-linejoin="round"/>
<path d="M54.1329 44.6106C48.7237 45.2851 44.5243 49.9112 44.5243 55.5001C44.5243 61.5512 49.4473 66.4743 55.4985 66.4743C61.5498 66.4743 66.4728 61.5512 66.4728 55.5001C66.4728 49.9122 62.2749 45.2867 56.8672 44.6109" stroke="#131FFF" stroke-miterlimit="10" stroke-linecap="round" stroke-linejoin="round"/>
<path d="M60.6861 57.6062L65.0629 50.1241H45.9342L55.4985 66.4743L59.3052 59.9669" stroke="#131FFF" stroke-miterlimit="10" stroke-linecap="round" stroke-linejoin="round"/>
</g>
</g>
<path d="M51.5 64.8333V47.5L67.5 43.5V60.8333M51.5 64.8333C51.5 66.3061 49.7091 67.5 47.5 67.5C45.2909 67.5 43.5 66.3061 43.5 64.8333C43.5 63.3606 45.2909 62.1667 47.5 62.1667C49.7091 62.1667 51.5 63.3606 51.5 64.8333ZM67.5 60.8333C67.5 62.3061 65.7091 63.5 63.5 63.5C61.2909 63.5 59.5 62.3061 59.5 60.8333C59.5 59.3606 61.2909 58.1667 63.5 58.1667C65.7091 58.1667 67.5 59.3606 67.5 60.8333ZM51.5 52.8333L67.5 48.8333" stroke="white" stroke-width="2" stroke-linecap="round" stroke-linejoin="round"/>
<defs>
<filter id="filter0_d_515_966" x="0" y="0" width="111" height="111" filterUnits="userSpaceOnUse" color-interpolation-filters="sRGB">
<feFlood flood-opacity="0" result="BackgroundImageFix"/>
<feColorMatrix in="SourceAlpha" type="matrix" values="0 0 0 0 0 0 0 0 0 0 0 0 0 0 0 0 0 0 127 0" result="hardAlpha"/>
<feOffset/>
<feGaussianBlur stdDeviation="15"/>
<feComposite in2="hardAlpha" operator="out"/>
<feColorMatrix type="matrix" values="0 0 0 0 0.0392157 0 0 0 0 0.0823529 0 0 0 0 0.870588 0 0 0 0.7 0"/>
<feBlend mode="normal" in2="BackgroundImageFix" result="effect1_dropShadow_515_966"/>
<feBlend mode="normal" in="SourceGraphic" in2="effect1_dropShadow_515_966" result="shape"/>
</filter>
<clipPath id="clip0_515_966">
<rect width="40" height="40" fill="white" transform="translate(35.5 35.5)"/>
</clipPath>
</defs>
</svg>
