<svg width="111" height="111" viewBox="0 0 111 111" fill="none" xmlns="http://www.w3.org/2000/svg">
<g filter="url(#filter0_d_515_972)">
<circle cx="55.5" cy="55.5" r="23" fill="#C3283B" fill-opacity="0.25" shape-rendering="crispEdges"/>
<circle cx="55.5" cy="55.5" r="24.25" stroke="#C3283B" stroke-width="2.5" shape-rendering="crispEdges"/>
</g>
<g opacity="0.15" clip-path="url(#clip0_515_972)">
<path d="M55.5 69.4112C47.8071 69.4112 41.5484 63.1526 41.5484 55.4597C41.5484 47.7668 47.807 41.5082 55.5 41.5082C63.1929 41.5082 69.4515 47.7668 69.4515 55.4597C69.4515 63.1526 63.1929 69.4112 55.5 69.4112ZM55.5 42.7582C48.4964 42.7582 42.7984 48.4561 42.7984 55.4597C42.7984 62.4633 48.4963 68.1612 55.5 68.1612C62.5037 68.1612 68.2015 62.4633 68.2015 55.4597C68.2015 48.456 62.5036 42.7582 55.5 42.7582Z" fill="white"/>
<path d="M49.588 41.8528C49.5251 41.8528 49.4611 41.8432 49.3978 41.8231C49.069 41.7182 48.8875 41.3664 48.9925 41.0376C49.9909 37.9095 55.043 35.7514 55.2575 35.661C55.4125 35.5957 55.5873 35.5957 55.7425 35.661C55.957 35.7514 61.0091 37.9095 62.0074 41.0376C62.1124 41.3664 61.9309 41.7181 61.6021 41.8231C61.2732 41.928 60.9216 41.7466 60.8166 41.4178C60.1708 39.3943 56.9676 37.5842 55.5027 36.9207C54.5298 37.3699 50.8984 39.1768 50.1832 41.4178C50.0985 41.6834 49.8527 41.8528 49.588 41.8528Z" fill="white"/>
<path d="M55.5 75.3878C55.4175 75.3878 55.335 75.3715 55.2575 75.3388C55.0429 75.2485 49.9909 73.0904 48.9925 69.9623C48.8875 69.6335 49.069 69.2819 49.3978 69.1769C49.7266 69.072 50.0783 69.2534 50.1833 69.5822C50.8291 71.6056 54.0323 73.4157 55.4972 74.0793C56.47 73.6301 60.1015 71.8231 60.8167 69.5822C60.9216 69.2533 61.2728 69.0716 61.6022 69.1769C61.931 69.2818 62.1125 69.6335 62.0075 69.9623C61.0091 73.0904 55.9571 75.2485 55.7426 75.3388C55.6649 75.3715 55.5825 75.3878 55.5 75.3878Z" fill="white"/>
<path d="M68.1334 51.83C67.9236 51.83 67.7188 51.7245 67.6008 51.5329C67.4196 51.2391 67.5109 50.8541 67.8048 50.6729C68.1604 50.4536 68.493 50.1902 68.7932 49.8899C68.9582 49.7249 69.1007 49.527 69.2166 49.3019C70.2952 47.2118 69.0001 43.3538 68.6362 42.3638C67.6466 42 63.7885 40.7046 61.6987 41.7832C61.4729 41.8994 61.2751 42.0419 61.1102 42.2068C61.089 42.228 61.0662 42.2476 61.0423 42.2655L59.7734 43.2139C59.497 43.4205 59.1053 43.3639 58.8987 43.0875C58.692 42.811 58.7487 42.4193 59.0252 42.2127L60.2599 41.2898C60.5092 41.0475 60.8004 40.8398 61.126 40.6721C63.9368 39.2219 68.7842 41.0734 69.3277 41.2893C69.5022 41.3587 69.6419 41.4985 69.711 41.6731C69.9266 42.216 71.7781 47.0637 70.3277 49.8746C70.1528 50.2145 69.9338 50.5172 69.6772 50.7739C69.3082 51.1428 68.899 51.4669 68.4608 51.7371C68.3585 51.8 68.2452 51.83 68.1334 51.83Z" fill="white"/>
<path d="M47.2013 70.8791C44.5798 70.8791 41.8016 69.7638 41.6437 69.6994C41.4878 69.6358 41.3642 69.5122 41.3007 69.3564C41.2128 69.1408 39.1668 64.043 40.6723 61.1255C40.8473 60.7856 41.0662 60.483 41.3229 60.2263C41.6994 59.8499 42.1169 59.5205 42.5641 59.2474C42.8586 59.0672 43.2432 59.1603 43.4233 59.4548C43.6033 59.7494 43.5104 60.134 43.2158 60.314C42.8529 60.5357 42.5134 60.8037 42.2068 61.1102C42.0418 61.2751 41.8994 61.473 41.7834 61.6982C40.8094 63.5858 41.7944 67.1304 42.3609 68.6352C43.3663 69.0054 47.2112 70.2953 49.3013 69.2169C49.527 69.1007 49.7248 68.9582 49.8898 68.7932C50.2018 68.4813 50.4735 68.1353 50.6975 67.7648C50.8761 67.4695 51.2603 67.3746 51.5557 67.5534C51.8511 67.732 51.9458 68.1162 51.7672 68.4116C51.4911 68.8682 51.1569 69.294 50.7737 69.6771C50.5171 69.9337 50.2144 70.1527 49.874 70.328C49.0941 70.7305 48.1579 70.8791 47.2013 70.8791Z" fill="white"/>
<path d="M69.7722 62.0373C69.5075 62.0373 69.2617 61.8678 69.177 61.6022C69.072 61.2734 69.2534 60.9216 69.5823 60.8167C71.6057 60.1709 73.4158 56.9677 74.0794 55.5028C73.6302 54.5299 71.8232 50.8985 69.5823 50.1833C69.2534 50.0784 69.072 49.7267 69.177 49.3978C69.2819 49.0691 69.6336 48.8873 69.9624 48.9925C73.0905 49.9909 75.2486 55.043 75.3389 55.2575C75.4042 55.4126 75.4042 55.5874 75.3389 55.7425C75.2486 55.957 73.0905 61.0091 69.9624 62.0074C69.8992 62.0277 69.8351 62.0373 69.7722 62.0373Z" fill="white"/>
<path d="M41.2278 62.0373C41.1648 62.0373 41.1009 62.0277 41.0376 62.0075C37.9095 61.0091 35.7513 55.9571 35.661 55.7426C35.5957 55.5875 35.5957 55.4126 35.661 55.2576C35.7513 55.043 37.9095 49.9909 41.0376 48.9926C41.3666 48.8875 41.7181 49.0691 41.823 49.3979C41.928 49.7267 41.7466 50.0784 41.4177 50.1834C39.3943 50.8292 37.5842 54.0324 36.9206 55.4973C37.3698 56.4701 39.1768 60.1016 41.4177 60.8168C41.7466 60.9217 41.928 61.2734 41.823 61.6023C41.7384 61.8677 41.4925 62.0373 41.2278 62.0373Z" fill="white"/>
<path d="M63.7988 70.879C62.8417 70.879 61.9059 70.7304 61.1255 70.3278C60.7855 70.1528 60.4829 69.9338 60.2262 69.6772C59.8433 69.2942 59.509 68.8683 59.2329 68.4118C59.0543 68.1164 59.149 67.7322 59.4443 67.5536C59.74 67.375 60.1241 67.4697 60.3025 67.765C60.5266 68.1355 60.7983 68.4815 61.1102 68.7933C61.2751 68.9583 61.473 69.1008 61.6981 69.2168C63.7864 70.2943 67.6257 69.0082 68.6363 68.6364C69.008 67.6264 70.2943 63.7868 69.2169 61.6988C69.1007 61.473 68.9582 61.2752 68.7932 61.1103C68.4865 60.8036 68.147 60.5357 67.7842 60.3141C67.4896 60.1341 67.3968 59.7494 67.5767 59.4549C67.7568 59.1604 68.1415 59.0675 68.4359 59.2474C68.8829 59.5205 69.3005 59.8499 69.6771 60.2264C69.9338 60.483 70.1527 60.7857 70.328 61.1261C71.8332 64.0432 69.7872 69.1409 69.6993 69.3565C69.6358 69.5124 69.5122 69.636 69.3563 69.6995C69.1984 69.7637 66.4202 70.8789 63.7988 70.879Z" fill="white"/>
<path d="M42.8666 51.8299C42.7548 51.8299 42.6415 51.7999 42.5393 51.7369C42.1011 51.4667 41.6918 51.1427 41.3229 50.7737C41.0663 50.517 40.8473 50.2143 40.672 49.8739C39.1668 46.957 41.2129 41.8592 41.3007 41.6437C41.3642 41.4878 41.4879 41.3642 41.6437 41.3007C41.8592 41.2128 46.9569 39.1667 49.8745 40.6723C49.8855 40.678 49.8965 40.6841 49.9073 40.6905L52.2462 42.081C52.5429 42.2574 52.6404 42.6409 52.464 42.9377C52.2876 43.2344 51.9041 43.3319 51.6073 43.1555L49.2853 41.775C47.1939 40.7122 43.3716 41.9929 42.3636 42.3638C41.992 43.3738 40.7055 47.2134 41.783 49.3013C41.8991 49.527 42.0416 49.7249 42.2066 49.8899C42.507 50.1902 42.8395 50.4536 43.1951 50.6728C43.4889 50.854 43.5802 51.2391 43.3991 51.5328C43.2812 51.7245 43.0764 51.8299 42.8666 51.8299Z" fill="white"/>
<path d="M55.5 58.5076C53.8193 58.5076 52.452 57.1403 52.452 55.4597C52.452 53.7789 53.8193 52.4117 55.5 52.4117C57.1807 52.4117 58.548 53.7789 58.548 55.4597C58.548 57.1403 57.1807 58.5076 55.5 58.5076ZM55.5 53.6617C54.5086 53.6617 53.702 54.4682 53.702 55.4597C53.702 56.4511 54.5086 57.2576 55.5 57.2576C56.4914 57.2576 57.298 56.4511 57.298 55.4597C57.298 54.4682 56.4914 53.6617 55.5 53.6617Z" fill="white"/>
<path d="M52.9818 64.4927C52.8511 64.4927 52.7189 64.4735 52.5855 64.4302C51.8549 64.1931 51.5693 63.418 51.3172 62.7342C51.1938 62.3995 51.0248 61.9412 50.872 61.8299C50.7141 61.7149 50.2207 61.6948 49.8605 61.6803C49.1375 61.6509 48.318 61.6177 47.8711 61.0036C47.4278 60.3944 47.6471 59.609 47.8405 58.9161C47.9384 58.5656 48.0724 58.0856 48.0099 57.8933C47.9543 57.722 47.5768 57.4248 47.3011 57.2079C46.7241 56.7538 46.07 56.2389 46.07 55.4596C46.07 54.6803 46.7241 54.1655 47.3011 53.7113C47.5767 53.4943 47.9543 53.1971 48.0099 53.0259C48.0724 52.8335 47.9384 52.3535 47.8405 52.003C47.6471 51.3101 47.4278 50.5248 47.8712 49.9156C48.3181 49.3016 49.1376 49.2682 49.8605 49.2388C50.2208 49.2242 50.7141 49.2041 50.872 49.0892C51.025 48.9779 51.1939 48.5195 51.3173 48.1849C51.5693 47.5012 51.855 46.7262 52.5855 46.489C53.2923 46.2595 53.9651 46.7068 54.5585 47.1013C54.8834 47.3173 55.2877 47.5863 55.5 47.5863C55.7123 47.5863 56.1166 47.3174 56.4416 47.1014C57.0351 46.7068 57.7078 46.2596 58.4145 46.4891C59.1452 46.7263 59.4308 47.5013 59.6828 48.1851C59.8062 48.5198 59.9752 48.9781 60.128 49.0894C60.2859 49.2043 60.7793 49.2244 61.1395 49.239C61.8625 49.2684 62.682 49.3016 63.129 49.9158C63.5723 50.5249 63.3529 51.3103 63.1595 52.0032C63.0616 52.3537 62.9277 52.8336 62.9902 53.0259C63.0458 53.1973 63.4233 53.4944 63.6989 53.7113C64.276 54.1655 64.9301 54.6803 64.9301 55.4596C64.9301 56.2389 64.276 56.7538 63.6989 57.2079C63.4233 57.4249 63.0458 57.7221 62.9902 57.8934C62.9277 58.0857 63.0616 58.5656 63.1595 58.9161C63.353 59.6091 63.5722 60.3945 63.1289 61.0037C62.6819 61.6177 61.8625 61.651 61.1395 61.6804C60.7793 61.695 60.2859 61.715 60.128 61.8299C59.9751 61.9413 59.8061 62.3996 59.6827 62.7343C59.4306 63.4181 59.145 64.1931 58.4145 64.4302C57.7076 64.6595 57.035 64.2125 56.4415 63.8179C56.1166 63.6019 55.7123 63.333 55.5 63.333C55.2877 63.333 54.8834 63.6019 54.5584 63.8179C54.077 64.138 53.5434 64.4927 52.9818 64.4927ZM52.9943 47.6756C52.9858 47.6756 52.978 47.6764 52.971 47.678C52.818 47.7277 52.6047 48.3064 52.4901 48.6173C52.282 49.1819 52.0668 49.7657 51.6076 50.0999C51.1434 50.4377 50.517 50.4632 49.9112 50.4878C49.6067 50.5002 48.973 50.5259 48.8818 50.6512C48.7945 50.7713 48.9634 51.3762 49.0445 51.667C49.2084 52.2538 49.3778 52.8607 49.1988 53.4119C49.0259 53.9445 48.5421 54.3252 48.0742 54.6935C47.8106 54.901 47.32 55.2872 47.32 55.4596C47.32 55.6321 47.8106 56.0182 48.0742 56.2257C48.542 56.594 49.0259 56.9748 49.1988 57.5073C49.3778 58.0585 49.2084 58.6653 49.0445 59.2523C48.9633 59.543 48.7944 60.148 48.8817 60.2681C48.9729 60.3933 49.6066 60.419 49.9111 60.4313C50.5169 60.4559 51.1432 60.4814 51.6074 60.8193C52.0666 61.1534 52.2819 61.7373 52.49 62.302C52.6046 62.6128 52.8179 63.1916 52.9715 63.2413C53.1166 63.2743 53.623 62.9388 53.8664 62.777C54.3795 62.4359 54.9101 62.0831 55.5 62.0831C56.0899 62.0831 56.6205 62.4359 57.1335 62.777C57.3769 62.9388 57.8839 63.2761 58.029 63.2412C58.182 63.1915 58.3952 62.6129 58.5098 62.302C58.718 61.7373 58.9332 61.1535 59.3925 60.8193C59.8566 60.4815 60.483 60.4561 61.0888 60.4314C61.3933 60.4191 62.0271 60.3934 62.1182 60.2681C62.2056 60.1481 62.0367 59.543 61.9555 59.2523C61.7917 58.6654 61.6223 58.0586 61.8012 57.5073C61.9741 56.9748 62.4579 56.594 62.9259 56.2257C63.1895 56.0183 63.6801 55.632 63.6801 55.4596C63.6801 55.2872 63.1895 54.901 62.9259 54.6935C62.458 54.3252 61.9741 53.9445 61.8012 53.4119C61.6223 52.8607 61.7917 52.2538 61.9555 51.667C62.0367 51.3763 62.2056 50.7713 62.1183 50.6512C62.0272 50.5259 61.3934 50.5002 61.0888 50.4879C60.483 50.4633 59.8567 50.4378 59.3924 50.1C58.9333 49.7658 58.718 49.182 58.5099 48.6173C58.3953 48.3065 58.182 47.7277 58.0284 47.6779C57.8837 47.644 57.3769 47.9805 57.1336 48.1423C56.6205 48.4834 56.0899 48.8362 55.5 48.8362C54.9101 48.8362 54.3795 48.4834 53.8664 48.1422C53.6348 47.9882 53.1646 47.6756 52.9943 47.6756Z" fill="white"/>
</g>
<path d="M43.5 48.8334V62.1667C43.5 63.6394 44.6939 64.8334 46.1667 64.8334H64.8333C66.3061 64.8334 67.5 63.6394 67.5 62.1667V51.5C67.5 50.0273 66.3061 48.8334 64.8333 48.8334H56.8333L54.1667 46.1667H46.1667C44.6939 46.1667 43.5 47.3606 43.5 48.8334Z" stroke="white" stroke-width="2" stroke-linecap="round" stroke-linejoin="round"/>
<defs>
<filter id="filter0_d_515_972" x="0" y="0" width="111" height="111" filterUnits="userSpaceOnUse" color-interpolation-filters="sRGB">
<feFlood flood-opacity="0" result="BackgroundImageFix"/>
<feColorMatrix in="SourceAlpha" type="matrix" values="0 0 0 0 0 0 0 0 0 0 0 0 0 0 0 0 0 0 127 0" result="hardAlpha"/>
<feOffset/>
<feGaussianBlur stdDeviation="15"/>
<feComposite in2="hardAlpha" operator="out"/>
<feColorMatrix type="matrix" values="0 0 0 0 0.901961 0 0 0 0 0.541176 0 0 0 0 0.262745 0 0 0 1 0"/>
<feBlend mode="normal" in2="BackgroundImageFix" result="effect1_dropShadow_515_972"/>
<feBlend mode="normal" in="SourceGraphic" in2="effect1_dropShadow_515_972" result="shape"/>
</filter>
<clipPath id="clip0_515_972">
<rect width="40" height="40" fill="white" transform="translate(35.5 35.5)"/>
</clipPath>
</defs>
</svg>
