<svg width="51" height="51" viewBox="0 0 51 51" fill="none" xmlns="http://www.w3.org/2000/svg">
<circle cx="25.5" cy="25.5" r="24.25" fill="#C3283B" fill-opacity="0.25" stroke="#C3283B" stroke-width="2.5"/>
<g opacity="0.15" clip-path="url(#clip0_644_1357)">
<path d="M25.5 39.4112C17.8071 39.4112 11.5484 33.1526 11.5484 25.4597C11.5484 17.7668 17.807 11.5082 25.5 11.5082C33.1929 11.5082 39.4515 17.7668 39.4515 25.4597C39.4515 33.1526 33.1929 39.4112 25.5 39.4112ZM25.5 12.7582C18.4964 12.7582 12.7984 18.4561 12.7984 25.4597C12.7984 32.4633 18.4963 38.1612 25.5 38.1612C32.5037 38.1612 38.2015 32.4633 38.2015 25.4597C38.2015 18.456 32.5036 12.7582 25.5 12.7582Z" fill="white"/>
<path d="M19.588 11.8528C19.5251 11.8528 19.4611 11.8432 19.3978 11.8231C19.069 11.7182 18.8875 11.3664 18.9925 11.0376C19.9909 7.90948 25.043 5.75136 25.2575 5.66104C25.4125 5.59573 25.5873 5.59573 25.7425 5.66104C25.957 5.75136 31.0091 7.90948 32.0074 11.0376C32.1124 11.3664 31.9309 11.7181 31.6021 11.8231C31.2732 11.928 30.9216 11.7466 30.8166 11.4178C30.1708 9.39433 26.9676 7.58425 25.5027 6.92065C24.5298 7.36987 20.8984 9.17683 20.1832 11.4178C20.0985 11.6834 19.8526 11.8528 19.588 11.8528Z" fill="white"/>
<path d="M25.5 45.3878C25.4175 45.3878 25.335 45.3715 25.2575 45.3388C25.0429 45.2485 19.9908 43.0904 18.9925 39.9623C18.8875 39.6335 19.069 39.2819 19.3978 39.1769C19.7266 39.072 20.0783 39.2534 20.1833 39.5822C20.8291 41.6056 24.0323 43.4157 25.4972 44.0793C26.47 43.6301 30.1015 41.8231 30.8167 39.5822C30.9216 39.2533 31.2728 39.0716 31.6022 39.1769C31.931 39.2818 32.1125 39.6335 32.0075 39.9623C31.0091 43.0904 25.9571 45.2485 25.7426 45.3388C25.6649 45.3715 25.5825 45.3878 25.5 45.3878Z" fill="white"/>
<path d="M38.1334 21.83C37.9236 21.83 37.7188 21.7245 37.6008 21.5329C37.4196 21.2391 37.5109 20.8541 37.8048 20.6729C38.1604 20.4536 38.493 20.1902 38.7932 19.8899C38.9582 19.7249 39.1007 19.527 39.2166 19.3019C40.2951 17.2118 39.0001 13.3538 38.6362 12.3638C37.6466 12 33.7885 10.7046 31.6987 11.7832C31.4729 11.8994 31.2751 12.0419 31.1101 12.2068C31.089 12.228 31.0662 12.2476 31.0423 12.2655L29.7734 13.2139C29.497 13.4205 29.1053 13.3639 28.8987 13.0875C28.692 12.811 28.7487 12.4193 29.0251 12.2127L30.2599 11.2898C30.5092 11.0475 30.8004 10.8398 31.126 10.6721C33.9368 9.2219 38.7842 11.0734 39.3276 11.2893C39.5022 11.3587 39.6419 11.4985 39.711 11.6731C39.9266 12.216 41.7781 17.0637 40.3277 19.8746C40.1528 20.2145 39.9338 20.5172 39.6772 20.7739C39.3082 21.1428 38.899 21.4669 38.4608 21.7371C38.3585 21.8 38.2452 21.83 38.1334 21.83Z" fill="white"/>
<path d="M17.2013 40.8791C14.5798 40.8791 11.8016 39.7638 11.6437 39.6994C11.4878 39.6358 11.3642 39.5122 11.3007 39.3564C11.2128 39.1408 9.1668 34.043 10.6723 31.1255C10.8473 30.7856 11.0663 30.483 11.3229 30.2263C11.6994 29.8499 12.117 29.5205 12.5641 29.2474C12.8586 29.0672 13.2432 29.1603 13.4233 29.4548C13.6033 29.7494 13.5104 30.134 13.2158 30.314C12.8529 30.5357 12.5134 30.8037 12.2068 31.1102C12.0418 31.2751 11.8994 31.473 11.7834 31.6982C10.8094 33.5858 11.7944 37.1304 12.3609 38.6352C13.3663 39.0054 17.2113 40.2953 19.3013 39.2169C19.527 39.1007 19.7248 38.9582 19.8898 38.7932C20.2018 38.4813 20.4735 38.1353 20.6975 37.7648C20.8761 37.4695 21.2603 37.3746 21.5557 37.5534C21.8511 37.732 21.9458 38.1162 21.7672 38.4116C21.4911 38.8682 21.1569 39.294 20.7738 39.6771C20.5171 39.9337 20.2144 40.1527 19.874 40.328C19.0941 40.7305 18.1579 40.8791 17.2013 40.8791Z" fill="white"/>
<path d="M39.7722 32.0373C39.5075 32.0373 39.2617 31.8678 39.1769 31.6022C39.0719 31.2734 39.2534 30.9216 39.5822 30.8167C41.6057 30.1709 43.4158 26.9677 44.0794 25.5028C43.6301 24.5299 41.8232 20.8985 39.5822 20.1833C39.2534 20.0784 39.0719 19.7267 39.1769 19.3978C39.2819 19.0691 39.6336 18.8873 39.9624 18.9925C43.0905 19.9909 45.2486 25.043 45.3389 25.2575C45.4042 25.4126 45.4042 25.5874 45.3389 25.7425C45.2486 25.957 43.0905 31.0091 39.9624 32.0074C39.8992 32.0277 39.8351 32.0373 39.7722 32.0373Z" fill="white"/>
<path d="M11.2278 32.0373C11.1648 32.0373 11.1009 32.0277 11.0376 32.0075C7.90945 31.0091 5.75133 25.9571 5.66101 25.7426C5.5957 25.5875 5.5957 25.4126 5.66101 25.2576C5.75133 25.043 7.90945 19.9909 11.0376 18.9926C11.3666 18.8875 11.7181 19.0691 11.823 19.3979C11.928 19.7267 11.7466 20.0784 11.4177 20.1834C9.3943 20.8292 7.58422 24.0324 6.92062 25.4973C7.36984 26.4701 9.1768 30.1016 11.4177 30.8168C11.7466 30.9217 11.928 31.2734 11.823 31.6023C11.7384 31.8677 11.4925 32.0373 11.2278 32.0373Z" fill="white"/>
<path d="M33.7988 40.879C32.8417 40.879 31.9059 40.7304 31.1255 40.3278C30.7855 40.1528 30.4829 39.9338 30.2262 39.6772C29.8433 39.2942 29.509 38.8683 29.2329 38.4118C29.0543 38.1164 29.149 37.7322 29.4443 37.5536C29.74 37.375 30.1241 37.4697 30.3025 37.765C30.5266 38.1355 30.7983 38.4815 31.1102 38.7933C31.2751 38.9583 31.473 39.1008 31.6981 39.2168C33.7864 40.2943 37.6257 39.0082 38.6363 38.6364C39.008 37.6264 40.2943 33.7868 39.2169 31.6988C39.1007 31.473 38.9582 31.2752 38.7932 31.1103C38.4865 30.8036 38.147 30.5357 37.7842 30.3141C37.4896 30.1341 37.3968 29.7494 37.5767 29.4549C37.7568 29.1604 38.1415 29.0675 38.4359 29.2474C38.8829 29.5205 39.3005 29.8499 39.6771 30.2264C39.9338 30.483 40.1527 30.7857 40.328 31.1261C41.8332 34.0432 39.7872 39.1409 39.6993 39.3565C39.6358 39.5124 39.5122 39.636 39.3563 39.6995C39.1984 39.7637 36.4202 40.8789 33.7988 40.879Z" fill="white"/>
<path d="M12.8666 21.8299C12.7548 21.8299 12.6415 21.7999 12.5393 21.7369C12.1011 21.4667 11.6918 21.1427 11.3229 20.7737C11.0662 20.517 10.8473 20.2143 10.672 19.8739C9.16679 16.957 11.2129 11.8592 11.3007 11.6437C11.3642 11.4878 11.4879 11.3642 11.6437 11.3007C11.8592 11.2128 16.9569 9.16673 19.8744 10.6723C19.8855 10.678 19.8965 10.6841 19.9073 10.6905L22.2462 12.081C22.5429 12.2574 22.6404 12.6409 22.464 12.9377C22.2876 13.2344 21.9041 13.3319 21.6073 13.1555L19.2853 11.775C17.1939 10.7122 13.3716 11.9929 12.3636 12.3638C11.9919 13.3738 10.7055 17.2134 11.783 19.3013C11.8991 19.527 12.0416 19.7249 12.2066 19.8899C12.5069 20.1902 12.8395 20.4536 13.1951 20.6728C13.4889 20.854 13.5802 21.2391 13.3991 21.5328C13.2812 21.7245 13.0764 21.8299 12.8666 21.8299Z" fill="white"/>
<path d="M25.5 28.5076C23.8193 28.5076 22.452 27.1403 22.452 25.4597C22.452 23.7789 23.8193 22.4117 25.5 22.4117C27.1807 22.4117 28.5481 23.7789 28.5481 25.4597C28.5481 27.1403 27.1807 28.5076 25.5 28.5076ZM25.5 23.6617C24.5086 23.6617 23.702 24.4682 23.702 25.4597C23.702 26.4511 24.5086 27.2576 25.5 27.2576C26.4914 27.2576 27.2981 26.4511 27.2981 25.4597C27.2981 24.4682 26.4914 23.6617 25.5 23.6617Z" fill="white"/>
<path d="M22.9818 34.4927C22.8511 34.4927 22.7189 34.4735 22.5856 34.4302C21.8549 34.1931 21.5693 33.418 21.3172 32.7342C21.1938 32.3995 21.0249 31.9412 20.872 31.8299C20.7141 31.7149 20.2207 31.6948 19.8605 31.6803C19.1375 31.6509 18.318 31.6177 17.8711 31.0036C17.4278 30.3944 17.6471 29.609 17.8406 28.9161C17.9384 28.5656 18.0724 28.0856 18.0099 27.8933C17.9543 27.722 17.5768 27.4248 17.3011 27.2079C16.7241 26.7538 16.07 26.2389 16.07 25.4596C16.07 24.6803 16.7241 24.1655 17.3011 23.7113C17.5767 23.4943 17.9543 23.1971 18.0099 23.0259C18.0724 22.8335 17.9384 22.3535 17.8406 22.0031C17.6471 21.3101 17.4278 20.5248 17.8712 19.9156C18.3181 19.3016 19.1376 19.2682 19.8606 19.2388C20.2208 19.2242 20.7141 19.2041 20.872 19.0892C21.025 18.9779 21.1939 18.5195 21.3173 18.1849C21.5693 17.5012 21.855 16.7262 22.5856 16.489C23.2924 16.2595 23.9651 16.7068 24.5585 17.1013C24.8834 17.3173 25.2877 17.5863 25.5 17.5863C25.7124 17.5863 26.1166 17.3174 26.4416 17.1014C27.0351 16.7068 27.7078 16.2596 28.4145 16.4891C29.1452 16.7263 29.4308 17.5013 29.6828 18.1851C29.8062 18.5198 29.9752 18.9781 30.1281 19.0894C30.2859 19.2043 30.7793 19.2244 31.1395 19.239C31.8625 19.2684 32.682 19.3016 33.129 19.9158C33.5723 20.5249 33.3529 21.3103 33.1595 22.0032C33.0616 22.3537 32.9277 22.8336 32.9902 23.0259C33.0458 23.1973 33.4233 23.4944 33.6989 23.7113C34.276 24.1655 34.9301 24.6803 34.9301 25.4596C34.9301 26.2389 34.276 26.7538 33.6989 27.2079C33.4233 27.4249 33.0458 27.7221 32.9902 27.8934C32.9277 28.0857 33.0616 28.5656 33.1595 28.9161C33.353 29.6091 33.5722 30.3945 33.1289 31.0037C32.6819 31.6177 31.8625 31.651 31.1395 31.6804C30.7793 31.695 30.2859 31.715 30.1281 31.8299C29.9751 31.9413 29.8061 32.3996 29.6827 32.7343C29.4306 33.4181 29.145 34.1931 28.4145 34.4302C27.7076 34.6595 27.035 34.2125 26.4415 33.8179C26.1166 33.6019 25.7123 33.3331 25.5 33.3331C25.2877 33.3331 24.8834 33.6019 24.5584 33.8179C24.077 34.138 23.5434 34.4927 22.9818 34.4927ZM22.9943 17.6756C22.9858 17.6756 22.9781 17.6764 22.971 17.678C22.818 17.7277 22.6047 18.3064 22.4901 18.6173C22.282 19.1819 22.0668 19.7657 21.6076 20.0999C21.1434 20.4377 20.517 20.4632 19.9113 20.4878C19.6067 20.5002 18.973 20.5259 18.8818 20.6512C18.7945 20.7713 18.9634 21.3762 19.0445 21.667C19.2084 22.2538 19.3778 22.8607 19.1988 23.4119C19.0259 23.9445 18.5421 24.3252 18.0742 24.6935C17.8106 24.901 17.32 25.2872 17.32 25.4596C17.32 25.6321 17.8106 26.0182 18.0742 26.2257C18.542 26.594 19.0259 26.9748 19.1988 27.5073C19.3778 28.0585 19.2084 28.6653 19.0445 29.2523C18.9633 29.543 18.7944 30.148 18.8817 30.2681C18.9729 30.3933 19.6066 30.419 19.9111 30.4313C20.5169 30.4559 21.1432 30.4814 21.6074 30.8193C22.0666 31.1534 22.2819 31.7373 22.49 32.302C22.6046 32.6128 22.8179 33.1916 22.9715 33.2413C23.1166 33.2743 23.6231 32.9388 23.8664 32.777C24.3795 32.4359 24.9101 32.0831 25.5 32.0831C26.0899 32.0831 26.6205 32.4359 27.1335 32.777C27.3769 32.9388 27.8839 33.2761 28.029 33.2412C28.182 33.1915 28.3952 32.6129 28.5099 32.302C28.718 31.7373 28.9332 31.1535 29.3925 30.8193C29.8566 30.4815 30.4831 30.4561 31.0888 30.4314C31.3933 30.4191 32.0271 30.3934 32.1182 30.2681C32.2056 30.1481 32.0367 29.543 31.9556 29.2523C31.7917 28.6654 31.6223 28.0586 31.8012 27.5073C31.9741 26.9748 32.4579 26.594 32.9259 26.2257C33.1895 26.0183 33.6801 25.632 33.6801 25.4596C33.6801 25.2872 33.1895 24.901 32.9259 24.6935C32.458 24.3252 31.9741 23.9445 31.8012 23.4119C31.6223 22.8607 31.7917 22.2538 31.9556 21.667C32.0367 21.3763 32.2056 20.7713 32.1183 20.6512C32.0272 20.5259 31.3934 20.5002 31.0888 20.4879C30.4831 20.4633 29.8567 20.4378 29.3924 20.1C28.9333 19.7658 28.7181 19.182 28.5099 18.6173C28.3953 18.3065 28.182 17.7277 28.0284 17.6779C27.8837 17.644 27.3769 17.9805 27.1336 18.1423C26.6206 18.4834 26.0899 18.8362 25.5 18.8362C24.9101 18.8362 24.3795 18.4834 23.8664 18.1422C23.6348 17.9882 23.1646 17.6756 22.9943 17.6756Z" fill="white"/>
</g>
<path d="M13.5 18.8334V32.1667C13.5 33.6394 14.6939 34.8334 16.1667 34.8334H34.8333C36.3061 34.8334 37.5 33.6394 37.5 32.1667V21.5C37.5 20.0273 36.3061 18.8334 34.8333 18.8334H26.8333L24.1667 16.1667H16.1667C14.6939 16.1667 13.5 17.3606 13.5 18.8334Z" stroke="white" stroke-width="2" stroke-linecap="round" stroke-linejoin="round"/>
<defs>
<clipPath id="clip0_644_1357">
<rect width="40" height="40" fill="white" transform="translate(5.5 5.5)"/>
</clipPath>
</defs>
</svg>
