<svg width="14" height="14" viewBox="0 0 14 14" fill="none" xmlns="http://www.w3.org/2000/svg">
<g clip-path="url(#clip0_876_5766)">
<path d="M0.607412 7C0.902479 6.99614 1.15221 7.21708 1.18434 7.51043C1.45665 10.7303 4.28761 13.1197 7.50744 12.8474C10.7273 12.575 13.1167 9.74405 12.8443 6.52422C12.572 3.30438 9.74107 0.914977 6.52124 1.18729C5.12717 1.3052 3.82151 1.91874 2.84099 2.91665H4.66216C4.98433 2.91665 5.24549 3.17781 5.24549 3.49997C5.24549 3.82214 4.98433 4.0833 4.66216 4.0833H2.24541C1.64729 4.08297 1.16249 3.59816 1.16216 3.00005V0.583324C1.16216 0.26116 1.42332 0 1.74549 0C2.06765 0 2.32881 0.26116 2.32881 0.583324V1.7955C5.20797 -0.777246 9.62762 -0.528855 12.2004 2.3503C14.7731 5.22946 14.5247 9.64909 11.6456 12.2218C8.7664 14.7946 4.34678 14.5462 1.77403 11.667C0.773936 10.5478 0.160561 9.13645 0.024662 7.64165C-0.00530624 7.31861 0.232284 7.03246 0.555323 7.00249C0.572632 7.0009 0.589994 7.00005 0.607412 7Z" fill="white"/>
</g>
<defs>
<clipPath id="clip0_876_5766">
<rect width="14" height="14" fill="white" transform="matrix(-1 0 0 1 14 0)"/>
</clipPath>
</defs>
</svg>
