<svg width="20" height="20" viewBox="0 0 20 20" fill="none" xmlns="http://www.w3.org/2000/svg">
<path fill-rule="evenodd" clip-rule="evenodd" d="M4.51567 2.69888C5.19117 2.54877 5.99566 2.5 6.92602 2.5H8.27404C9.10993 2.5 9.89052 2.91775 10.3542 3.61325L11.0313 4.62892C11.1859 4.86073 11.446 5 11.7247 5H15.9375C17.2688 5 18.3478 6.05096 18.3351 7.40433C18.3199 9.016 18.3327 10.6282 18.3327 12.24C18.3327 13.1703 18.2839 13.9748 18.1338 14.6503C17.9816 15.3353 17.7143 15.9376 17.2423 16.4096C16.7703 16.8816 16.168 17.1489 15.483 17.3011C14.8075 17.4512 14.003 17.5 13.0727 17.5H6.92602C5.99566 17.5 5.19117 17.4512 4.51567 17.3011C3.83072 17.1489 3.22842 16.8816 2.75642 16.4096C2.28442 15.9376 2.01712 15.3353 1.8649 14.6503C1.71478 13.9748 1.66602 13.1703 1.66602 12.24V7.76C1.66602 6.82964 1.71478 6.02515 1.8649 5.34966C2.01712 4.6647 2.28442 4.0624 2.75642 3.5904C3.22842 3.11841 3.83072 2.85111 4.51567 2.69888ZM10.8327 9.16667C10.8327 8.70642 10.4596 8.33333 9.99935 8.33333C9.5391 8.33333 9.16602 8.70642 9.16602 9.16667V11.7382L8.50527 11.0774C8.17983 10.752 7.6522 10.752 7.32676 11.0774C7.00132 11.4028 7.00132 11.9305 7.32676 12.2559L9.35802 14.2872C9.36693 14.2961 9.37602 14.3048 9.38527 14.3133C9.5376 14.4792 9.75627 14.5833 9.99935 14.5833C10.2424 14.5833 10.4611 14.4792 10.6134 14.3133C10.6227 14.3048 10.6318 14.2961 10.6407 14.2872L12.6719 12.2559C12.9973 11.9305 12.9973 11.4028 12.6719 11.0774C12.3465 10.752 11.8188 10.752 11.4934 11.0774L10.8327 11.7382V9.16667Z" fill="white"/>
</svg>
