<svg width="25" height="26" viewBox="0 0 25 26" fill="none" xmlns="http://www.w3.org/2000/svg">
<path opacity="0.6" fill-rule="evenodd" clip-rule="evenodd" d="M10.0156 16.5896C11.4196 17.7114 13.1999 18.253 14.9907 18.1032C16.7816 17.9534 18.4471 17.1235 19.6453 15.7841C20.8434 14.4446 21.4831 12.6973 21.4332 10.9008C21.3832 9.10441 20.6472 7.39531 19.3765 6.12456C18.1057 4.8538 16.3966 4.11786 14.6002 4.06787C12.8038 4.01789 11.0564 4.65766 9.71695 5.85578C8.3775 7.05391 7.54765 8.71944 7.39785 10.5103C7.24805 12.3012 7.78966 14.0814 8.91145 15.4854L3.54061 20.8552C3.46386 20.9267 3.40229 21.013 3.35959 21.1088C3.31689 21.2046 3.29393 21.3081 3.29208 21.413C3.29023 21.5179 3.30953 21.6221 3.34882 21.7194C3.38811 21.8167 3.44659 21.905 3.52078 21.9792C3.59497 22.0534 3.68334 22.1119 3.78062 22.1512C3.8779 22.1905 3.98209 22.2098 4.08699 22.2079C4.19189 22.2061 4.29534 22.1831 4.39117 22.1404C4.48701 22.0977 4.57326 22.0361 4.64478 21.9594L10.0156 16.5896ZM18.2719 14.9625C19.0364 14.1979 19.5571 13.2238 19.7682 12.1633C19.9793 11.1028 19.8713 10.0036 19.4578 9.00448C19.0443 8.00538 18.3439 7.15127 17.4452 6.55011C16.5464 5.94894 15.4896 5.62769 14.4084 5.62696C13.3271 5.62623 12.2698 5.94606 11.3703 6.54602C10.4707 7.14598 9.7692 7.99914 9.35438 8.99768C8.93956 9.99622 8.83005 11.0953 9.03971 12.1561C9.24937 13.2168 9.76877 14.1916 10.5323 14.9573L10.5375 14.9625L10.5427 14.9667C11.5686 15.9902 12.9589 16.5647 14.4081 16.5639C15.8574 16.5632 17.247 15.9872 18.2719 14.9625Z" fill="black"/>
</svg>
