<svg width="26" height="26" viewBox="0 0 26 26" fill="none" xmlns="http://www.w3.org/2000/svg">
<path d="M9.40752 14.4538C9.62667 14.0163 9.75 13.5226 9.75 13C9.75 12.4774 9.62667 11.9837 9.40752 11.5462M9.40752 14.4538C8.87395 15.5188 7.77236 16.25 6.5 16.25C4.70507 16.25 3.25 14.7949 3.25 13C3.25 11.2051 4.70507 9.75 6.5 9.75C7.77236 9.75 8.87395 10.4812 9.40752 11.5462M9.40752 14.4538L16.5925 18.0462M9.40752 11.5462L16.5925 7.95376M16.5925 7.95376C17.1261 9.01884 18.2276 9.75 19.5 9.75C21.2949 9.75 22.75 8.29493 22.75 6.5C22.75 4.70507 21.2949 3.25 19.5 3.25C17.7051 3.25 16.25 4.70507 16.25 6.5C16.25 7.02257 16.3733 7.51633 16.5925 7.95376ZM16.5925 18.0462C16.3733 18.4837 16.25 18.9774 16.25 19.5C16.25 21.2949 17.7051 22.75 19.5 22.75C21.2949 22.75 22.75 21.2949 22.75 19.5C22.75 17.7051 21.2949 16.25 19.5 16.25C18.2276 16.25 17.1261 16.9812 16.5925 18.0462Z" stroke="white" stroke-width="1.2" stroke-linecap="round" stroke-linejoin="round"/>
</svg>
