<svg width="32" height="32" viewBox="0 0 32 32" fill="none" xmlns="http://www.w3.org/2000/svg">
<path d="M16 8.00001V5.33334M16 8.00001C14.5272 8.00001 13.3333 9.19392 13.3333 10.6667C13.3333 12.1394 14.5272 13.3333 16 13.3333M16 8.00001C17.4728 8.00001 18.6667 9.19392 18.6667 10.6667C18.6667 12.1394 17.4728 13.3333 16 13.3333M8 24C9.47276 24 10.6667 22.8061 10.6667 21.3333C10.6667 19.8606 9.47276 18.6667 8 18.6667M8 24C6.52724 24 5.33333 22.8061 5.33333 21.3333C5.33333 19.8606 6.52724 18.6667 8 18.6667M8 24V26.6667M8 18.6667V5.33334M16 13.3333V26.6667M24 24C25.4728 24 26.6667 22.8061 26.6667 21.3333C26.6667 19.8606 25.4728 18.6667 24 18.6667M24 24C22.5272 24 21.3333 22.8061 21.3333 21.3333C21.3333 19.8606 22.5272 18.6667 24 18.6667M24 24V26.6667M24 18.6667V5.33334" stroke="white" stroke-linecap="round" stroke-linejoin="round"/>
</svg>
