<svg width="32" height="32" viewBox="0 0 32 32" fill="none" xmlns="http://www.w3.org/2000/svg">
<path d="M12 25.3333V8L28 4V21.3333M12 25.3333C12 26.8061 10.2091 28 8 28C5.79086 28 4 26.8061 4 25.3333C4 23.8606 5.79086 22.6667 8 22.6667C10.2091 22.6667 12 23.8606 12 25.3333ZM28 21.3333C28 22.8061 26.2091 24 24 24C21.7909 24 20 22.8061 20 21.3333C20 19.8606 21.7909 18.6667 24 18.6667C26.2091 18.6667 28 19.8606 28 21.3333ZM12 13.3333L28 9.33333" stroke="white" stroke-linecap="round" stroke-linejoin="round"/>
</svg>
