<svg width="14" height="14" viewBox="0 0 14 14" fill="none" xmlns="http://www.w3.org/2000/svg">
<g clip-path="url(#clip0_876_5760)">
<path d="M2.04633 4.6489L7.61016 0.569065C8.04473 0.250848 8.55893 0.0591802 9.09576 0.015308C9.63259 -0.0285642 10.1711 0.0770725 10.6516 0.320509C11.132 0.563945 11.5357 0.935672 11.8178 1.39449C12.1 1.8533 12.2496 2.38128 12.25 2.9199V11.0836C12.2508 11.6228 12.102 12.1516 11.8202 12.6112C11.5383 13.0708 11.1344 13.4432 10.6535 13.6868C10.1725 13.9305 9.63341 14.0359 9.0961 13.9914C8.5588 13.9468 8.0444 13.754 7.61016 13.4345L2.04633 9.35465C1.67715 9.08372 1.37695 8.72967 1.17003 8.32116C0.963112 7.91265 0.855289 7.46116 0.855289 7.00323C0.855289 6.54531 0.963112 6.09381 1.17003 5.6853C1.37695 5.27679 1.67715 4.92274 2.04633 4.65182V4.6489Z" fill="white"/>
</g>
<rect width="0.777778" height="14" fill="white"/>
<defs>
<clipPath id="clip0_876_5760">
<rect width="14" height="14" fill="white" transform="matrix(-1 0 0 1 14 0)"/>
</clipPath>
</defs>
</svg>
