<svg width="24" height="24" viewBox="0 0 24 24" fill="none" xmlns="http://www.w3.org/2000/svg">
<g clip-path="url(#clip0_450_5727)">
<path d="M19.7063 23.5873C14.5735 24.1357 9.42661 24.1357 4.2938 23.5873C2.24536 23.367 0.628174 21.7545 0.412549 19.7061C-0.135889 14.5732 -0.135889 9.42637 0.412549 4.29355C0.632861 2.24512 2.25005 0.62793 4.2938 0.412305C9.42661 -0.136133 14.5735 -0.136133 19.7063 0.412305C21.7547 0.632617 23.3719 2.2498 23.5876 4.29355C24.136 9.42637 24.136 14.5732 23.5876 19.7061C23.3719 21.7545 21.7547 23.3717 19.7063 23.5873Z" fill="#FFFCF8"/>
<path d="M18.8625 22.3219C14.2922 22.8094 9.70312 22.8094 5.13281 22.3219C3.31406 22.125 1.875 20.6859 1.67812 18.8625C1.19063 14.2922 1.19063 9.70312 1.67812 5.13281C1.875 3.31406 3.31406 1.875 5.1375 1.67812C9.70781 1.19063 14.2969 1.19063 18.8672 1.67812C20.6906 1.875 22.1297 3.31406 22.3266 5.1375C22.8141 9.70781 22.8141 14.2969 22.3266 18.8672C22.125 20.6859 20.6859 22.125 18.8625 22.3219Z" fill="url(#paint0_linear_450_5727)"/>
<mask id="mask0_450_5727" style="mask-type:luminance" maskUnits="userSpaceOnUse" x="0" y="0" width="24" height="24">
<path d="M19.7063 23.5873C14.5735 24.1357 9.42661 24.1357 4.2938 23.5873C2.24536 23.367 0.628174 21.7545 0.412549 19.7061C-0.135889 14.5732 -0.135889 9.42637 0.412549 4.29355C0.632861 2.24512 2.25005 0.62793 4.2938 0.412305C9.42661 -0.136133 14.5735 -0.136133 19.7063 0.412305C21.7547 0.632617 23.3719 2.2498 23.5876 4.29355C24.136 9.42637 24.136 14.5732 23.5876 19.7061C23.3719 21.7545 21.7547 23.3717 19.7063 23.5873Z" fill="white"/>
</mask>
<g mask="url(#mask0_450_5727)">
<path d="M27.9094 18.1875C27.8954 18.1875 14.2594 4.54688 14.2594 4.54688H11.9673V11.475L10.5235 10.0219C10.3079 9.98906 10.0876 9.97031 9.86257 9.97031C8.68601 9.97031 7.58445 10.4297 6.75476 11.2594C5.92507 12.0891 5.4657 13.1953 5.4657 14.3672C5.4657 15.5391 5.92507 16.6453 6.75476 17.475L16.8188 27.5391C17.6438 28.3687 18.7501 28.8281 19.9219 28.8281C20.1469 28.8281 20.3673 28.8094 20.5829 28.7812C21.5063 28.6406 22.3594 28.2141 23.0298 27.5437C23.8548 26.7187 24.3141 25.6219 24.3188 24.4547L24.3235 19.2656C24.7219 19.575 25.1579 19.8281 25.6219 20.025C26.3485 20.3297 27.1173 20.4891 27.9094 20.4891C27.9094 20.4844 27.9094 18.1875 27.9094 18.1875Z" fill="url(#paint1_linear_450_5727)"/>
</g>
<path d="M19.7063 23.5873C14.5735 24.1357 9.42661 24.1357 4.2938 23.5873C2.24536 23.367 0.628174 21.7545 0.412549 19.7061C-0.135889 14.5732 -0.135889 9.42637 0.412549 4.29355C0.632861 2.24512 2.25005 0.62793 4.2938 0.412305C9.42661 -0.136133 14.5735 -0.136133 19.7063 0.412305C21.7547 0.632617 23.3719 2.2498 23.5876 4.29355C24.136 9.42637 24.136 14.5732 23.5876 19.7061C23.3719 21.7545 21.7547 23.3717 19.7063 23.5873Z" fill="url(#paint2_linear_450_5727)"/>
<path d="M15.6844 7.39678C15.2297 6.79678 14.9578 6.05147 14.9578 5.24053H14.9484V5.23584H14.3344C14.5078 6.1124 14.9953 6.87647 15.6844 7.39678Z" fill="#F00044"/>
<path d="M9.86245 12.267C8.69995 12.267 7.76245 13.2092 7.76245 14.367C7.76245 15.1217 8.16089 15.7873 8.76089 16.1576C8.56401 15.8389 8.45151 15.4592 8.45151 15.0561C8.45151 13.8936 9.3937 12.9561 10.5515 12.9561C10.7812 12.9561 11.0062 12.9936 11.2125 13.0639V10.7107C10.9968 10.6779 10.7765 10.6592 10.5515 10.6592C10.5421 10.6592 10.5328 10.6592 10.5234 10.6592V12.3748C10.3125 12.3045 10.0921 12.267 9.86245 12.267Z" fill="#F00044"/>
<path d="M18.5344 8.8127C18.3 8.8127 18.0703 8.78926 17.85 8.74707V10.4205C17.0578 10.4205 16.289 10.2658 15.5625 9.95644C15.0937 9.75957 14.6625 9.50644 14.264 9.19707V14.3861H14.2594C14.2547 15.5533 13.8 16.6502 12.9703 17.4752C12.3 18.1455 11.4469 18.5768 10.5234 18.7127C10.3078 18.7455 10.0875 18.7596 9.86248 18.7596C8.84998 18.7596 7.89373 18.4221 7.1156 17.7986C7.21873 17.9252 7.32654 18.0471 7.43904 18.1643C8.26873 18.9986 9.37498 19.4533 10.5469 19.4533C10.7719 19.4533 10.9922 19.4346 11.2078 19.4064C12.1312 19.2658 12.9843 18.8393 13.6547 18.1689C14.4797 17.3439 14.939 16.2471 14.9437 15.0799H14.9484V9.88613C15.3469 10.1955 15.7828 10.4486 16.2469 10.6455C16.9734 10.9549 17.7422 11.1096 18.5344 11.1096V8.8127Z" fill="url(#paint3_linear_450_5727)"/>
<path d="M17.8453 8.74697V8.12354C17.0343 8.12354 16.2843 7.85166 15.6843 7.39697C16.2046 8.08135 16.9687 8.57354 17.8453 8.74697Z" fill="#08FFF9"/>
<path d="M10.5469 17.1562C10.7766 17.1562 11.0016 17.1188 11.2079 17.0484C12.0422 16.7719 12.6469 15.9844 12.6469 15.0563L12.6516 11.5781V5.23594H14.3344C14.2922 5.01562 14.2688 4.78594 14.2688 4.55156H14.2594V4.54688H11.9672V10.8937L11.9625 14.3719C11.9625 15.3 11.3579 16.0875 10.5235 16.3641C10.3172 16.4344 10.0922 16.4719 9.86255 16.4719C9.45942 16.4719 9.07974 16.3594 8.76099 16.1625C9.1313 16.7578 9.79224 17.1562 10.5469 17.1562Z" fill="url(#paint4_linear_450_5727)"/>
<path d="M7.43906 11.9483C8.26406 11.1233 9.35625 10.6687 10.5187 10.6593V10.0218C10.3031 9.98897 10.0828 9.97021 9.85781 9.97021C8.68125 9.97021 7.57969 10.4296 6.75 11.2593C5.92031 12.089 5.46094 13.1952 5.46094 14.3671C5.46094 15.539 5.92031 16.6452 6.75 17.4749C6.86719 17.5921 6.98906 17.6999 7.11563 17.7983C6.49219 17.0202 6.15469 16.064 6.15469 15.0515C6.15469 13.8843 6.60937 12.778 7.43906 11.9483Z" fill="#08FFF9"/>
<path d="M10.5187 18.7171C11.4421 18.5765 12.2953 18.1499 12.9656 17.4796C13.7906 16.6546 14.25 15.5577 14.2546 14.3905H14.2593V9.19678C14.6578 9.50615 15.0937 9.75928 15.5578 9.95615C16.2843 10.2655 17.0531 10.4202 17.8453 10.4202V8.74678C16.9687 8.57803 16.2046 8.08584 15.6796 7.39678C14.9953 6.87647 14.5031 6.1124 14.3296 5.23584H12.6468V11.5827L12.6421 15.0608C12.6421 15.989 12.0375 16.7765 11.2031 17.053C10.9968 17.1233 10.7718 17.1608 10.5421 17.1608C9.78745 17.1608 9.12183 16.7624 8.75151 16.1624C8.15151 15.7921 7.75308 15.1312 7.75308 14.3718C7.75308 13.2093 8.69526 12.2718 9.85308 12.2718C10.0828 12.2718 10.3078 12.3093 10.514 12.3796V10.6687C9.35151 10.6733 8.25933 11.1327 7.43433 11.9577C6.60464 12.7874 6.14526 13.8937 6.14526 15.0655C6.14526 16.0733 6.48276 17.0343 7.1062 17.8124C7.88433 18.4358 8.84058 18.7733 9.85308 18.7733C10.0828 18.764 10.3031 18.7499 10.5187 18.7171Z" fill="black"/>
</g>
<defs>
<linearGradient id="paint0_linear_450_5727" x1="2.79647" y1="2.79656" x2="21.2035" y2="21.2036" gradientUnits="userSpaceOnUse">
<stop stop-color="#E8EBEE"/>
<stop offset="1" stop-color="#E8EBEE" stop-opacity="0"/>
</linearGradient>
<linearGradient id="paint1_linear_450_5727" x1="8.00421" y1="8.50664" x2="25.0353" y2="25.5377" gradientUnits="userSpaceOnUse">
<stop stop-color="#B7C1CE"/>
<stop offset="1" stop-color="#B8C1CF" stop-opacity="0"/>
</linearGradient>
<linearGradient id="paint2_linear_450_5727" x1="12.0003" y1="19.5035" x2="12.0003" y2="23.5582" gradientUnits="userSpaceOnUse">
<stop stop-color="#94A1B2" stop-opacity="0"/>
<stop offset="1" stop-color="#94A1B2"/>
</linearGradient>
<linearGradient id="paint3_linear_450_5727" x1="11.4766" y1="11.9789" x2="15.6604" y2="16.1627" gradientUnits="userSpaceOnUse">
<stop stop-color="#F00044"/>
<stop offset="1" stop-color="#C70038"/>
</linearGradient>
<linearGradient id="paint4_linear_450_5727" x1="8.81461" y1="7.69622" x2="14.8476" y2="13.7292" gradientUnits="userSpaceOnUse">
<stop stop-color="#08FFF9"/>
<stop offset="1" stop-color="#07D4CF"/>
</linearGradient>
<clipPath id="clip0_450_5727">
<rect width="24" height="24" fill="white"/>
</clipPath>
</defs>
</svg>
