<svg width="51" height="51" viewBox="0 0 51 51" fill="none" xmlns="http://www.w3.org/2000/svg">
<path d="M25.4941 50.2008C39.298 50.2008 50.4883 39.0749 50.4883 25.3504C50.4883 11.6259 39.298 0.5 25.4941 0.5C11.6903 0.5 0.5 11.6259 0.5 25.3504C0.5 39.0749 11.6903 50.2008 25.4941 50.2008Z" stroke="#B7B7B7"/>
<path d="M32.7785 20.728C32.2429 20.9962 31.7073 21.0857 31.0824 21.1751C31.7073 20.8174 32.1536 20.2809 32.3321 19.5656C31.7966 19.9232 31.1717 20.1021 30.4576 20.2809C29.922 19.7444 29.1186 19.3867 28.3152 19.3867C26.7977 19.3867 25.4587 20.728 25.4587 22.3375C25.4587 22.6058 25.4587 22.7846 25.548 22.9634C23.1379 22.874 20.9062 21.7116 19.478 19.9232C19.2102 20.3703 19.1209 20.8174 19.1209 21.4433C19.1209 22.4269 19.6565 23.3211 20.4599 23.8576C20.0136 23.8576 19.5673 23.6788 19.1209 23.4999C19.1209 24.9306 20.1029 26.0931 21.4418 26.3613C21.174 26.4507 20.9062 26.4507 20.6384 26.4507C20.4599 26.4507 20.2814 26.4507 20.1029 26.3613C20.4599 27.5238 21.5311 28.4179 22.8701 28.4179C21.8882 29.2227 20.6384 29.6698 19.2102 29.6698C18.9424 29.6698 18.7639 29.6698 18.4961 29.6698C19.8351 30.4746 21.3526 31.0111 22.9593 31.0111C28.3152 31.0111 31.261 26.5402 31.261 22.6952C31.261 22.6058 31.261 22.4269 31.261 22.3375C31.8858 21.8904 32.4214 21.3539 32.7785 20.728Z" fill="white"/>
</svg>
