<svg width="111" height="111" viewBox="0 0 111 111" fill="none" xmlns="http://www.w3.org/2000/svg">
<g filter="url(#filter0_d_515_970)">
<circle cx="55.5" cy="55.5" r="23" fill="#E68A43" fill-opacity="0.25" shape-rendering="crispEdges"/>
<circle cx="55.5" cy="55.5" r="24.25" stroke="#E68A43" stroke-width="2.5" shape-rendering="crispEdges"/>
</g>
<g opacity="0.1" clip-path="url(#clip0_515_970)">
<path d="M36.5831 55.8655C36.5918 55.8696 36.6006 55.8734 36.6095 55.8769C36.7326 55.9324 38.4206 56.7252 39.2782 58.7369C39.7813 59.917 40.6827 60.7499 41.6895 60.9644C41.8069 60.9895 41.9359 61.0081 42.0752 61.0162C42.0025 61.101 41.934 61.192 41.8704 61.2901C41.3049 62.1618 41.2645 63.421 41.7623 64.6586C42.5666 66.6581 41.9832 68.3892 41.9064 68.5992C41.8455 68.7259 41.8566 68.8784 41.941 68.9961C42.0423 69.1374 42.2262 69.194 42.39 69.1364C42.3993 69.1331 42.4084 69.1295 42.4173 69.1256C42.5452 69.0771 44.3162 68.4377 46.3659 69.2622C46.936 69.4915 47.5107 69.6055 48.0496 69.6055C48.6704 69.6055 49.2437 69.4542 49.707 69.1537C49.8039 69.0909 49.8939 69.0231 49.9778 68.9513C49.9871 69.0717 50.0041 69.1841 50.0261 69.2874C50.2421 70.3012 51.0862 71.2112 52.2839 71.7217C54.2465 72.5584 55.0501 74.1782 55.1436 74.3795C55.1901 74.512 55.3058 74.612 55.4487 74.6354C55.4698 74.6389 55.4908 74.6406 55.5116 74.6406C55.6605 74.6406 55.7996 74.5545 55.8654 74.417C55.8696 74.4083 55.8734 74.3993 55.877 74.3903C55.9325 74.2671 56.7252 72.5794 58.737 71.7217C59.921 71.217 60.7559 70.3153 60.9702 69.3099C60.9948 69.1945 61.013 69.0679 61.0213 68.9314C61.1062 69.0043 61.1974 69.073 61.2956 69.1367C61.7605 69.4381 62.3362 69.5899 62.9602 69.5899C63.5037 69.5899 64.0839 69.4748 64.6595 69.2432C66.6591 68.4389 68.3903 69.0225 68.6003 69.0991C68.7271 69.1602 68.8796 69.1488 68.9973 69.0643C69.1385 68.963 69.1952 68.779 69.1373 68.6152C69.1341 68.6061 69.1305 68.5972 69.1267 68.5885C69.0787 68.4616 68.4388 66.6894 69.2633 64.6395C69.7539 63.4199 69.7118 62.1752 69.1507 61.3102C69.098 61.2289 69.0415 61.1528 68.9823 61.0807C69.0678 61.0714 69.1541 61.058 69.2411 61.0395C70.2563 60.8231 71.1737 59.9639 71.6948 58.7413C72.5401 56.7585 74.1767 55.947 74.3795 55.8528C74.5121 55.8063 74.6121 55.6905 74.6356 55.5474C74.6637 55.3759 74.5737 55.2057 74.417 55.1309C74.4083 55.1267 74.3995 55.1229 74.3905 55.1195C74.2669 55.0638 72.5613 54.2631 71.6948 52.2306C71.1826 51.0289 70.273 50.1828 69.2619 49.9673C69.1442 49.9422 69.0146 49.9238 68.8748 49.9158C68.9676 49.8112 69.046 49.7064 69.1116 49.6053C69.6787 48.7311 69.7305 47.4964 69.2503 46.3026C68.4541 44.3233 69.0313 42.6096 69.1074 42.4013C69.1683 42.2746 69.1571 42.1222 69.0727 42.0045C68.9714 41.8634 68.7875 41.8064 68.6237 41.8643C68.6145 41.8676 68.6055 41.8711 68.5966 41.875C68.4702 41.9229 66.7163 42.5557 64.6873 41.7397C63.514 41.2677 62.2952 41.3221 61.427 41.8852C61.3105 41.9608 61.1892 42.0531 61.0687 42.1649C61.0613 42.0173 61.0421 41.8808 61.0158 41.7573C60.7982 40.7363 59.948 39.8196 58.7413 39.3052C56.7588 38.4601 55.9472 36.8235 55.8529 36.6207C55.8064 36.4881 55.6907 36.3881 55.5477 36.3646C55.376 36.3363 55.206 36.4263 55.131 36.583C55.1268 36.5918 55.123 36.6007 55.1195 36.6098C55.0634 36.734 54.2631 38.4389 52.2307 39.3052C51.0374 39.814 50.196 40.7231 49.9799 41.737C49.9532 41.8624 49.9337 42.0009 49.9266 42.1511C49.816 42.0516 49.7052 41.9681 49.5984 41.8988C48.7232 41.3312 47.4916 41.2775 46.3037 41.7554C44.3244 42.5516 42.6107 41.9744 42.4023 41.8983C42.2757 41.8375 42.1232 41.8486 42.0055 41.9331C41.8643 42.0344 41.8075 42.2183 41.8654 42.3821C41.8686 42.3913 41.8722 42.4002 41.876 42.4091C41.924 42.5357 42.5567 44.2897 41.7406 46.3184C41.2654 47.4999 41.317 48.7223 41.8787 49.5882C41.9627 49.7178 42.0673 49.8534 42.1973 49.987C42.0193 49.9908 41.8563 50.012 41.711 50.043C40.6935 50.2598 39.7841 51.0976 39.2783 52.284C38.4416 54.2467 36.8216 55.0502 36.6206 55.1437C36.488 55.1902 36.3881 55.306 36.3646 55.449C36.3365 55.6204 36.4264 55.7906 36.5832 55.8656L36.5831 55.8655ZM49.282 68.4983C48.6296 68.9214 47.6485 68.9361 46.6575 68.5375C45.4099 68.0357 44.2491 68.0235 43.495 68.1017C43.2395 68.1281 43.0132 68.1665 42.8265 68.2052C43.0002 67.3913 43.1295 65.9642 42.4871 64.367C42.0841 63.3652 42.0986 62.3738 42.5259 61.7153C42.8945 61.1471 43.5598 60.8197 44.5041 60.7386C45.7037 63.2573 47.7446 65.3014 50.2619 66.5058C50.1807 67.4583 49.8521 68.1285 49.282 68.4983ZM44.1109 55.5295C44.1109 49.2542 49.22 44.1489 55.5001 44.1489C61.7802 44.1489 66.8893 49.2542 66.8893 55.5295C66.8893 61.8047 61.7802 66.91 55.5001 66.91C49.22 66.91 44.1109 61.8047 44.1109 55.5295ZM60.2062 69.1471C60.0448 69.9041 59.3811 70.598 58.4306 71.0031C57.2044 71.5259 56.3822 72.331 55.9084 72.9145C55.7495 73.1102 55.6187 73.2939 55.5155 73.451C55.0656 72.7584 54.1565 71.6709 52.5903 71.0031C51.6262 70.5922 50.9534 69.8899 50.7902 69.1246C50.6471 68.453 50.8866 67.7445 51.5002 67.0158C52.7536 67.4529 54.0995 67.6913 55.5001 67.6913C56.9007 67.6913 58.2368 67.4547 59.4862 67.0206C60.1073 67.7571 60.3502 68.4715 60.2062 69.1471ZM68.5384 64.3481C68.0366 65.5957 68.0245 66.7566 68.1026 67.5106C68.1291 67.7662 68.1674 67.9925 68.2062 68.1792C67.3923 68.0056 65.9652 67.8761 64.368 68.5185C63.367 68.921 62.3774 68.9073 61.7208 68.4813C61.1533 68.1132 60.8263 67.4476 60.7453 66.5025C63.2557 65.2994 65.2917 63.2609 66.4909 60.7495C67.4489 60.831 68.123 61.1616 68.4952 61.7354C68.9181 62.3874 68.9343 63.3641 68.5384 64.348V64.3481ZM69.0991 50.7315C69.8618 50.8941 70.5635 51.569 70.9762 52.537C71.5035 53.7741 72.3158 54.6035 72.9043 55.0815C73.1037 55.2435 73.2908 55.3763 73.4502 55.4809C72.7519 55.9337 71.6513 56.8513 70.9762 58.4349C70.5545 59.424 69.845 60.112 69.0782 60.2755C68.4135 60.417 67.7089 60.1771 66.9812 59.5642C67.4271 58.301 67.6705 56.9432 67.6705 55.5295C67.6705 54.101 67.422 52.7295 66.9673 51.4552C67.7069 50.8316 68.4231 50.5875 69.0991 50.7315ZM61.8522 42.5408C62.5073 42.1159 63.4581 42.0875 64.3958 42.4645C65.6324 42.9619 66.783 42.9739 67.5307 42.8966C67.7816 42.8706 68.0039 42.8331 68.1879 42.7949C68.0163 43.6028 67.8902 45.0146 68.5255 46.5942C68.9109 47.5524 68.885 48.5191 68.4562 49.1802C68.0746 49.7684 67.3939 50.1065 66.4323 50.1884C65.2397 47.7608 63.2611 45.7859 60.8298 44.5975C60.9125 43.6195 61.2555 42.9277 61.8523 42.5406L61.8522 42.5408ZM50.7441 41.8999C50.9072 41.1344 51.5775 40.4331 52.5371 40.024C53.7741 39.4967 54.6036 38.6845 55.0816 38.0959C55.2435 37.8965 55.3764 37.7094 55.4809 37.55C55.9337 38.2484 56.8513 39.3489 58.435 40.024C59.408 40.4388 60.0871 41.1476 60.2517 41.9202C60.3966 42.5998 60.1538 43.317 59.5322 44.0545C58.2697 43.6102 56.9128 43.3677 55.5001 43.3677C54.0873 43.3677 52.7341 43.6096 51.473 44.0528C50.8441 43.3076 50.5981 42.5842 50.744 41.9L50.7441 41.8999ZM42.4655 46.6099C42.963 45.3733 42.975 44.2226 42.8976 43.475C42.8716 43.2242 42.8341 43.0018 42.7959 42.8178C43.6038 42.9893 45.0158 43.1156 46.5952 42.4802C47.5475 42.0971 48.5112 42.1249 49.1733 42.5543C49.7656 42.9385 50.1061 43.6227 50.1885 44.5886C47.7537 45.7738 45.7712 47.7472 44.575 50.1745C43.6034 50.0924 42.917 49.7532 42.5342 49.163C42.1108 48.5102 42.0851 47.5557 42.4655 46.6099V46.6099ZM39.997 52.5904C40.4032 51.6377 41.1048 50.971 41.874 50.8071C42.5561 50.6618 43.2736 50.9031 44.0092 51.5227C43.5696 52.778 43.3297 54.1262 43.3297 55.5295C43.3297 56.9112 43.562 58.2395 43.9886 59.4782C43.2495 60.1017 42.5319 60.3456 41.8524 60.2005C41.0941 60.0389 40.4005 59.3773 39.997 58.4307C39.4742 57.2045 38.6691 56.3824 38.0857 55.9085C37.8899 55.7495 37.7062 55.6188 37.5491 55.5157C38.2417 55.0658 39.3292 54.1567 39.997 52.5906L39.997 52.5904Z" fill="white"/>
<path d="M55.5 65.2229C60.8498 65.2229 65.2022 60.8744 65.2022 55.5293C65.2022 50.1843 60.8498 45.8358 55.5 45.8358C50.1502 45.8358 45.7978 50.1843 45.7978 55.5293C45.7978 60.8744 50.1502 65.2229 55.5 65.2229ZM55.5 46.6171C59.058 46.6171 61.9527 49.5079 61.9527 53.0611C61.9527 56.6144 59.058 59.5053 55.5 59.5053C51.942 59.5053 49.0473 56.6144 49.0473 53.0611C49.0473 49.5079 51.942 46.6171 55.5 46.6171ZM49.6699 48.789C48.788 49.9865 48.266 51.464 48.266 53.0611C48.266 57.0453 51.5112 60.2865 55.4999 60.2865C59.4887 60.2865 62.7338 57.0453 62.7338 53.0611C62.7338 51.464 62.2119 49.9864 61.3299 48.789C63.2219 50.4244 64.4208 52.8397 64.4208 55.5294C64.4208 60.4437 60.4188 64.4418 55.4998 64.4418C50.5809 64.4418 46.5789 60.4437 46.5789 55.5294C46.5789 52.8397 47.7778 50.4244 49.6698 48.789H49.6699Z" fill="white"/>
</g>
<path d="M59.5 52.8333L65.5704 49.7981C66.4569 49.3549 67.5 49.9995 67.5 50.9907V60.0093C67.5 61.0005 66.4569 61.6451 65.5704 61.2019L59.5 58.1667M46.1667 63.5H56.8333C58.3061 63.5 59.5 62.3061 59.5 60.8333V50.1667C59.5 48.6939 58.3061 47.5 56.8333 47.5H46.1667C44.6939 47.5 43.5 48.6939 43.5 50.1667V60.8333C43.5 62.3061 44.6939 63.5 46.1667 63.5Z" stroke="white" stroke-width="2" stroke-linecap="round" stroke-linejoin="round"/>
<defs>
<filter id="filter0_d_515_970" x="0" y="0" width="111" height="111" filterUnits="userSpaceOnUse" color-interpolation-filters="sRGB">
<feFlood flood-opacity="0" result="BackgroundImageFix"/>
<feColorMatrix in="SourceAlpha" type="matrix" values="0 0 0 0 0 0 0 0 0 0 0 0 0 0 0 0 0 0 127 0" result="hardAlpha"/>
<feOffset/>
<feGaussianBlur stdDeviation="15"/>
<feComposite in2="hardAlpha" operator="out"/>
<feColorMatrix type="matrix" values="0 0 0 0 0.901961 0 0 0 0 0.541176 0 0 0 0 0.262745 0 0 0 1 0"/>
<feBlend mode="normal" in2="BackgroundImageFix" result="effect1_dropShadow_515_970"/>
<feBlend mode="normal" in="SourceGraphic" in2="effect1_dropShadow_515_970" result="shape"/>
</filter>
<clipPath id="clip0_515_970">
<rect width="40" height="40" fill="white" transform="translate(35.5 35.5)"/>
</clipPath>
</defs>
</svg>
