<svg width="51" height="51" viewBox="0 0 51 51" fill="none" xmlns="http://www.w3.org/2000/svg">
<circle cx="25.5" cy="25.5" r="24.25" fill="#E68A43" fill-opacity="0.25" stroke="#E68A43" stroke-width="2.5"/>
<g opacity="0.1" clip-path="url(#clip0_644_1351)">
<path d="M6.58313 25.8655C6.5918 25.8696 6.60063 25.8735 6.60953 25.8769C6.73258 25.9324 8.42063 26.7252 9.27821 28.7369C9.78133 29.917 10.6827 30.7499 11.6895 30.9644C11.8069 30.9895 11.9359 31.0081 12.0752 31.0162C12.0025 31.101 11.934 31.192 11.8704 31.2901C11.3049 32.1618 11.2645 33.421 11.7623 34.6586C12.5666 36.6581 11.9832 38.3892 11.9064 38.5992C11.8455 38.7259 11.8566 38.8784 11.941 38.9961C12.0423 39.1374 12.2262 39.194 12.39 39.1364C12.3993 39.1331 12.4084 39.1295 12.4173 39.1256C12.5452 39.0771 14.3162 38.4377 16.3659 39.2622C16.936 39.4915 17.5107 39.6055 18.0496 39.6055C18.6704 39.6055 19.2438 39.4542 19.707 39.1537C19.8039 39.0909 19.8939 39.0231 19.9778 38.9513C19.9871 39.0717 20.0041 39.1841 20.0261 39.2874C20.2421 40.3012 21.0862 41.2112 22.2839 41.7217C24.2465 42.5584 25.0501 44.1782 25.1436 44.3795C25.1901 44.512 25.3058 44.612 25.4488 44.6354C25.4698 44.6389 25.4908 44.6406 25.5116 44.6406C25.6605 44.6406 25.7996 44.5545 25.8654 44.417C25.8696 44.4083 25.8734 44.3993 25.877 44.3903C25.9325 44.2671 26.7252 42.5794 28.737 41.7217C29.921 41.217 30.7559 40.3153 30.9702 39.3099C30.9948 39.1945 31.0131 39.0679 31.0213 38.9314C31.1062 39.0043 31.1974 39.073 31.2956 39.1367C31.7605 39.4381 32.3362 39.5899 32.9602 39.5899C33.5037 39.5899 34.0839 39.4748 34.6595 39.2432C36.6591 38.4389 38.3903 39.0225 38.6003 39.0991C38.7271 39.1602 38.8796 39.1488 38.9973 39.0643C39.1385 38.963 39.1952 38.779 39.1373 38.6152C39.1341 38.6061 39.1305 38.5972 39.1267 38.5885C39.0787 38.4616 38.4388 36.6894 39.2633 34.6395C39.7539 33.4199 39.7118 32.1752 39.1507 31.3102C39.098 31.2289 39.0415 31.1528 38.9823 31.0807C39.0678 31.0714 39.1541 31.058 39.2411 31.0395C40.2563 30.8231 41.1737 29.9639 41.6948 28.7413C42.5401 26.7585 44.1767 25.947 44.3795 25.8528C44.5121 25.8063 44.6121 25.6905 44.6356 25.5474C44.6638 25.3759 44.5738 25.2057 44.417 25.1309C44.4083 25.1267 44.3995 25.1229 44.3906 25.1195C44.2669 25.0638 42.5613 24.2631 41.6948 22.2306C41.1826 21.0289 40.2731 20.1828 39.2619 19.9673C39.1442 19.9422 39.0146 19.9238 38.8748 19.9158C38.9676 19.8112 39.046 19.7064 39.1116 19.6053C39.6787 18.7311 39.7305 17.4964 39.2503 16.3026C38.4541 14.3233 39.0313 12.6096 39.1074 12.4013C39.1683 12.2746 39.1571 12.1222 39.0727 12.0045C38.9714 11.8634 38.7875 11.8064 38.6237 11.8643C38.6145 11.8676 38.6055 11.8711 38.5966 11.875C38.4702 11.9229 36.7163 12.5557 34.6873 11.7397C33.514 11.2677 32.2952 11.3221 31.427 11.8852C31.3105 11.9608 31.1892 12.0531 31.0688 12.1649C31.0613 12.0173 31.0421 11.8808 31.0158 11.7573C30.7982 10.7363 29.948 9.81962 28.7413 9.30525C26.7588 8.46009 25.9472 6.82353 25.8529 6.62072C25.8064 6.48806 25.6907 6.38806 25.5477 6.36462C25.376 6.33626 25.206 6.42634 25.131 6.58298C25.1268 6.59181 25.123 6.60072 25.1195 6.60978C25.0634 6.734 24.2631 8.43892 22.2307 9.30525C21.0374 9.814 20.196 10.7231 19.9799 11.737C19.9532 11.8624 19.9338 12.0009 19.9266 12.1511C19.816 12.0516 19.7052 11.9681 19.5984 11.8988C18.7232 11.3312 17.4916 11.2775 16.3037 11.7554C14.3244 12.5516 12.6107 11.9744 12.4023 11.8983C12.2757 11.8375 12.1232 11.8486 12.0055 11.9331C11.8643 12.0344 11.8075 12.2183 11.8654 12.3821C11.8686 12.3913 11.8722 12.4002 11.876 12.4091C11.924 12.5357 12.5567 14.2897 11.7406 16.3184C11.2654 17.4999 11.317 18.7223 11.8787 19.5882C11.9627 19.7178 12.0673 19.8534 12.1973 19.987C12.0193 19.9908 11.8563 20.012 11.711 20.043C10.6935 20.2598 9.78407 21.0976 9.27828 22.284C8.44157 24.2467 6.82164 25.0502 6.62063 25.1437C6.48805 25.1902 6.38813 25.3059 6.36461 25.449C6.33649 25.6204 6.42641 25.7906 6.58321 25.8656L6.58313 25.8655ZM19.282 38.4983C18.6296 38.9214 17.6485 38.9361 16.6575 38.5375C15.4099 38.0357 14.2491 38.0235 13.495 38.1017C13.2395 38.1281 13.0132 38.1665 12.8265 38.2052C13.0002 37.3913 13.1295 35.9642 12.4871 34.367C12.0841 33.3652 12.0986 32.3738 12.5259 31.7153C12.8945 31.1471 13.5598 30.8197 14.5041 30.7386C15.7038 33.2573 17.7446 35.3014 20.2619 36.5058C20.1807 37.4583 19.8521 38.1285 19.282 38.4983ZM14.1109 25.5295C14.1109 19.2542 19.22 14.1489 25.5001 14.1489C31.7802 14.1489 36.8893 19.2542 36.8893 25.5295C36.8893 31.8047 31.7802 36.91 25.5001 36.91C19.22 36.91 14.1109 31.8047 14.1109 25.5295ZM30.2062 39.1471C30.0448 39.9041 29.3811 40.598 28.4306 41.0031C27.2044 41.5259 26.3822 42.331 25.9084 42.9145C25.7495 43.1102 25.6188 43.2939 25.5156 43.451C25.0656 42.7585 24.1565 41.6709 22.5903 41.0031C21.6263 40.5922 20.9534 39.8899 20.7902 39.1246C20.6471 38.453 20.8866 37.7445 21.5002 37.0158C22.7536 37.4529 24.0995 37.6913 25.5001 37.6913C26.9007 37.6913 28.2368 37.4547 29.4863 37.0206C30.1073 37.7571 30.3502 38.4715 30.2062 39.1471ZM38.5384 34.3481C38.0366 35.5957 38.0245 36.7566 38.1026 37.5106C38.1291 37.7662 38.1674 37.9925 38.2063 38.1792C37.3923 38.0056 35.9652 37.8761 34.368 38.5185C33.367 38.921 32.3774 38.9073 31.7208 38.4813C31.1533 38.1132 30.8263 37.4476 30.7453 36.5025C33.2557 35.2994 35.2917 33.2609 36.4909 30.7495C37.4489 30.831 38.123 31.1616 38.4952 31.7354C38.9181 32.3874 38.9343 33.3641 38.5384 34.348V34.3481ZM39.0991 20.7315C39.8618 20.8941 40.5635 21.569 40.9762 22.537C41.5035 23.7741 42.3158 24.6035 42.9043 25.0815C43.1037 25.2435 43.2908 25.3763 43.4502 25.4809C42.7519 25.9337 41.6513 26.8513 40.9762 28.4349C40.5545 29.424 39.845 30.112 39.0782 30.2755C38.4135 30.417 37.7089 30.1771 36.9813 29.5642C37.4271 28.301 37.6705 26.9432 37.6705 25.5295C37.6705 24.101 37.422 22.7295 36.9673 21.4552C37.7069 20.8316 38.4231 20.5875 39.0991 20.7315ZM31.8522 12.5408C32.5073 12.1159 33.4581 12.0875 34.3958 12.4645C35.6324 12.9619 36.7831 12.9739 37.5307 12.8966C37.7816 12.8706 38.0039 12.8331 38.1879 12.7949C38.0163 13.6028 37.8902 15.0146 38.5255 16.5942C38.9109 17.5524 38.885 18.5191 38.4562 19.1802C38.0746 19.7684 37.3939 20.1065 36.4323 20.1884C35.2397 17.7608 33.2611 15.7859 30.8298 14.5975C30.9125 13.6195 31.2555 12.9277 31.8523 12.5406L31.8522 12.5408ZM20.7441 11.8999C20.9072 11.1344 21.5775 10.4331 22.5371 10.024C23.7741 9.49665 24.6036 8.68447 25.0816 8.09595C25.2435 7.8965 25.3764 7.70939 25.4809 7.55001C25.9337 8.24837 26.8513 9.34892 28.435 10.024C29.408 10.4388 30.0871 11.1476 30.2517 11.9202C30.3966 12.5998 30.1538 13.317 29.5322 14.0545C28.2697 13.6102 26.9128 13.3677 25.5001 13.3677C24.0873 13.3677 22.7341 13.6096 21.473 14.0528C20.8441 13.3076 20.5981 12.5842 20.744 11.9L20.7441 11.8999ZM12.4656 16.6099C12.963 15.3733 12.975 14.2226 12.8976 13.475C12.8716 13.2242 12.8341 13.0018 12.7959 12.8178C13.6038 12.9893 15.0158 13.1156 16.5952 12.4802C17.5475 12.0971 18.5113 12.1249 19.1733 12.5543C19.7656 12.9385 20.1061 13.6227 20.1885 14.5886C17.7537 15.7738 15.7713 17.7472 14.575 20.1745C13.6034 20.0924 12.917 19.7532 12.5342 19.163C12.1108 18.5102 12.0851 17.5557 12.4656 16.6099V16.6099ZM9.99703 22.5904C10.4032 21.6377 11.1048 20.971 11.874 20.8071C12.5561 20.6618 13.2736 20.9031 14.0092 21.5227C13.5696 22.778 13.3297 24.1262 13.3297 25.5295C13.3297 26.9112 13.562 28.2395 13.9886 29.4782C13.2495 30.1017 12.5319 30.3456 11.8524 30.2005C11.0941 30.0389 10.4005 29.3773 9.99696 28.4307C9.47422 27.2045 8.66907 26.3824 8.08571 25.9085C7.88993 25.7495 7.70618 25.6188 7.54914 25.5157C8.24172 25.0658 9.32922 24.1567 9.99696 22.5906L9.99703 22.5904Z" fill="white"/>
<path d="M25.5 35.2229C30.8499 35.2229 35.2022 30.8744 35.2022 25.5293C35.2022 20.1843 30.8498 15.8358 25.5 15.8358C20.1502 15.8358 15.7978 20.1843 15.7978 25.5293C15.7978 30.8744 20.1502 35.2229 25.5 35.2229ZM25.5 16.6171C29.0581 16.6171 31.9527 19.5079 31.9527 23.0611C31.9527 26.6144 29.058 29.5053 25.5 29.5053C21.942 29.5053 19.0474 26.6144 19.0474 23.0611C19.0474 19.5079 21.942 16.6171 25.5 16.6171ZM19.6699 18.789C18.788 19.9865 18.266 21.464 18.266 23.0611C18.266 27.0453 21.5112 30.2865 25.4999 30.2865C29.4887 30.2865 32.7338 27.0453 32.7338 23.0611C32.7338 21.464 32.2119 19.9864 31.3299 18.789C33.2219 20.4244 34.4208 22.8397 34.4208 25.5294C34.4208 30.4437 30.4188 34.4418 25.4999 34.4418C20.5809 34.4418 16.5789 30.4437 16.5789 25.5294C16.5789 22.8397 17.7778 20.4244 19.6698 18.789H19.6699Z" fill="white"/>
</g>
<path d="M29.5 22.8333L35.5704 19.7981C36.4569 19.3549 37.5 19.9995 37.5 20.9907V30.0093C37.5 31.0005 36.4569 31.6451 35.5704 31.2019L29.5 28.1667M16.1667 33.5H26.8333C28.3061 33.5 29.5 32.3061 29.5 30.8333V20.1667C29.5 18.6939 28.3061 17.5 26.8333 17.5H16.1667C14.6939 17.5 13.5 18.6939 13.5 20.1667V30.8333C13.5 32.3061 14.6939 33.5 16.1667 33.5Z" stroke="white" stroke-width="2" stroke-linecap="round" stroke-linejoin="round"/>
<defs>
<clipPath id="clip0_644_1351">
<rect width="40" height="40" fill="white" transform="translate(5.5 5.5)"/>
</clipPath>
</defs>
</svg>
